<?xml version="1.0" encoding="UTF-8"?>
<svg id="Layer_2" data-name="Layer 2" xmlns="http://www.w3.org/2000/svg" xmlns:xlink="http://www.w3.org/1999/xlink" viewBox="0 0 87.11 92.81">
  <defs>
    <style>
      .cls-1 {
        stroke: #231815;
        stroke-miterlimit: 10;
      }

      .cls-1, .cls-2 {
        fill: #231815;
      }

      .cls-3 {
        fill: none;
      }

      .cls-3, .cls-2, .cls-4, .cls-5 {
        stroke-width: 0px;
      }

      .cls-6 {
        clip-path: url(#clippath);
      }

      .cls-4 {
        fill: #fff;
      }

      .cls-5 {
        fill: #008ed5;
      }
    </style>
    <clipPath id="clippath">
      <path class="cls-3" d="M77.81,76.42L9.3,92.58C4.16,93.79,0,90,0,84.11V28.64c0-5.89,4.16-11.65,9.3-12.86C32.9,11.37,56.5,6.95,80.09,2.54,81.22.2,82.21.01,82.58,0c1.68-.05,3.47,3.15,4.53,8.09v55.46c0,5.89-4.16,11.65-9.3,12.86Z"/>
    </clipPath>
  </defs>
  <g id="_レイヤー_1" data-name="レイヤー 1">
    <g class="cls-6">
      <g>
        <path class="cls-4" d="M45.45,31.37c-10.43,1-11.38.6-13.57,1.87-4.81,2.79-7.36,8.8-7.49,14.04-.18,7.32,4.34,13.94,10.61,17,7.37,3.6,15.8,1.62,20.91-2.81,10.07-8.74,7.46-27.26.94-30.73-1.38-.73-1.96-.28-11.39.62Z"/>
        <g>
          <g>
            <path class="cls-1" d="M31.12,86.87c-1.67,8.31-3.06,19.4-2.36,32.43.61,11.33,2.63,20.96,4.76,28.42,3.39-.04,6.79-.09,10.18-.13.55-3.39,1.28-8.47,1.85-14.67,1.02-11.16.84-18.79,1.24-18.79.4,0,.67,7.49,1.82,19.69.53,5.58,1.05,10.16,1.43,13.25,3.88-.09,7.75-.18,11.63-.26,1.5-6.58,2.74-14.36,3.17-23.13.72-14.72-1.11-27.27-3.28-36.72-10.15-.02-20.3-.05-30.44-.07Z"/>
            <g>
              <path class="cls-2" d="M70.52,62.21c-.13-.99-1.84-1.13-3.66-3.01-2.07-2.15-2.61-4.85-2.96-7.44-1.59-11.76,1.57-15.91-1.63-21.21-.24-.4-3.96-6.35-9.52-6.22-2.09.05-3.75.95-4.75,1.65-.54-.27-1.33-.62-2.31-.92-5.05-1.56-9.96-.21-12.48.95-7.5,3.46-12.4,13.57-11,21.73,1.08,6.31,5.69,10.07,3.65,13.95-1.4,2.66-4.66,2.96-4.51,4.26.09.79,1.44,1.91,11.87,2.97,3.79.38,6.13.49,8.07.48,2.78-.02,3.76-.2,7.12-.33,2-.08,4.98-.14,8.67-.01,11.24-3.56,13.61-5.6,13.45-6.83ZM27.93,53.8c-.08-.02-1.61-.47-2.07-1.97-.53-1.72.9-3.1,1.02-3.21.74-.69,1.6-.86,1.96-.91-.08.75-.1,1.73.07,2.86.2,1.32.59,2.38.93,3.13-.28.1-1.02.34-1.9.1ZM51.93,61.89c-1.6,1.17-2.88,2.11-4.77,2.56-5.74,1.36-11.72-3.09-14.72-7.12-1.05-1.4-2.99-4.45-3.56-9.15,1.99.09,4.9-.09,6.5-1.99,3.03-3.61-1.33-10.22,1.6-12.78,1.81-1.58,5.22-.61,6.88-.11,2.97.9,4.89,2.66,5.81,3.63,2.83-2.28,5.89-3.17,7.83-2.04,1.69.98,1.96,3.15,2.36,6.3.38,2.99.95,7.38-1.29,12.46-.51,1.14-2.38,5.11-6.64,8.23Z"/>
              <g>
                <path class="cls-2" d="M70.38,62.23c-.09-.49-.62-.74-1.02-.99-.46-.27-.93-.54-1.37-.86-2.77-1.9-3.89-5.28-4.28-8.48-.64-4.26-.65-8.6-.3-12.88.16-2.39.29-4.82-.66-7.02l-.14-.37c-.3-.58-.59-1.18-.99-1.7-1.22-1.72-2.74-3.28-4.58-4.34-3.12-1.79-6.12-1.44-9.06.44-4.6-2.33-10.26-1.98-14.83.23-5.22,2.61-9.34,8.67-10.56,14.32-.57,2.99-.49,6.13.35,9.06.56,1.96,1.49,3.79,2.35,5.67,1.52,3.14,2.09,6.13-1.14,8.41-.81.63-1.84.96-2.55,1.69-.74,1.02.96,1.57,1.69,1.83,2.96.86,6.06,1.17,9.12,1.48,2.05.2,4.1.36,6.15.43,2.05.08,4.1,0,6.15-.14,4.11-.33,8.25-.4,12.37-.22,2.09-.75,13.3-3.89,13.3-6.56h0ZM70.67,62.19c.16,1.95-4.69,3.75-6.21,4.45-2.43.99-4.9,1.89-7.4,2.66-4.11-.12-8.22-.05-12.32.21-2.06.13-4.14.14-6.2.01-4.12-.29-8.21-.76-12.28-1.46-1.51-.32-3.09-.55-4.43-1.35-.48-.29-.77-.9-.34-1.39.72-.76,1.75-1.1,2.56-1.74.82-.6,1.51-1.39,1.88-2.33.8-1.95-.16-4-1.02-5.78-.92-1.85-1.88-3.7-2.48-5.69-.98-3-.86-6.24-.11-9.27,1.54-7.12,6.2-13.87,13.6-15.63,3.01-.76,6.21-.86,9.21-.04,1,.26,1.97.62,2.9,1.08h-.06c.88-.61,1.86-1.1,2.91-1.39,3.21-.95,6.58.51,8.91,2.74,1.37,1.3,2.64,2.8,3.39,4.55,1.03,2.26.91,4.82.78,7.23-.32,4.27-.36,8.54.2,12.79.33,3.13,1.33,6.4,4.03,8.28.64.49,1.38.82,2.03,1.32.22.18.43.44.47.76h0Z"/>
                <path class="cls-2" d="M27.89,53.94c-2.26-.65-2.99-2.53-1.72-4.51.38-.63.79-1.36,1.5-1.68.4-.18.88-.04,1.28-.24,0,0,.02.21.02.21.05.25.13.5.07.76-.06.75-.21,1.52-.07,2.28.16,1.01.73,1.89,1.1,2.82,0,0,.11.28.11.28-.73.31-1.56.29-2.3.08h0ZM27.96,53.66c.59.17,1.22.01,1.76-.21,0,0-.15.37-.15.37-.49-.93-.52-2.02-.69-3.04-.12-.76-.37-1.53-.37-2.31-.03-.27.08-.53.18-.77,0,0,.16.16.16.16-.37-.04-.64.28-.95.41-.31.13-.61.27-.91.46-1.95,1.25-.99,4.28.97,4.93h0Z"/>
                <path class="cls-2" d="M52.02,62.01c-1.09.8-2.19,1.64-3.48,2.18-.95.4-1.99.64-3.03.7-5.82.32-11.37-4.14-14.2-8.94-1.39-2.4-2.17-5.1-2.49-7.82,2.71.19,6.25-.4,7.19-3.36.64-1.97.06-4.3-.2-6.31-.19-1.43-.33-3.03.41-4.35,1.7-2.63,5.69-1.79,8.17-.91,2.07.72,3.93,2.02,5.39,3.63,0,0-.2-.01-.2-.01,2.54-2.06,7.78-4.25,9.47-.13.46,1.14.64,2.37.83,3.57.53,3.21.88,6.53.17,9.75-1.04,4.83-4.08,9.09-8.04,12h0ZM51.84,61.78c5.19-3.83,8.3-10.2,8.14-16.65,0-1.61-.19-3.22-.37-4.83-.21-1.57-.31-3.28-1.27-4.59-2.35-2.68-6.38-.5-8.58,1.35,0,0-.1.08-.1.08l-.1-.1c-1.5-1.51-3.33-2.67-5.35-3.34-1.34-.42-2.73-.78-4.13-.93-1.03-.11-2.15.02-2.96.71-.82.69-1,1.78-.97,2.81.07,2.8,1.14,5.82.14,8.6-1.1,2.95-4.66,3.51-7.42,3.37,0,0,.06-.06.06-.06.34,2.68,1.23,5.3,2.66,7.59,2.85,4.4,7.99,8.51,13.39,8.72.46-.04,1.04,0,1.49-.11,2.04-.23,3.74-1.4,5.36-2.6h0Z"/>
              </g>
            </g>
            <path class="cls-2" d="M49.06,45.63c-.16,1.04.27,2.06,1.11,2.68.16.12.42.29.36.52s-.36.48-.53.64c-.39.36-.88.58-1.39.31-.17-.09-.42-.02-.57.07-.12.07-.24.24-.07.33.65.35,1.46.22,2.09-.13.3-.17.57-.39.8-.64.21-.22.52-.51.5-.83-.02-.29-.27-.47-.48-.63-.24-.18-.45-.4-.62-.65-.34-.52-.48-1.16-.38-1.77.05-.33-.77-.19-.81.1h0Z"/>
            <path class="cls-2" d="M51.36,43.22s-.02-.02-.02-.03l.02.03s-.03-.08-.03-.12v.04c0-.05.03-.1.06-.14l-.03.04s.04-.05.07-.06l-.06.04s.02-.01.03-.02c.04-.02-.08.04-.05.03,0,0,0,0,0,0,.02,0,0,0-.04.01-.08.03-.03.01-.01,0,0,0,.01,0,.02,0,.02,0-.13.04-.08.03s.1-.03.15-.04c.11-.03.22-.07.32-.12.08-.04.17-.09.24-.16.03-.03.06-.07.02-.11-.03-.01-.05-.02-.08-.02-.04,0-.08,0-.12,0-.11.01-.21.03-.32.07l-.09.04s-.09.05-.13.08c-.02.02-.03.03-.05.05l.06-.04s-.02.01-.03.02c-.04.02.1-.05.04-.02,0,0-.01,0-.02,0,.08-.03.1-.04.07-.03,0,0-.02,0-.02,0,0,0-.01,0-.02,0,.09-.03.12-.04.08-.03-.01,0-.02,0-.03,0-.02,0-.04.01-.06.02-.19.05-.38.11-.54.24-.07.05-.14.13-.16.22-.03.09-.01.17.06.24.03.01.05.02.08.02.04,0,.08,0,.12,0,.1,0,.22-.03.32-.07l.09-.04s.09-.05.13-.08c.03-.03.06-.07.02-.11h0Z"/>
            <path class="cls-2" d="M43.67,44.27c.2,0,.42-.06.57-.2.06-.06.12-.15.13-.24s0-.17-.07-.24c-.06-.08-.17-.12-.26-.14-.15-.04-.3-.02-.45.01-.14.03-.27.09-.38.18-.1.07-.17.16-.22.27-.03.07-.03.16,0,.22.04.09.1.16.19.2.07.03.15.04.23.04.13,0,.27-.03.38-.08.13-.06.26-.14.34-.27.05-.09.07-.16.07-.26,0-.12-.07-.25-.16-.33-.19-.17-.45-.18-.69-.12-.22.05-.46.19-.56.39-.04.07-.06.14-.07.22,0,.05,0,.09.01.14s.04.09.06.13c.03.06.17.07.22.07.1,0,.22-.02.32-.06.08-.04.17-.08.22-.16l.03-.06s0-.08-.03-.11h0s.02.03.03.04c-.03-.05-.04-.09-.04-.15v.06c0-.06.01-.11.04-.16l-.03.06s.04-.06.06-.09l-.05.06s.04-.04.06-.06l-.07.05s.02-.02.04-.02l-.09.05s.03-.01.04-.02l-.11.04s.03,0,.04-.01l-.11.02s.02,0,.04,0h-.1s.03,0,.05,0h-.09s.04,0,.05,0l-.07-.02s.06.02.08.04l-.05-.04s.08.08.11.13l-.03-.05c.03.06.05.12.05.18v-.06s0,.08-.03.12l.03-.06s-.03.05-.04.07l.05-.06s-.03.03-.04.04l.07-.05s-.02.02-.04.02l.09-.05s-.01,0-.02,0l.11-.04s-.02,0-.03,0l.11-.02s-.01,0-.02,0h.1s-.01,0-.02,0h.09s-.02,0-.03,0l.07.02s-.03-.01-.04-.02l.05.04s-.04-.04-.06-.07l.03.05s-.03-.07-.03-.11v.06s0-.06.02-.09l-.03.06s.03-.05.05-.07l-.05.06s.03-.03.05-.04l-.07.05s.03-.02.05-.03l-.09.05s.03-.02.05-.02l-.11.04s.03-.01.05-.01l-.11.02s.04,0,.05,0h-.1s.04,0,.05,0h-.09s.04,0,.06,0l-.07-.02s.05.02.07.04l-.05-.04s.04.04.05.06l-.03-.05s.02.06.02.09v-.06s0,.06-.02.08l.03-.06s-.02.03-.03.04l.05-.06s-.02.02-.02.02l.07-.05s-.01,0-.02.01l.09-.05s0,0-.01,0l.11-.04s-.01,0-.02,0l.11-.02s-.01,0-.02,0h.1s0,0,0,0c-.11,0-.22.02-.32.06-.07.03-.18.09-.22.16-.03.05-.05.12,0,.17.06.05.14.08.22.07h0Z"/>
            <path class="cls-2" d="M50.71,53.61c-.88.74-2.02.82-3.11.64-.58-.1-1.15-.26-1.71-.44-.41-.13-1.21-.26-1.29-.77-.02-.15-.84.02-.81.22.1.6,1.09.75,1.55.9.74.24,1.5.43,2.28.49,1.33.1,2.78-.22,3.82-1.09.14-.12-.13-.13-.19-.12-.18.01-.4.07-.54.19h0Z"/>
            <path class="cls-2" d="M44.78,40.97c-1.43-.36-2.91-.46-4.37-.28-.12.01-.32.08-.34.23s.17.18.27.17c1.36-.16,2.74-.08,4.08.26.14.04.33,0,.43-.12.09-.1.07-.22-.07-.26h0Z"/>
            <path class="cls-2" d="M54.17,42.23c.98-.17,1.99-.14,2.97.04.16.03.37-.03.52-.09.04-.02.3-.12.2-.19-1.18-.77-2.85-.61-4,.14-.02.01-.11.06-.1.11s.11.04.14.04c.18,0,.42-.05.57-.15.39-.26.72-.35,1.18-.34.51.01,1.01.18,1.44.46l.72-.28c-1.15-.21-2.33-.2-3.48,0-.11.02-.44.08-.48.21s.28.06.32.06h0Z"/>
            <path class="cls-2" d="M43.29,43.37s-.04,0-.06,0h.1s-.08,0-.13,0h.09c-.06,0-.12,0-.17-.02l.07.02c-.07-.02-.14-.05-.21-.08-.04-.01-.08-.02-.12-.02-.05,0-.1,0-.15,0-.1.01-.22.05-.31.1l-.07.05s-.07.06-.08.11v.05s.04.06.08.07c.25.14.56.16.83.12.1-.02.22-.05.31-.1.04-.02.07-.04.1-.08.03-.02.05-.05.06-.08v-.05s-.04-.06-.08-.07c-.08-.03-.18-.03-.26-.02h0Z"/>
            <path class="cls-2" d="M42.72,44.07c-.05.37.25.65.59.72.4.08.87-.02,1.19-.27.14-.11.27-.26.31-.44.02-.1.01-.2-.05-.29s-.18-.13-.28-.17c-.35-.15-.76-.15-1.12-.05l.48.22s0-.05.01-.08c0,0-.01.04,0,.01s0,0-.01.01c0,0,.02-.02.03-.03.03-.04-.05.04-.01.01.04-.03-.03.02-.03.02.05-.03,0,0-.03,0,.03,0,.06-.02.08-.02.08-.02-.08,0,0,0,.03,0,.05,0,.08,0,.01,0,.03,0,.04,0,.05,0-.07,0-.02,0,.03,0,.06,0,.09,0,.07,0-.05-.02.01,0,.03,0,.05.02.08.02,0,0,.04.02,0,0-.04-.02.01,0,.02.01.02.01.04.03.07.04.03.02,0,0,0,0,.01.01.02.02.03.03.05.05.08.11.12.17,0,.01.01.03.02.04,0,0-.01-.03,0,0,.01.03.03.06.04.08s.02.06.03.09c0,.04,0,.03,0,.06,0,.01-.01.05,0,0,0,.01-.01.02-.02.03s-.01.02-.02.03c0,0,.04-.04.01-.02-.02.02-.04.04-.05.06-.03.03.02-.02.02-.02,0,0-.04.03-.04.03,0,0-.06.05-.07.05,0,0,.07-.03.02-.01-.01,0-.03.01-.04.02-.02,0-.04.02-.05.02-.01,0-.06.02,0,0s0,0,0,0c-.02,0-.04.01-.06.02-.01,0-.03,0-.04.01-.04.01.03,0,.04,0-.02,0-.06,0-.09.01-.01,0-.03,0-.04,0-.05,0,.03,0,.03,0,0,0-.1,0-.1,0-.05,0,.06.02.01,0-.02,0-.03,0-.05-.01-.03,0-.06-.02-.09-.03,0,0-.05-.02-.01,0s-.01,0-.02-.01c-.03-.01-.05-.03-.08-.05-.01,0-.02-.02-.03-.02,0,0-.05-.04-.02-.02s0,0-.01-.01c-.02-.02-.03-.03-.05-.05-.02-.02-.04-.05-.06-.07,0-.01-.01-.02-.02-.03,0,0-.03-.06-.01-.02-.09-.17-.3-.2-.47-.14-.1.03-.2.07-.27.15-.04.05-.11.14-.07.21.16.33.46.56.82.63.47.09.94-.02,1.34-.28.16-.1.32-.25.39-.43.08-.22,0-.4-.09-.6-.08-.16-.19-.31-.35-.4-.17-.1-.37-.15-.56-.16-.25,0-.52.03-.75.13s-.47.3-.48.57c-.01.24.31.26.48.22.03,0,.06-.02.09-.02.08-.02-.06,0,0,0,.02,0,.05,0,.07,0,.1-.01-.08,0,.02,0,.05,0,.1,0,.15.01-.08,0,0,0,.02,0,.02,0,.05.01.07.02s.05.02.07.03c-.06-.02.03.01.03.02.03.01.02.02,0,0-.01-.02,0-.03,0,0-.01.07.03-.04,0,.02,0,0-.03.07-.01.03.02-.04-.01.01-.02.02-.05.06.06-.04,0,0-.02.01-.04.02-.05.04-.04.03.08-.04.01,0-.01,0-.02.01-.04.02-.03.01-.02,0,.05-.01-.02,0-.05.02-.07.02-.02,0-.05.02-.07.02.11,0,.02,0-.01,0-.07,0,.04,0,0,0-.03,0-.06,0-.01,0-.03,0-.06-.02-.09-.03.04.02.02,0,0,0-.02-.01-.05-.03-.02,0-.02-.02-.04-.04-.05-.06-.01-.02-.03-.04-.04-.05-.01-.02,0,.03,0-.02,0-.03-.01-.05-.02-.07,0,.04,0-.02,0-.03.05-.38-.78-.26-.82.07h0Z"/>
            <path class="cls-2" d="M54.88,45.08c.4-.14.77-.31,1.13-.53.06-.04.14-.11.15-.18.01-.07-.03-.13-.09-.16-.17-.08-.42-.03-.57.07-.07.05-.14.09-.22.13-.02.01-.04.02-.06.03-.06.03.09-.05.03-.02-.04.02-.08.04-.11.06-.07.04-.15.07-.22.1-.04.02-.07.03-.11.04-.04.02-.2.07-.04.02-.1.03-.19.07-.27.14-.04.04-.1.12-.08.18.02.07.09.11.16.12.1.02.21.02.3-.01h0Z"/>
            <path class="cls-2" d="M55.08,44.34c-.18-.19-.39-.33-.65-.36-.29-.04-.6.08-.81.29-.15.15-.25.36-.26.57,0,.13,0,.26.08.37.06.09.18.15.28.19.3.13.64.17.94.01.23-.12.41-.31.47-.57.05-.22-.02-.45-.14-.63-.14-.21-.37-.31-.61-.35-.52-.07-1.01.28-1.23.73-.1.19-.16.4-.13.62.03.23.23.35.42.44.27.11.57.15.85.06.27-.09.51-.25.65-.5.11-.2.14-.42.12-.64s-.14-.41-.31-.55c-.21-.17-.5-.19-.76-.18-.3,0-.6.11-.82.32-.34.32-.36.87-.06,1.23.07.08.15.15.24.2.16.1.43.04.58-.06.12-.09.23-.26.06-.36,0,0-.07-.04-.07-.05,0,0,.04.04,0,0-.01-.01-.03-.02-.04-.04-.05-.05-.08-.1-.11-.16l.03.06c-.05-.11-.08-.22-.09-.34v.07c0-.07,0-.14.02-.2,0-.02,0-.04.02-.05-.01.02-.02.04,0,0s.03-.06.05-.08c0,0,.03-.05,0,0-.03.04,0,0,.01-.01,0,0,.02-.02.03-.03,0,0-.07.05-.03.02.01,0,.03-.01.04-.02-.05.03-.06.03-.04.02,0,0,.01,0,.02,0,.04-.02-.09.02-.04.01.03,0,.08,0-.03,0,.03,0,.06,0,.09,0,.07,0-.07,0-.02,0,.02,0,.03,0,.05,0s.03,0,.05,0c0,0,.02,0,.02,0,.03,0,.02,0-.03,0,.02,0,.09,0,.1.03h-.03s.02,0,.03,0c.01,0,.02.01.04.02.01,0,.02.01.03.02.03.02-.04-.04,0,0,.04.05.08.09.11.15l-.03-.06c.05.1.08.21.09.33v-.07c0,.06,0,.13-.02.19,0,.03-.01.07-.02.1,0,0,0,.04-.01.04.01-.03.01-.04,0-.02,0,0,0,.01,0,.02-.01.03-.03.06-.04.08,0,0-.03.03-.02.04,0,0,.04-.05,0-.01-.01.01-.02.02-.03.03-.05.05.05-.03.01-.01-.01,0-.02.02-.03.02-.03.03.09-.04.03-.02-.01,0-.03,0-.04.02,0,0,.1-.04.05-.02-.06.02.09-.01.04,0-.01,0-.06,0,0,0s0,0,0,0c0,0-.02,0-.02,0-.03,0-.02,0,.03,0-.03-.01-.06-.01-.09-.02-.01,0-.06-.03-.03,0,.03.02,0,0-.02,0-.03-.02-.07-.03-.1-.05,0,0-.07-.05-.07-.04,0,0,.04.04,0,0,0-.01-.02-.03-.03-.04l.03.06c-.03-.05-.04-.11-.04-.17v.07c0-.07,0-.14.03-.21,0-.02.01-.04.02-.06,0,0,.02-.06,0-.02s.01-.03.01-.03c0-.02.02-.04.02-.05.03-.07.07-.13.12-.19.02-.03-.04.05,0,0,.01-.02.03-.03.04-.05,0,0,.02-.02.03-.03,0,0,.01-.01.02-.02.02-.02,0,0-.03.03.01,0,.03-.02.04-.03.03-.02.06-.02-.03.02.01,0,.03-.01.04-.02.05-.02-.1.03-.04.01s-.09.01-.04,0c.08,0-.03,0-.03,0,0,0,.09.01.01,0-.06-.01,0,0,.01,0,0,0,.02,0,.03,0,.02,0,.01,0-.03-.01,0,0,.03.01.04.02.02.01.04.02.05.03.04.03-.02-.02,0,0,.05.06.09.11.13.17l-.03-.06c.05.1.08.2.08.3v-.07c0,.05,0,.1-.02.15,0,.01-.03.07-.01.04.02-.04-.01.02-.02.03,0,0-.01.02-.02.03-.02.03-.01.02.02-.02-.01,0-.03.03-.04.04-.04.05.07-.05.02-.01s.09-.04.03-.02c.08-.03.1-.03.07-.02-.03,0,0,0,.06-.01-.08,0,.09.01,0,0,.1.01.01,0,0,0-.02,0-.05-.01-.07-.02.06.04,0,0-.02-.01-.02-.01-.05-.02-.07-.04-.01,0-.07-.05-.04-.02.03.03-.02-.04-.03-.04l.03.06c-.03-.06-.04-.12-.04-.18v.07c0-.06,0-.11.02-.17,0-.02,0-.06.02-.07-.01.03-.01.04,0,0,0-.01.01-.02.02-.04,0-.02.02-.03.03-.05,0-.01.01-.02.02-.03-.03.04-.04.05-.01.02.01-.01.03-.03.04-.04-.05.04-.06.05-.03.03,0,0,.02-.01.03-.02-.07.03-.08.04-.05.03-.08.03-.1.03-.07.02.03,0,0,0-.07.01.04,0,.03,0-.04,0,.01,0,.03,0,.04,0-.06-.01-.07-.01-.03,0h.02s.03.01-.02,0c.02,0,.06.03.08.04.02.01.04.03.06.04.03.02.03.02,0,0,.01.01.02.02.04.03.02.02.05.05.07.07.13.14.39.11.54.03.11-.05.34-.22.2-.37h0Z"/>
            <circle class="cls-2" cx="44.09" cy="55.14" r=".29"/>
            <circle class="cls-2" cx="38.84" cy="45.25" r=".29"/>
            <g>
              <g>
                <g>
                  <path class="cls-5" d="M66.55,112.22c.66-.72,1.54-1.9,2.04-3.56,1.21-4.02-.85-7.5-1.25-8.16,2.76-16.23-3.46-30.31-13.87-34.78-.87-.37-7.45-3.09-14.4-.37-10.38,4.05-16.88,18.29-14.01,35.09-.6,1.72-1.29,4.52-.84,7.89.16,1.19.44,2.24.74,3.14,4.09,2.07,12.73,5.72,24.01,5.14,7.75-.4,13.83-2.63,17.58-4.38Z"/>
                  <path class="cls-4" d="M66.39,112.01c2.76-3.06,2.76-7.88.54-11.26,0,0-.09-.15-.09-.15,0,0,.03-.18.03-.18,2.16-12.89-1.17-30.34-14.97-35.16-6.13-2.01-13.12-.57-17.87,3.74-2.19,1.95-4.21,4.16-5.58,6.78-3.4,7.65-4.5,16.33-3.26,24.63-1.25,3.52-1.41,7.47-.11,11.01,12.4,5.96,28.38,6.37,41.31.59h0ZM66.7,112.43c-13.05,6.68-29.07,6.08-41.86-.88-1.22-3.49-1.11-7.9.07-11.1-1.12-5.89-1.24-12.08.21-17.94,4.01-12.88,12.55-21.88,26.85-17.47,13.99,4.95,18.41,22.18,15.84,35.53,0,0-.06-.33-.06-.33,2.34,3.76,2.23,8.97-1.03,12.19h0Z"/>
                </g>
                <g>
                  <path class="cls-4" d="M37.05,80.65v3.49c.12-.01.24-.02.35-.04,0-1.03.02-2.32.97-2.97l-.29-.02c.2.5.32,1.03.37,1.57.01.15.33.03.36-.07.12-.36.28-.7.48-1.01.15-.24.43-.74.76-.71l-.11-.07c.04.44.08.88.12,1.33.01.14.37.06.35-.1-.04-.44-.08-.88-.12-1.33,0-.05-.08-.06-.11-.07-.47-.05-.81.32-1.06.67-.29.4-.51.85-.67,1.32l.36-.07c-.05-.54-.17-1.07-.37-1.57-.04-.11-.22-.07-.29-.02-1.03.71-1.1,2-1.1,3.14,0,.16.36.1.36-.04,0-1.16,0-2.33,0-3.49,0-.16-.36-.1-.36.04h0Z"/>
                  <path class="cls-4" d="M41.75,81.17c-.34-.21-.75,0-.95.3-.18.27-.34.66-.17.97.02.05.1.05.15.05.06,0,.12-.03.16-.08.37-.38.68-.82.92-1.3l-.35.03c.13.34.33.63.6.87.12.11.42-.07.27-.2-.23-.21-.4-.47-.52-.76-.06-.14-.29-.09-.35.03-.22.46-.52.87-.87,1.23l.31-.03c-.11-.21.02-.49.12-.67.04-.08.11-.18.18-.23.07-.04.14-.06.22-.01s.18.03.25-.02c.06-.04.1-.14.02-.18h0Z"/>
                  <path class="cls-4" d="M42.41,80.61v1.74c.12-.03.24-.06.36-.1-.04-.38.1-.74.25-1.08.09-.21.29-.64.58-.56.08.02.18,0,.25-.04.03-.02.12-.08.04-.11-.22-.06-.47-.01-.67.09s-.34.27-.45.46-.2.42-.27.63c-.07.23-.12.46-.09.7,0,.08.35,0,.35-.1v-1.74c0-.07-.36-.02-.36.1h0Z"/>
                  <path class="cls-4" d="M44.6,81.05c-.25-.05-.51-.03-.75.06-.15.05-.54.24-.32.44.17.16.41.25.64.27.16.02.44,0,.46.23.01.11-.13.16-.21.2-.12.06-.24.11-.36.16-.05.02-.14.09-.09.15s.18.03.24,0c.21-.08.43-.17.62-.3.09-.07.17-.15.16-.27,0-.08-.06-.17-.12-.22-.17-.14-.4-.11-.61-.15-.07-.02-.51-.17-.42-.28.02-.02.08-.04.11-.06s.09-.03.12-.03c.1-.02.21-.02.31,0,.08.02.19,0,.25-.07.05-.05.04-.12-.04-.13h0Z"/>
                  <path class="cls-4" d="M45.13,79.05c-.04,1.33-.07,2.67.18,3.98.02.11.34.02.35-.07.1-.54.34-1.04.72-1.44,0,0,.14-.16.16-.15.01,0,0,.17,0,.18,0,.11,0,.21.03.31.06.24.19.45.37.61.09.08.42-.06.33-.13-.3-.27-.37-.58-.36-.96,0-.32-.39-.23-.57-.11-.26.17-.48.47-.64.74-.19.31-.31.65-.38,1l.35-.07c-.25-1.3-.22-2.62-.18-3.93,0-.13-.35-.06-.35.05h0Z"/>
                  <path class="cls-4" d="M47.22,81.31l.02.57c0,.18.29.14.35.01.1-.23.24-.44.41-.62.02-.02.05-.04.06-.07l.02-.02c-.08-.03-.11-.03-.09.01-.01.03.04.15.05.19.04.14.07.29.11.43.04.17.33.08.36-.06.08-.47.4-.86.84-1.04l-.26-.06c.06.71.07,1.43.04,2.15,0,.19.35.14.36-.02.03-.74.02-1.48-.04-2.22,0-.12-.2-.09-.26-.06-.54.22-.94.72-1.04,1.29l.36-.06c-.05-.2-.09-.41-.15-.6s-.26-.25-.44-.15c-.16.09-.29.26-.39.41-.11.15-.2.31-.28.48h.35c0-.18-.01-.37-.02-.56s-.37-.14-.36.02h0Z"/>
                  <path class="cls-4" d="M50.51,80.75c-.46.26-.72.83-.5,1.34.02.05.11.03.15.03.07-.01.14-.04.19-.08.3-.27.53-.62.64-1.01l-.35.08c.17.45.37.94.8,1.21.06.04.17,0,.23-.01.02,0,.16-.07.1-.11-.42-.26-.61-.74-.78-1.18-.03-.09-.33,0-.35.08-.11.38-.32.71-.61.97l.34-.06c-.17-.4-.04-.96.36-1.18.04-.02.12-.07.04-.1-.07-.03-.19,0-.25.04h0Z"/>
                  <path class="cls-4" d="M51.63,79.34v3.23c0,.1.35.04.35-.1v-3.23c0-.1-.35-.04-.35.1h0Z"/>
                  <path class="cls-4" d="M52.63,79.71c.02.95.01,1.91-.01,2.86,0,.06.35.01.35-.1.03-.95.03-1.91.01-2.86,0-.07-.36-.01-.35.1h0Z"/>
                  <path class="cls-4" d="M53.69,82.07c-.09.26.13.51.38.54.33.04.7-.13.88-.41.08-.13.12-.28.15-.43.02-.14.05-.31-.05-.42-.09-.1-.23-.13-.36-.13-.18,0-.36.04-.52.12-.27.13-.48.39-.49.7,0,.05.35,0,.35-.1,0-.2.11-.39.27-.52.03-.02.07-.04.1-.06.03-.01-.02,0,0,0s-.03,0,0,0c0,0,.04-.01.02,0,0,0,0,0,0,0,.07,0,.17.02.24.08.09.08.09.2.08.31-.01.12-.03.25-.08.37-.04.1-.1.2-.18.28-.03.03-.07.06-.1.08,0,0-.04.02-.02.01,0,0,.03,0,0,0-.02,0,0,0,0,0-.01,0-.02,0-.03,0-.22,0-.39-.26-.32-.46.02-.06-.12-.04-.14-.03-.05,0-.09.02-.14.04-.02.01-.06.03-.07.05h0Z"/>
                  <path class="cls-4" d="M55.56,81.26c-.06.4-.03.8.08,1.19.04.13.26.11.33.01.19-.29.37-.57.56-.86h-.33c.1.34.33.64.64.84.11.07.24.02.31-.08.34-.57.68-1.15,1.01-1.72.05-.08-.04-.15-.11-.16-.09-.02-.18.03-.23.11-.34.57-.68,1.15-1.01,1.72l.31-.08c-.27-.17-.47-.42-.56-.73-.04-.13-.26-.11-.33-.01-.19.29-.37.57-.56.86h.33c-.11-.35-.13-.73-.08-1.1.03-.19-.34-.15-.36.02h0Z"/>
                </g>
                <g>
                  <g>
                    <g>
                      <g>
                        <g>
                          <path class="cls-4" d="M29.01,62.4c-.13-.65-.27-1.31-.4-1.96.23-.11,1.46-.7,1.83-2.02.41-1.49-.55-2.98-1.53-3.62-.67-.44-.89-.18-1.28-.6-.54-.58-.39-1.36-.88-3.43-.06-.27-.18-.72-.51-.85-.19-.07-.44-.03-.59.1-.26.23-.19.69-.15.98.31,1.94.71,2.96.39,3.21-.2.16-.48-.19-.91-.01-.44.18-.35.65-.8.94-.51.32-.94-.07-1.26.23-.39.37.05,1.18-.3,1.41-.25.17-.57-.22-.96-.1-.48.15-.84.95-.71,1.49.1.43.41,1.53,1.43,2.37,1.77,1.48,4.06.82,4.25.76.24.57.48,1.14.72,1.7.55-.2,1.1-.39,1.65-.59Z"/>
                          <path class="cls-2" d="M28.78,62.27c-.27-.76-.51-1.35-.66-2.05,1.21-.54,2.16-1.73,1.88-3.01-.16-.85-.68-1.77-1.42-2.28-.29-.21-.66-.19-.95-.46-.59-.6-.53-1.38-.66-2.03-.11-.67-.25-1.38-.53-1.96-.16-.29-.34-.33-.5-.24-.08.05-.07.08-.07.15.06.76.41,1.52.35,2.35-.1.53.32,1.53-.37,1.78-.37.04-.48-.03-.58.02-.15.07-.21.31-.29.43-.27.63-1.13.88-1.74.67-.29-.03-.14.53-.25.97-.03.27-.42.49-.66.37-.2-.07-.32-.17-.46-.19-.26-.05-.54.2-.68.49-.57,1.2.68,2.62,1.68,3.18,1.25.66,2.74.64,4.06.25,0,0,.16.39.16.39.24.57.44,1.15.65,1.73l-.53-.23c.47-.14.97-.21,1.56-.33h0ZM29.25,62.53c-.6.34-1.37.73-2.09,1-.32-.68-.67-1.36-.97-2.05,0,0,.6.28.6.28-1.46.44-3.13.27-4.31-.73-1.02-.92-1.99-2.48-1.46-3.85.16-.31.41-.68.88-.68.21.01.4.09.53.11.13,0,.09-.02.1-.11.02-.24-.17-.59-.03-1.11.16-.56.8-.59,1.22-.57.49-.1.33-.55.79-.89.32-.32,1.09-.18,1.26.05.09-.17-.13-.78-.29-1.1-.35-.84-.58-1.8-.34-2.74.32-.85,1.56-.68,1.71.17,0,0,.33,2.08.33,2.08.12.66.19,1.44.71,1.77,3.53.58,4.44,5.26.92,6.66,0,0,.24-.47.24-.47.13.75.18,1.52.22,2.18h0Z"/>
                        </g>
                        <g>
                          <path class="cls-2" d="M27.53,56.27c-.12.46-.3.69-.7.94-.33.24-.24.57.06.75.09.05-.08.1-.06.22.03.13.24-.19.26-.08.21.17.56.44.81.16.29-.41.5-.61.99-.66l.26.3c-.15.51-.66.75-1.18.61-.24-.03-.42.05-.66.21-.12.07-.26.12-.4.1-.19.05-.17-.35-.31-.34-.49-.01-.48-.4-.26-.72.17-.22.15-.42.14-.67-.08-.53.27-.98.76-1.1l.27.29h0Z"/>
                          <path class="cls-2" d="M23.42,57.26c.42.05.7.33.71.78.03.2.07.38.29.44.21.07.51.16.27.47-.06.12.34.07.27.21.02.1-.03.21-.08.32-.12.21-.14.36-.09.57.19.57-.59.99-1,.55,0,0,.08-.39.08-.39.16-.12.27-.16.34-.18.4.09.57-.21.24-.48-.08-.06-.16-.12-.19-.18-.11-.03.22-.23.1-.28-.38,0-.24-.22-.2-.44.04-.22-.11-.33-.3-.39-.41-.09-.62-.3-.7-.7l.27-.29h0Z"/>
                          <path class="cls-2" d="M24.64,55.89c.46.09.78.41.82.9.05.22.1.42.34.51.23.09.54.21.31.54-.06.13.35.1.28.25.02.11-.02.24-.07.36-.12.23-.13.42-.09.66.18.63-.67,1.06-1.13.61,0,0,.08-.39.08-.39.19-.12.32-.16.42-.19.06-.04.23.05.39-.1.14-.15.08-.37-.1-.52-.08-.08-.16-.14-.2-.22-.11-.05.21-.26.09-.31-.39-.03-.26-.27-.24-.51.03-.24-.15-.37-.35-.46-.45-.13-.69-.38-.81-.82l.27-.29h0Z"/>
                        </g>
                      </g>
                      <path class="cls-2" d="M26.06,55.49c.16-.22.34-.18.38.11.03.11.06.2.18.09.12-.11.3-.26.18.07-.02.1.21-.21.19-.1.06.09-.12.46.09.38.29-.13.46-.04.31.24l-.32.24c-.29.08-.28,0-.17-.29.03-.11-.05-.12-.19-.03-.06.04-.12.08-.15.08-.07.07.11-.26.03-.2-.35.46.07-.47-.29-.13-.19.23-.24.22-.31-.05l.04-.39h0Z"/>
                    </g>
                    <g>
                      <path class="cls-5" d="M29.8,61.16c-1.18.62-2.36,1.24-3.55,1.86-1.01,1.76-6.13,11.03-2.15,18.9,1.78,3.52,5.76,7.51,8.23,6.61,2.16-.78,2.45-4.99,2.62-7.4.27-3.9-.02-11.04-5.15-19.98Z"/>
                      <path class="cls-4" d="M33.9,72.45c.62,2.58,1.03,5.36.67,8.01-.11.77-.28,1.52-.73,2.16-.63.9-1.43,1.63-2.43,2.11-.45.22-.04.44.28.28,1.75-.83,3.19-2.31,3.54-4.26.5-2.79.05-5.78-.6-8.5-.06-.24-.78-.05-.72.19h0Z"/>
                    </g>
                  </g>
                  <g>
                    <g>
                      <g>
                        <g>
                          <path class="cls-4" d="M61.01,60.14c0-.68,0-1.35-.01-2.03-.25-.06-1.6-.39-2.23-1.62-.72-1.39-.08-3.07.76-3.91.58-.58.85-.36,1.15-.86.41-.69.11-1.43.15-3.58,0-.28.02-.75.33-.95.17-.11.43-.12.61-.02.3.17.33.64.35.94.1,1.98-.08,3.08.28,3.26.24.11.44-.29.89-.2.48.09.48.57.99.76.57.21.92-.27,1.29-.04.46.29.2,1.18.59,1.33.29.11.51-.34.93-.3.5.05,1.03.77,1.02,1.33,0,.45-.09,1.6-.92,2.65-1.45,1.83-3.85,1.66-4.05,1.64-.12.61-.24,1.23-.36,1.84-.59-.08-1.17-.16-1.76-.24Z"/>
                          <path class="cls-2" d="M60.81,60.32c-.1-.67-.21-1.43-.24-2.2l.33.41c-3.78-.66-3.85-5.47-.48-6.79.45-.44.34-1.22.33-1.9l-.11-2.13c-.04-.86,1.16-1.3,1.65-.52.43.88.4,1.88.23,2.78-.08.35-.19,1-.05,1.16.12-.26.84-.56,1.23-.31.53.25.46.72.98.72.4-.1,1.05-.2,1.32.31.25.48.13.87.2,1.1.04.08,0,.11.13.08.13-.05.3-.16.5-.22.46-.1.79.22,1.01.49.82,1.21.17,3.01-.64,4.11-.96,1.23-2.58,1.75-4.11,1.62,0,0,.53-.4.53-.4-.15.74-.36,1.49-.53,2.23-.77-.12-1.61-.34-2.27-.55h0ZM61.21,59.97c.61-.01,1.12-.04,1.62,0,0,0-.47.34-.47.34.09-.62.17-1.24.29-1.85l.08-.41c1.39.11,2.87-.18,3.97-1.1.87-.76,1.81-2.43,1-3.51-.4-.5-.76-.46-1.19-.06-.22.17-.63.04-.73-.22-.2-.41-.17-1-.45-.91-.56.33-1.45.26-1.86-.3-.11-.1-.22-.33-.39-.37-.11-.03-.2.06-.58.1-.73-.11-.53-1.17-.74-1.68-.23-.81-.04-1.64-.15-2.4-.02-.07-.02-.1-.11-.14-.18-.06-.36.02-.45.35-.16.63-.15,1.37-.11,2.05,0,.68.23,1.43-.23,2.15-.23.33-.6.38-.84.66-.63.66-.95,1.69-.93,2.56-.02,1.33,1.18,2.31,2.49,2.6,0,.72-.11,1.36-.22,2.17h0Z"/>
                        </g>
                        <g>
                          <path class="cls-2" d="M61.42,53.42c.51.02.94.39.98.93.05.25.07.45.28.64.09.1.21.22.23.39.05.23-.16.31-.33.38-.14.02-.04.41-.24.4-.38.11-.76-.25-1.11-.08-.48.25-1.04.11-1.29-.36l.2-.34c.49-.05.75.11,1.12.45.19.12.43.07.58-.12.08-.08.13-.18.19-.21,0-.11.28.16.28.03,0-.12-.18-.14-.1-.21.26-.24.27-.59-.1-.76-.45-.17-.68-.36-.89-.79l.21-.34h0Z"/>
                          <path class="cls-2" d="M65.81,54.12c0,.42-.15.67-.54.84-.17.1-.3.24-.21.45.08.21.26.39-.11.48-.11.07.26.2.15.25-.02.07-.09.14-.15.22-.27.33-.05.6.34.43.07,0,.19.02.37.11l.16.36c-.31.52-1.16.27-1.1-.34,0-.22-.04-.37-.21-.55-.07-.09-.14-.2-.14-.3-.1-.12.3-.16.22-.26-.3-.25-.03-.41.17-.52.21-.11.21-.29.2-.5-.08-.44.13-.78.54-.92l.32.23h0Z"/>
                          <path class="cls-2" d="M64.31,53.02c-.03.46-.22.76-.63.98-.18.12-.32.29-.25.53.07.24.25.45-.13.56-.11.08.25.22.15.29-.1.23-.45.6-.14.8.19.12.33-.01.41.02.1,0,.24.02.46.1l.16.36c-.36.54-1.28.3-1.24-.37,0-.25-.06-.42-.22-.63-.07-.11-.14-.22-.14-.34-.1-.13.31-.19.23-.3-.3-.28-.01-.46.19-.6.22-.14.23-.34.23-.58-.06-.49.19-.88.63-1.06l.32.23h0Z"/>
                        </g>
                      </g>
                      <path class="cls-2" d="M62.63,53.06c-.02.28-.07.31-.3.12-.1-.07-.19-.08-.15.07.04.15.16.34-.11.12-.09-.05.16.24.07.19-.07,0-.43-.19-.34.03.17.26.19.34-.1.32l-.36-.17c-.2-.24-.05-.37.26-.3.22.03-.03-.29.01-.39-.04-.1.25.15.2.06-.18-.3.03-.19.17-.11.14.09.15,0,.16-.12-.02-.29.16-.37.36-.19l.12.38h0Z"/>
                    </g>
                    <g>
                      <path class="cls-5" d="M59.97,59.08c1.3.37,2.6.74,3.9,1.11,1.37,1.54,8.37,9.65,6.08,18.27-1.03,3.86-4.13,8.64-6.78,8.27-2.3-.32-3.47-4.43-4.14-6.78-1.08-3.81-2.29-10.95.93-20.87Z"/>
                      <path class="cls-4" d="M58.29,70.81c-.08,2.76.1,5.69,1.08,8.29.72,1.89,2.33,3.12,4.28,3.59.17.04.8-.23.6-.28-1.16-.28-2.16-.85-3.03-1.66-.61-.57-.94-1.31-1.21-2.08-.9-2.55-1.07-5.37-1-8.06,0-.11-.72-.01-.72.19h0Z"/>
                    </g>
                  </g>
                </g>
              </g>
              <g>
                <path class="cls-2" d="M33.5,67.52c.8,2.99,2.3,5.7,3.87,8.34,1.66,2.8,3.39,5.56,5.18,8.27,3.07,4.65,6.44,9.37,11.44,12.1.65.35,1.49.27,2.08-.18.43-.33.81-1.13.16-1.49-4.84-2.64-8.05-7.2-11.02-11.71-1.7-2.58-3.35-5.21-4.93-7.86s-3.07-5.28-3.87-8.26c-.36-1.33-3.26-.56-2.9.78h0Z"/>
                <path class="cls-2" d="M63.53,92.69c-1.32.18-2.65-.03-3.98-.02-1.33,0-2.75.28-3.69,1.22-.81.81-1.13,1.97-1.37,3.09-.6,2.83-.83,5.74-.69,8.64.03.56.08,1.16.41,1.62.26.36.67.59,1.07.79,1.86.9,3.97,1.31,6.04,1.15.78-.06,1.6-.21,2.2-.72.93-.78,1.07-2.15,1.13-3.36.1-1.94.21-3.87.31-5.81.09-1.76.19-3.54-.21-5.25-.16-.7-.7-1.53-1.37-1.29"/>
                <path class="cls-2" d="M65.83,85.62c.94,1.31.88,2.95.23,4.33-.37.77-.74,1.26-1.38,1.86.13-.13-.01.01-.08.06-.08.06-.16.13-.24.19-.21.15-.32.22-.43.28-.18.09-.37.16-.55.25s.27-.08,0,0c-.1.03-.19.06-.29.09-.53.15-1.38.63-1.2,1.32s1.18.69,1.7.54c2.22-.63,4.12-2.12,5.16-4.2.97-1.92,1.02-4.16-.26-5.95-.71-1-3.49.08-2.66,1.24h0Z"/>
              </g>
              <g>
                <path class="cls-4" d="M40.39,67.68c-.14-1.42-.28-2.85-.42-4.27,1.65.28,3.84.45,6.38.11,1.22-.16,2.31-.42,3.25-.7.67-.24,1.35-.48,2.02-.71-.01,1.15-.03,2.3-.04,3.45-.48.33-1.14.74-1.95,1.13-1.76.84-3.26,1.12-3.83,1.21-2.26.36-4.17.08-5.41-.22Z"/>
                <path class="cls-2" d="M40.34,67.73c-.21-1.47-.37-3-.52-4.49,1.03.18,2.07.31,3.11.37,1.97.14,3.97-.09,5.85-.68,0,0,.71-.21.71-.21.69-.27,1.43-.4,2.12-.67,0,0,.09-.04.09-.04.1,1.18.03,2.36-.03,3.55,0,0,0,.04,0,.04l-.03.02c-.83.53-1.71.97-2.6,1.37-2.7,1.24-5.82,1.62-8.69.74h0ZM40.45,67.64c3.76.69,7.97.24,11.09-2.14,0,0-.04.07-.04.07-.02-.86-.05-1.72-.02-2.59.02-.29.06-.57.07-.86l.09.07c-.94.31-1.82.81-2.81.98-.97.21-1.96.33-2.94.44-1.97.21-3.98.28-5.94-.06,0,0,.16-.15.16-.15.14,1.42.25,2.8.33,4.24h0Z"/>
              </g>
            </g>
          </g>
          <path class="cls-2" d="M41.58,20.51c1.82.64,3.37,1.97,4.27,3.68.13.26.92-.01.81-.22-.94-1.78-2.53-3.17-4.43-3.84-.18-.06-.41-.01-.57.08-.09.05-.26.22-.08.29h0Z"/>
          <path class="cls-2" d="M49.41,20.93l-1.18,2.78c-.16.38.65.31.76.04.39-.93.78-1.85,1.18-2.78.16-.38-.65-.31-.76-.04h0Z"/>
          <path class="cls-4" d="M48.07,28.57c.32.08.51.58.64.84.19.37.35.75.5,1.13.27.74.46,1.51.56,2.29.03.2.43.1.4-.11-.12-.89-.34-1.75-.68-2.58-.16-.4-.34-.78-.55-1.16-.18-.33-.36-.64-.75-.73-.21-.05-.4.25-.14.31h0Z"/>
        </g>
      </g>
    </g>
  </g>
</svg>