<?xml version="1.0" encoding="UTF-8"?>
<svg id="Layer_2" data-name="Layer 2" xmlns="http://www.w3.org/2000/svg" viewBox="0 0 35.1 26.51">
  <defs>
    <style>
      .cls-1 {
        fill: #008ed5;
        stroke-width: 0px;
      }
    </style>
  </defs>
  <g id="_レイヤー_1" data-name="レイヤー 1">
    <path class="cls-1" d="M1.14,2.82c5.85,4.6,11.68,9.22,17.5,13.86,1.03.82,3.54-.65,2.23-1.69C15.06,10.34,9.22,5.72,3.37,1.12,2.34.31-.18,1.78,1.14,2.82h0Z"/>
    <path class="cls-1" d="M.34,23.03c3,1.49,6.16,2.65,9.42,3.42.7.16,1.55,0,2.05-.55.42-.45.31-1.12-.34-1.27-3.07-.72-6.05-1.78-8.87-3.18-.65-.32-1.48-.21-2.07.21-.41.29-.84,1.05-.19,1.37H.34Z"/>
    <path class="cls-1" d="M31.33.92c-.33,4.05-.06,8.11.86,12.07.19.8,3.09.08,2.9-.78-.89-3.84-1.2-7.8-.88-11.73.05-.58-.82-.5-1.2-.44s-1.63.34-1.67.88h0Z"/>
  </g>
</svg>