<?xml version="1.0" encoding="UTF-8"?>
<svg id="Layer_2" data-name="Layer 2" xmlns="http://www.w3.org/2000/svg" viewBox="0 0 22.51 32.27">
  <defs>
    <style>
      .cls-1 {
        fill: #000;
        stroke-width: 0px;
      }

      .cls-2 {
        fill: #fff;
        stroke: #000;
        stroke-miterlimit: 10;
        stroke-width: .25px;
      }
    </style>
  </defs>
  <g id="_レイヤー_1" data-name="レイヤー 1">
    <g>
      <path class="cls-2" d="M19.51,1.49c-4.9,7.37-8.57,15.38-11.97,23.51-.46-2.05-.93-4.1-1.39-6.15-.13-.59-2.8.94-2.98,1.35-.84,1.91-1.23,3.8-1.28,5.87,0,.1,1.54-.22,2.41-.77.37,1.65.75,3.31,1.12,4.96.13.58,2.8-.92,2.98-1.35,3.29-8.07,6.63-16.15,11-23.69,0,8.96,0,17.92,0,26.89,0,.16,2.98-.54,2.98-1.48,0-10.11,0-20.23,0-30.34,0-.45-2.66.87-2.88,1.19Z"/>
      <path class="cls-1" d="M17.62,1.28c-4.9,7.37-8.57,15.38-11.97,23.51-.46-2.05-.93-4.1-1.39-6.15-.13-.59-2.8.94-2.98,1.35C.44,21.9.05,23.79,0,25.87c0,.1,1.54-.22,2.41-.77.37,1.65.75,3.31,1.12,4.96.13.58,2.8-.92,2.98-1.35,3.29-8.07,6.63-16.15,11-23.69v26.89c0,.16,2.98-.54,2.98-1.48,0-10.11,0-20.23,0-30.34,0-.45-2.66.87-2.88,1.19Z"/>
    </g>
  </g>
</svg>