<?xml version="1.0" encoding="UTF-8"?>
<svg id="Layer_2" data-name="Layer 2" xmlns="http://www.w3.org/2000/svg" viewBox="0 0 146.63 32.27">
  <defs>
    <style>
      .cls-1 {
        fill: #000;
      }

      .cls-1, .cls-2 {
        stroke-width: 0px;
      }

      .cls-3 {
        fill: #fff;
        stroke: #000;
        stroke-miterlimit: 10;
        stroke-width: .25px;
      }

      .cls-2 {
        fill: #231815;
      }
    </style>
  </defs>
  <g id="_レイヤー_1" data-name="レイヤー 1">
    <g>
      <path class="cls-2" d="M37.39,30.97c-.12-.81-.37-1.68-1-3.45l-2.14-6.19c-.02-.12-.72-2.28-.79-2.47q-.26-.84-.37-1.16c.14,1.47.23,3.38.23,4.61v5.05c0,1.61.05,2.63.19,3.61h-4.59c.14-1.05.19-2.03.19-3.61v-12.13c0-1.4-.07-2.63-.19-3.63h6.15c.16,1,.35,1.75.88,3.28l3.49,10.04,3.47-10.04c.54-1.56.72-2.31.86-3.28h6.17c-.14,1.12-.19,2.07-.19,3.63v12.13c0,1.77.05,2.68.19,3.61h-4.59c.14-1.07.19-1.96.19-3.61v-5.08c0-.56.07-2.31.12-3.03q.07-1.23.09-1.58c-.51,1.82-.75,2.65-1.05,3.49l-2.26,6.38c-.58,1.65-.89,2.68-1,3.42h-4.05Z"/>
      <path class="cls-2" d="M60.77,11.59c-.14.95-.19,1.75-.19,3.45v12.48c0,1.61.05,2.47.19,3.45h-5.12c.14-.91.19-1.89.19-3.45v-12.48c0-1.75-.05-2.42-.19-3.45h5.12Z"/>
      <path class="cls-2" d="M70.25,24.66c.09.84.26,1.26.61,1.72.56.7,1.54,1.09,2.72,1.09,1.79,0,2.86-.79,2.86-2.1,0-.72-.37-1.35-.98-1.63-.49-.23-1.07-.4-3.49-.95-2.14-.47-2.89-.75-3.75-1.35-1.47-1.02-2.26-2.58-2.26-4.47,0-3.59,2.89-5.84,7.47-5.84,2.96,0,5.22.91,6.47,2.65.58.77.86,1.47,1.16,2.79l-4.94.54c-.28-1.51-1.12-2.14-2.89-2.14-1.42,0-2.47.77-2.47,1.84,0,.65.35,1.14,1.09,1.49q.47.21,3.21.77c1.77.37,2.89.77,3.77,1.33,1.68,1.05,2.51,2.61,2.51,4.75,0,1.75-.56,3.24-1.63,4.28-1.35,1.3-3.4,1.98-6.12,1.98-1.98,0-3.94-.42-5.19-1.14-1.16-.65-2.03-1.65-2.51-2.98-.23-.56-.35-1.09-.51-2.17l4.84-.47Z"/>
      <path class="cls-2" d="M103.92,11.59c-.14,1-.19,1.84-.19,3.52v8.01c0,5.31-3.19,8.31-8.8,8.31-2.89,0-5.24-.81-6.64-2.28-1.35-1.44-2.05-3.47-2.05-6.08v-7.96c0-1.61-.05-2.63-.19-3.52h5.03c-.14.86-.19,1.79-.19,3.52v8.01c0,2.93,1.33,4.33,4.05,4.33s4.12-1.4,4.12-4.33v-8.01c0-1.75-.05-2.47-.19-3.52h5.03Z"/>
      <path class="cls-2" d="M124.39,31.13c-.98-.12-1.91-.16-3.61-.16h-9.01c-1.54,0-2.4.02-3.47.07v-4.03c.56-.56,1.14-1.16,2.12-2.38l6.8-8.15c.16-.19.23-.28.72-.84-.42.02-.91.02-1.16.02h-4.19c-1.54,0-2.68.05-3.56.16v-4.4c1.26.12,2.19.16,3.56.16h7.89c1.3,0,1.96-.02,3.49-.07v3.89c-.56.56-1.3,1.4-2.28,2.61l-6.61,7.99c-.19.23-.37.44-.79.91.21-.02.61-.02,1.19-.02h5.31c1.42,0,2.4-.05,3.61-.16v4.4Z"/>
      <path class="cls-2" d="M146.63,11.59c-.14,1-.19,1.84-.19,3.52v8.01c0,5.31-3.19,8.31-8.8,8.31-2.89,0-5.24-.81-6.64-2.28-1.35-1.44-2.05-3.47-2.05-6.08v-7.96c0-1.61-.05-2.63-.19-3.52h5.03c-.14.86-.19,1.79-.19,3.52v8.01c0,2.93,1.33,4.33,4.05,4.33s4.12-1.4,4.12-4.33v-8.01c0-1.75-.05-2.47-.19-3.52h5.03Z"/>
    </g>
    <g>
      <path class="cls-3" d="M19.51,1.49c-4.9,7.37-8.57,15.38-11.97,23.51-.46-2.05-.93-4.1-1.39-6.15-.13-.59-2.8.94-2.98,1.35-.84,1.91-1.23,3.8-1.28,5.87,0,.1,1.54-.22,2.41-.77.37,1.65.75,3.31,1.12,4.96.13.58,2.8-.92,2.98-1.35,3.29-8.07,6.63-16.15,11-23.69,0,8.96,0,17.92,0,26.89,0,.16,2.98-.54,2.98-1.48,0-10.11,0-20.23,0-30.34,0-.45-2.66.87-2.88,1.19Z"/>
      <path class="cls-1" d="M17.62,1.28c-4.9,7.37-8.57,15.38-11.97,23.51-.46-2.05-.93-4.1-1.39-6.15-.13-.59-2.8.94-2.98,1.35C.44,21.9.05,23.79,0,25.87c0,.1,1.54-.22,2.41-.77.37,1.65.75,3.31,1.12,4.96.13.58,2.8-.92,2.98-1.35,3.29-8.07,6.63-16.15,11-23.69v26.89c0,.16,2.98-.54,2.98-1.48,0-10.11,0-20.23,0-30.34,0-.45-2.66.87-2.88,1.19Z"/>
    </g>
  </g>
</svg>