<?xml version="1.0" encoding="UTF-8"?>
<svg id="Layer_2" data-name="Layer 2" xmlns="http://www.w3.org/2000/svg" version="1.1" viewBox="0 0 794.8 874.9">
  <defs>
    <style>
      .cls-1 {
        font-size: 19.9px;
        letter-spacing: 0em;
      }

      .cls-1, .cls-2, .cls-3, .cls-4, .cls-5, .cls-6 {
        isolation: isolate;
      }

      .cls-1, .cls-3, .cls-4 {
        font-family: HiraKakuPro-W6-90ms-RKSJ-H, 'Hiragino Kaku Gothic Pro';
      }

      .cls-1, .cls-3, .cls-4, .cls-7, .cls-5, .cls-6 {
        fill: #231815;
      }

      .cls-3 {
        letter-spacing: 0em;
      }

      .cls-3, .cls-4 {
        font-size: 8px;
      }

      .cls-8 {
        fill: #e2e0e0;
      }

      .cls-8, .cls-7, .cls-9, .cls-10, .cls-11, .cls-12 {
        stroke-width: 0px;
      }

      .cls-4 {
        letter-spacing: 0em;
      }

      .cls-5 {
        letter-spacing: 0em;
      }

      .cls-5, .cls-6 {
        font-family: MarkerFelt-Wide, 'Marker Felt';
        font-size: 13.4px;
      }

      .cls-13 {
        fill: none;
        stroke: #008ed5;
        stroke-miterlimit: 10;
      }

      .cls-6 {
        letter-spacing: 0em;
      }

      .cls-9 {
        fill: #fff;
      }

      .cls-10 {
        fill: #e8440a;
      }

      .cls-11 {
        fill: #1485c7;
      }

      .cls-12 {
        fill: #008ed5;
      }
    </style>
  </defs>
  <rect class="cls-8" width="794.8" height="874.9"/>
  <g>
    <g>
      <rect class="cls-9" x="34.3" y="626.5" width="394.3" height="162.5"/>
      <path class="cls-9" d="M431.2,791.6c-65.4,2.9-131.6,4.2-197.3,3.4-66.8-1.1-133-6.6-199.7-4.2h-1.8c0,0,0-1.9,0-1.9-1.3-33.8-4.5-67.7-5-101.5,0-6.8-.2-13.5,0-20.3.6-13.5,2.9-27.1,3.4-40.6v-3.5c5.3.2,10.5.4,15.7.3,12.4-.1,24.7-2.6,37-3.5,8.2-.6,16.4-.2,24.6-.1,41.1.7,82.1,4.3,123.2,5.2,32.9.8,65.7.2,98.6-1.5,35.1-1.7,70.3-3.8,105.4-3.9v7c.7,54.7-1,110.6-4.2,165.1h0ZM426,786.4c-3-53.3-5-106.6-4.3-159.8l6.9,6.9c-65.7-.9-131.4-7.4-197.2-5.3-49.3.9-98.6,6.4-147.9,5.1-8.2-.5-16.4-1.9-24.7-2.7-8.2-.8-16.4-.9-24.7-.6l3.4-3.4c.5,13.5,2.8,27.1,3.4,40.6.3,6.8.2,13.5,0,20.3-.3,13.1-.8,27.5-1.6,40.6-1.1,20.3-2.7,40.6-3.4,60.9l-1.9-1.9c32.6,1.2,65.5.5,98.1-.7,98.2-5.3,195.3-4.4,293.6,0h0Z"/>
    </g>
    <g>
      <rect class="cls-9" x="242" y="470" width="486.1" height="165.5"/>
      <path class="cls-9" d="M730.8,638.1c-85.9,3.1-172.6,4.6-258.8,2.8-56.3-1.5-112.8-4.4-169.1-4.2-21.2,0-42.4.6-63.6,1.7l-.2-3c-1.7-32.2-4-71.4-4.1-103.4-.5-21.9,3.2-43.7,3.7-65.5,6.2.2,12.3.4,18.5.3,15.2-.2,30.4-3,45.6-3.6,60.8-.8,121.5,4.9,182.3,5.4,83.4,1.4,166.7-6.4,250.1-5.7.4,58.3-1.4,117.1-4.4,175.1h0ZM725.5,632.9c-2.7-54.5-4.7-108.4-4.4-162.8l7.1,7.1c-40.5,0-81-1.4-121.5-3.2-40.5-1.9-81-3-121.5-2.4-55.7.5-111.4,5.2-167.1,5.5-15.3.5-30.4-1.2-45.6-2.8-10.1-1-20.2-1.1-30.4-.7l3.4-3.4c.5,13.8,2.2,27.6,3.1,41.4.6,10,.6,21,.4,31-.4,27.9-2.5,65-4,93.1l-2.9-2.8c40.3,2.1,80.9,1.8,121.1.8,39.9-1,79.7-3,119.5-3.8,81-1.2,161.6.3,242.8,3.2h0Z"/>
    </g>
    <g>
      <rect class="cls-9" x="143" y="308.4" width="411.1" height="184.3"/>
      <path class="cls-9" d="M556.7,495.3c-68.2,2.9-137.1,4.1-205.6,3.5-60.9-.7-121.6-5.1-182.3-4.8-7.3,0-18.5.1-25.8.3h-1.5c-.4-15.9-1.1-31.8-2.1-47.7-.8-13.6-1.9-32.7-2.5-46.1-.6-15.4-1.1-30.7-.8-46.1.4-15.4,3-30.7,3.5-46.1v-3.5c.1,0,3.4.1,3.4.1,17.2,1.1,34.3-1.7,51.4-3.2,7.3-.6,18.2-.4,25.7-.3,42.8.6,85.7,4,128.5,5.1,70.8,2.4,141.5-4,212.2-5.1,1.2,64.4-.6,129.7-4,193.8h0ZM551.4,490.1c-3.1-61-5.1-120.9-4.1-181.7l6.8,6.8c-68.5-1.5-137-7.3-205.5-5-38.5,1-77.1,3.9-115.6,4.9-11.9.2-26.7.8-38.5,0-17.1-1.5-34.1-4.3-51.4-3.2l3.4-3.4c.5,15.4,3.1,30.7,3.5,46.1.8,45.9-4.3,92.4-5.3,138.2l-1.6-1.6c7.2.2,18.2.3,25.6.3,59.1.2,118.5-4.1,177.4-4.8,68.5-.6,136.7.8,205.5,3.5h0Z"/>
    </g>
    <g>
      <rect class="cls-9" x="329.8" y="208.5" width="448.4" height="190.6"/>
      <path class="cls-9" d="M780.9,401.8c-74.6,2.9-149.2,4.1-224.3,3.5-75.8-1-151.1-6.5-226.7-4.3h-1.7s0-1.7,0-1.7c-1.3-43.6-5.1-87.4-5.3-131.1-.4-19.9,2.9-39.7,3.6-59.6v-3.5c10.5.4,21,.5,31.4-.5,9.3-.8,18.7-2.1,28-2.7,18.7-.9,37.4.1,56,.5,37.4,1.2,74.7,3.8,112.1,4.5,74.8,2.1,149.5-4.1,224.2-5.2h6.8c0,10.3.3,20.9.2,31.3.1,56-1.6,113.1-4.4,168.8h0ZM775.6,396.5c-2.6-54.9-4.5-110-4.4-164.8,0-7.7,0-15.4.2-23.2l6.9,6.9c-74.7-1.1-149.4-7.4-224.2-5.2-37.4.7-74.7,3.3-112.1,4.5-18.7.4-37.4,1.4-56,.5-14-.9-28-3.3-42-3.4-4.7,0-9.3,0-14,.2l3.4-3.4c.8,19.9,4,39.7,3.6,59.6-.1,43.7-4,87.5-5.3,131.1l-1.7-1.7c18.6.5,37.3.5,55.9.3,55.4-.4,110.7-4,165.8-4.7,74.4-.7,149.3.7,224.1,3.5h0Z"/>
    </g>
    <g>
      <rect class="cls-9" x="13.3" y="14.2" width="394.3" height="219.7"/>
      <path class="cls-9" d="M410.3,236.6c-65.4,2.8-131.5,3.9-197.2,3.7-66.5-.2-133.6-5.1-199.8-5h-1.3v-1.3c.3-36.7-2.1-73.3-4.1-109.9-1.1-27.5-2.9-55-.2-82.4,1-10.3,2-20.6,2.3-31h3.3c8.2.4,16.4.4,24.6-.3,12.3-1,24.6-3.1,37-3.2,45.2-.1,90.4,3.1,135.6,4.8,67.7,2.8,135.3-1.4,202.9-4,2.6,75.9.5,152.9-3.2,228.5h0ZM405,231.3c-3.3-72.9-5.7-144.4-3.4-217.1l6,6c-65.7-2.7-131.4-6.5-197.2-3.8-32.9,1.2-65.7,3.3-98.6,4.2-16.4.3-32.9,1.3-49.3-.1-16.4-1.7-32.8-3.9-49.3-2.9l3.4-3.4c.7,18.3,3.8,36.6,3.6,54.9,0,55-6.3,109.8-5.7,164.8l-1.3-1.3c32.8,0,65.5-1.1,97.9-2.4,97.9-4.6,195.7-2.6,293.8,1.1h0Z"/>
    </g>
  </g>
  <g>
    <path class="cls-12" d="M366.1,267.1l82.4-20.9-80.4,27.6c-4.6,1.4-6.6-5.4-2-6.7h0Z"/>
    <path class="cls-12" d="M31.1,90.3l83.5-16-81.9,22.8c-4.7,1.1-6.3-5.7-1.6-6.8h0Z"/>
    <path class="cls-12" d="M302.8,117.6c-.4.3-.7.6-1.1.8-.6,1.6-2.5,2.4-2.2,4.4,1.6-2.4,3.5-4.4,5.7-6.1,0,0,0-.1,0-.2-.9,0-1.7.4-2.5,1Z"/>
    <path class="cls-12" d="M365.6,126.4c-1.8-.2-1.9-.2-1.7-2,0-.4.6-.7.9-1.1.3-.4.8-.8.9-1.3.2-.6,0-1.2,0-1.8.1-1.3-.3-2.7.8-3.3-.3-.8-.7-1.4-.8-2-.1-2-.1-4.1-.1-6.1,0-1.2-.2-2.3-.9-3.3-1-1.3-1.8-2.7-2.7-4.1-.4-.7-.9-.9-1.7-.8-1.6.2-3.3.4-4.9.6-1,.1-1.3-.1-1.3-1.1,0-9.5-.2-19-.3-28.5,0-3.3,0-6.6-.2-9.9,0-.6-.3-1.4-.7-1.9-2.6-3.7-6.4-5.6-10.8-6.2-5-.7-9.8,0-14,2.8-2,1.4-3.3,3-3.3,5.7,0,4.4-.5,8.8-.8,13.2-.4,6.5-.8,13-1.2,19.6,0,1.3-.2,2.7-.2,4,0,.8-.4,1.2-1.2,1-1-.2-2-.3-3.1-.5-.7,0-1.4-.2-2-.5-.1,0-.2.1-.3.1-.2,0-.4.1-.6.2-.2.9-.4,1.9-.4,2.9,0,1,.2,2,.2,3,0,.9,0,1.7-.2,2.6,0,.8-.2,1.6-.3,2.4,0,.1,0,.3,0,.5,0,.1,0,.3,0,.5,0,1,0,2.2-.3,3.2,0,0,0,0,0,0-.4.9-.6,1.9-1.2,2.7-1.2,1.7-2.7,3.1-4,4.8-.4.5-.5,1.2-.8,1.8.1,0,.2.1.4.2,1.5-1.9,3.1-3.7,4.6-5.6.9-1.1,1.7-1.7,3.1-1.2,1.2.4,2.4.6,3.7.9.9.2,1.2.6,1.1,1.5,0,.5-.1,1,0,1.6,0,.4.2.8.4,1.2.1,0,.3,0,.4,0,0-.4.2-.8.2-1.3.7-10.6,1.4-21.2,2-31.9.2-3.8.4-7.5.7-11.3,0-.6.3-1.3.8-1.6,7.9-6.8,19.4-5.6,26.5.7.5.4.8,1.2.8,1.9.1,4.4,0,8.8.1,13.2,0,5.1.1,10.2.2,15.3,0,.6.2,1.2.4,1.8.2,0,.3,0,.5,0,0-.4.1-.7.1-1,0-1.6,0-3.1,0-4.7,0-.8.3-1.2,1.1-1.2,1.5-.1,3-.3,4.5-.5.6,0,1,0,1,.8,0,4.6,0,9.2,0,13.8,0,.3-.5.7-.9.9-.3.2-.6.2-1,.3,0,.1,0,.2,0,.4.3.1.6.4.8.4,1.3-.4,1.9.5,2.5,1.4.5.7,1,1.4,1.6,2.1.5.6.3,1-.4,1.2-.4.1-.8.1-1.1.3-.2.1-.2.5-.3.7,1.1.4,1,1.6,1.2,2.4.4,1.3,1.4,1.1,2.4,1.2h1.3c0-.1.1-.3.2-.4-.4-.2-.9-.5-1.3-.5h0ZM321.7,113.3c0,1.2-.2,2.5-.3,3.9-2-.4-3.8-.7-5.5-1.2-.3,0-.7-.7-.7-1.1,0-.9.3-1.8.4-2.6,0-.5.1-.9.1-1.4,0-3.4.1-6.7.3-10,0-.2.5-.6.7-.6,1.7.2,3.4.4,5.1.8.2,0,.5.7.5,1.1-.2,3.8-.4,7.5-.6,11.2h0ZM352.7,76c-4.1-3.2-8.5-5.1-13.6-5.3-5.1-.2-9.7,1.2-14,4.6.1-2.7.3-5,.4-7.3.1-2,.4-4.1.4-6.1,0-2,.9-3.3,2.3-4.4,3.2-2.4,6.9-3.2,10.7-3.2,3.6,0,7.2.7,10.1,2.9,1.1.9,2.1,1.9,3.1,2.9.4.4.6,1,.6,1.5,0,4.4.1,8.8.2,13.2,0,.3-.1.6-.2,1.1h0ZM361.6,114.8c.3-3.3,0-6.6,0-10,0-.4,0-.9.2-1.4,1,1.7,2.7,2.9,2.7,5.2,0,3.9,0,7.8,0,11.7,0,.1,0,.3-.2.8-1.7-2-3.2-3.6-3-6.3h0Z"/>
    <path class="cls-12" d="M332,60.2c.5.8-.8,4.5-2.3,6.9,1.1-.3,2-.5,2.6-.7,0-.6-.3-1.1-.1-1.4.6-1.8,1.2-3.5,1.9-5.4-.7.3-1.3.5-2,.7h0ZM339.6,59c2.3,3.2-.6,4.7-2,6.6,2.2-.3,3.6-1.6,4-3.7.3-1.6-.2-2.4-2-2.8h0ZM337.1,59.8c-2,.6-2.9,1.9-2.7,3.7.1,1.3.7,1.9,2,2-1.3-2-.2-3.8.8-5.7h0Z"/>
    <path class="cls-12" d="M367.3,133c.2,1.1.2,2.2,0,3.3,0,0-.2.1-.4.1,0,.2,0,.4,0,.6v.4c.2,0,.4,0,.6,0v2.2c.1.6.1,1.2.1,1.8,0,.4,0,.8,0,1.2.2.3.3.8.3,1.8,0,.9.2,1.8.1,2.7,0,.3-.6.9-.9.9-.1,0-.3,0-.4,0,0,.2,0,.4-.1.6v.4c.3,0,.6,0,.8.1.3,0,.7.6.7.9,0,1.3,0,2.7,0,4.1-.4,0-.9,0-1.3,0,0,.3,0,.6.1.9,1.3,0,1.4.5,1.5,2.6,0,.3,0,.6,0,.9,0,2.4.3,2.8-.7,2.8,0,.4.1.8.2,1.1.5.3.6,1,.7,2.7,0,1.2.1,1.8,0,2.2,0,.4,0,.9.1,1.3,0,.3,0,.6,0,.9.1.4.2,1.1.2,2,0,.4,0,.9,0,1.3h0c0,.8,0,1.6,0,2.3,0,.6,0,1-.3,1.2,0,.4,0,.8,0,1.2h0c.9,0,1.3-.3,1.2-1.3-.1-1.4,0-2.8-.1-4.1-.4-9.5-.8-19-1.2-28.5-.2-4.4-.3-8.7-.5-13.1,0-.8-.4-1.5-.7-2.3-.1,0-.2,0-.4.1-.3,1.2.9,2.9-1.5,3.4.7.5,1.6.8,1.6,1.2h0Z"/>
    <path class="cls-12" d="M307.2,150.4c.2-.1.2-.1.2-.2.4-1.9,1.5-2.7,3.5-2.4,2.4.4,4.8.7,7.2,1,1.2.1,1.7.5,1.6,1.9-.5,6.2-1,12.4-1.5,18.6,0,1-.1,2.1-.2,3.1,0,.9-.5,1.2-1.4,1.1-3.8-.4-7.6-.7-11.6-1.1-.2,2.4-.5,4.8-.8,7.2-.4,4.3-.8,8.6-1.2,12.9,0,.4-.4.9-.5,1.3-.1-.4-.4-.9-.4-1.3.5-5.4,1-10.8,1.5-16.3.6-6.1,1.2-12.1,1.7-18.2.7-7.2,1.4-14.4,2-21.6,0-.2,0-.4,0-.5.2-.3.4-.6.6-.9.1.3.4.7.3,1-.2,2.3-.5,4.6-.7,6.8-.2,2.4-.4,4.9-.6,7.4h0ZM318.7,151.6c-.1-.6.5-1.6-.8-1.8-2.6-.3-5.1-.7-7.7-1.1-1.2-.2-1.7.1-1.8,1.4-.6,6.8-1.3,13.6-2,20.4,0,.8,0,1.2.9,1.3,2.3.1,4.6.4,7,.6,2.6.3,2.6.3,2.8-2.4,0-.2,0-.4,0-.6.5-5.9,1-11.8,1.5-17.7h0Z"/>
    <path class="cls-12" d="M376.2,134.8c.1.4.4.9.4,1.3.1,3.6.1,7.3.3,10.9.5,16.9,1,33.9,1.5,50.8,0,.7-.2,1.3-.4,2-.2-.7-.5-1.3-.5-2-.3-10.4-.6-20.8-.9-31.1-.2-9-.5-18-.7-27,0-1.6,0-3.2,0-4.8.1,0,.3-.1.4-.2h0Z"/>
    <path class="cls-12" d="M297,195.5c2.2-20.8,4.4-41.7,6.6-62.9,1.2,2.7.4,5,.2,7.2-.6,6.4-1.3,12.9-2,19.3-1,9.4-2,18.8-3,28.2-.2,2.4-.5,4.8-.8,7.2,0,.4-.3.7-.4,1-.2,0-.4-.1-.6-.2h0Z"/>
    <path class="cls-12" d="M346.4,117.2v-1.5c0-4.9,0-9.8,0-14.7,0-1.1-.3-1.6-1.4-2-3.5-1.2-7-1.4-10.6-1-1.1.1-2.2.4-3.3.5-.9.1-1.3.5-1.3,1.5,0,4.5-.2,9.1-.4,13.6,0,1.3,0,2.6-.2,3.9,0,.4-.3.7-.5,1-.2-.4-.5-.8-.5-1.2,0-3.1.2-6.3.3-9.5.1-2.9.2-5.8.4-8.7,0-.5.5-1.3.8-1.4,5.5-1.3,10.9-1.8,16.3.4,1,.4,1.3,1,1.3,2.1,0,4.6,0,9.2,0,13.8,0,1-.3,1.9-.5,2.9-.2,0-.4,0-.5,0h0Z"/>
    <path class="cls-12" d="M292.2,134.3c-2.2,18.2-4.5,36.4-6.8,54.7-.2,0-.4,0-.6,0,0-.4-.3-.9-.2-1.3.5-4.5,1.1-8.9,1.7-13.4,1-8.4,2.1-16.8,3.1-25.2.5-3.9.9-7.7,1.4-11.6.1-1.1.5-2.2.8-3.4h.6q0,.1,0,.1Z"/>
    <path class="cls-12" d="M337.5,150.1h5c.9,0,1.4.2,1.4,1.3,0,.9-.3,1.4-1.3,1.3-.7,0-1,.2-1.1.9,0,.4-.6.8-1,.9-2.1,0-4.2.2-6.2,0-1.2-.1-1.9-1.5-3-2.2-1-.6,0-2.3,1.5-2.3h4.7v.2h0ZM342.8,151.6c0-.1,0-.3-.1-.4-.7,0-1.4-.1-2.1-.2-2.5,0-5-.2-7.5-.2-.3,0-.5.4-.8.6,1.2.2,1.9,1,2.5,2,0,0,0,0,.1,0h5.7c-.4-1.9,1-1.8,2.2-1.9h0Z"/>
    <path class="cls-12" d="M337.3,162.4c1.6,0,3.3,0,4.9,0,.7,0,1.5,0,1.4,1,0,.9.1,1.8-1.3,1.7-.3,0-.8.4-.9.7-.2.8-.6,1.1-1.4,1.1-2,0-4,0-5.9-.2-.4,0-.8-.6-1.1-.9-.3-.3-.6-.7-1-.7-1.2-.1-1-.9-1-1.7,0-.8.3-1.3,1.3-1.2,1.7,0,3.4,0,5,0v.2h0ZM342.6,163.8c0-.2,0-.4-.1-.6-3.4,0-6.7,0-10,0-.1,0-.2.5-.4.7,1.2,0,1.9.8,2.3,1.9,0,0,.3.1.5.1,1.5,0,3,0,4.5,0,.3,0,.9-.4.9-.6,0-1,.6-1.3,1.6-1.2.2,0,.5-.2.7-.3h0Z"/>
    <path class="cls-12" d="M337.5,138.4c1.5,0,3,0,4.5,0,.8,0,1,.4,1,1.1s0,1.4-1,1.3c-.6,0-1,.2-1.2.9,0,.3-.6.7-1,.7-1.8,0-3.6,0-5.5,0s-.6,0-.6-.1c-.4-.9-1-1.4-2-1.6-.2,0-.2-1.2-.1-1.8,0-.2.6-.5,1-.5,1.5,0,3.1,0,4.7,0h0s0,0,0,0ZM341.7,139.5h-8.7c.6.6,1.1,1.3,1.7,1.9.1.1.3.2.5.2,1.6,0,3.2,0,4.9,0-.2-1.5.7-1.7,1.7-2h0Z"/>
    <path class="cls-12" d="M319.5,130.6c-.4,0-.8.2-1.1.2-2.9-.4-5.9-.9-8.8-1.3-.3,0-.6-.5-.9-.7l.3-.5c3.5.6,7,1.2,10.5,1.8,0,.2,0,.4,0,.5Z"/>
    <path class="cls-12" d="M290.4,135.2c-.8,1-1.5,1.9-2.3,2.9-1.2,1.5-2.4,3.1-3.6,4.6-.2.2-.6.3-.9.4,0-.3,0-.7.2-1,1.7-2.3,3.5-4.5,5.3-6.7.2-.3.7-.4,1-.6l.3.4h0Z"/>
    <path class="cls-12" d="M339.7,132h-9.5v-.4c3-.6,6.1-.5,9.2-.4,0,0,.2.4.3.8Z"/>
    <path class="cls-12" d="M370.9,121.3c1.8,2.7,3.5,5.2,5.2,7.9-1.8,0-5.5-5.8-5.2-7.9Z"/>
    <path class="cls-12" d="M347.4,127.6c0,1.4,0,2.9,0,4.4,0,1.1-.4,1.4-1.4,1.1-.5-.1-1-.3-1.9-.5.6-.3.9-.6,1.1-.6,1.4.2,1.2-.7,1.3-1.6,0-1,.3-1.9.4-2.9.2,0,.4,0,.5.1h0Z"/>
    <path class="cls-12" d="M296.3,126.4c-.5,2.6-2.4,3.9-3.6,5.9-.4-1.3,1.6-4.6,3.6-5.9Z"/>
    <path class="cls-12" d="M303.6,131.8c.6-1.9,0-3.9,1.8-5.2.4,1.5-.5,4.4-1.8,5.2Z"/>
    <path class="cls-12" d="M322,124.1c-.1,1.6-.2,3-.3,4.4-.6-.3-.9-1.2-.8-2.8,0-.8.4-1.4,1.1-1.6h0Z"/>
    <path class="cls-12" d="M345.7,59.8c3.5,1.8,4.3,3.5,3.2,5.7-1.1,2.3-3.7,3.6-7.6,3.8.8,0,2.3-.3,3.8-1.2,1-.6,3.1-2,3.1-4.1,0-2.4-2.4-3.9-2.5-4h0Z"/>
    <path class="cls-12" d="M344.3,66.2c-1.6-.6-2.4-1.7-2.4-2.9,0-1.2,1.1-2.4,2.7-2.8-1.9,1.9-2.2,3.7-.4,5.7Z"/>
    <path class="cls-12" d="M357.8,210.2c-1.2-31-2.3-62.1-3.5-93.7,1.5,3.8,1.1,7.3,1.2,10.7.4,9.6.8,19.2,1.1,28.8.5,14,1.1,28,1.6,42,.1,3.6.3,7.2.4,10.8,0,.5-.1,1-.2,1.6-.2,0-.4-.1-.5-.2h0Z"/>
    <path class="cls-12" d="M319,208.4c2.3-28.4,4.6-56.8,6.9-85.7-1.6,3.4-1.3,6.7-1.6,9.8-.8,8.8-1.5,17.6-2.2,26.3-1,12.8-2.1,25.6-3.1,38.5-.3,3.3-.5,6.6-.8,9.8,0,.5.1,1,.2,1.5.2,0,.4-.1.6-.1Z"/>
    <circle class="cls-13" cx="212.1" cy="392.8" r="28.5" transform="translate(-199.6 565.2) rotate(-84.3)"/>
    <g class="cls-2">
      <text class="cls-6" transform="translate(126.4 105.9)"><tspan x="0" y="0">April 2015 - March 2018</tspan></text>
    </g>
    <g class="cls-2">
      <text class="cls-4" transform="translate(127.3 125.7)"><tspan x="0" y="0">Nippon Designer Community College, Tokyo, Japan</tspan></text>
    </g>
    <path class="cls-13" d="M107.7,87.8c2.2,4.1,3.5,8.8,3.5,13.8,0,16-13,29-29,29s-29-13-29-29,0-1.2,0-1.8"/>
    <g class="cls-2">
      <text class="cls-1" transform="translate(76.2 109.9)"><tspan x="0" y="0">1</tspan></text>
    </g>
    <path class="cls-12" d="M82.3,130.8c-1.8,31.9.3,80.8,29.2,100.6,7.7,5.1,17,6.5,26,7,13.7.7,27.4-1.8,40-7.1,12.6-5.4,24-13,35.4-20.5,14.8-10.4,30.7-21.4,49.3-22.5,37.7-2.5,50.9,25.5,76.2,26,9.2.1,17.6-3.9,25.5-8.3,7.4-4.1,15.5-8.8,24.4-7.4,10,1.6,17.3,9.6,21.9,18.1l-.5.3c-4.9-8.6-12.8-17-23.2-17.6-8.1-.6-15.2,3.8-22.1,7.5-5.5,3.1-11.2,5.9-17.4,7.3-12.6,3.1-23.6-2-34-8.8-11.4-7.4-23.4-14.8-37.2-16.4-13.6-1.9-27.4,1.4-39.4,7.8-8,4.2-15.8,9-23.3,14.3-7.5,5.3-14.9,10.6-23,14.9-16,8.9-34.4,13.4-52.7,12.5-9.1-.4-18.5-1.8-26.3-6.8-23.6-15.7-28.5-47.4-30.1-73.6-.4-9.1-.2-18.3.6-27.4h.5s0,0,0,0Z"/>
    <g>
      <path class="cls-12" d="M335,339.2c-.5-2.2-2.3-3.3-4.1-4.3-4.4-2.4-9-4.2-13.5-6.4s-9-4.6-13.5-6.8c-2-1-4.2-2.2-6.4-2.2-2.4,0-4.2,1.8-5.5,3.8-2.1,3.4-2.9,7.4-4.4,11-.4.9-.3,1.6.5,2.2,1.3,1.1,3.1,1.9,4.6,2.8,2.8,1.6,5.7,3.2,8.6,4.7,5.9,3.1,11.9,5.9,18,8.4,1.8.7,3.6,1.5,5.4,2.2.9.3,2,1.1,3,.7.5-.2.7-.7.9-1.2.4-.7.8-1.3,1.3-2,2.4-3.6,5.9-8.3,5.1-12.9,0-.2-.8,0-.7.2.7,3.9-1.8,7.9-3.9,11.1-.8,1.2-1.8,2.4-2.5,3.7,0,.1-.1.4-.2.5-.5.6-1,.1-1.5,0-1.5-.6-3-1.2-4.6-1.8-5.8-2.3-11.4-4.9-16.9-7.7-2.7-1.4-5.4-2.8-8-4.3-1.3-.7-2.6-1.5-3.9-2.2s-2.9-1.4-4-2.4c-1-.9-.6-1.6-.2-2.6.3-.7.5-1.5.8-2.2.6-1.9,1.2-3.8,2-5.6,1-2.3,2.8-6,5.8-6,2.2,0,4.4,1.3,6.3,2.2,4,2,8,4.1,12,6.1,4.8,2.3,9.7,4.4,14.4,6.8,1.9,1,4,2.2,4.4,4.4,0,.2.8,0,.7-.2h0Z"/>
      <path class="cls-12" d="M321.5,317.2c-2.7.9-5.3,1.9-8,2.8-.1,0-.4.2-.3.3,1.1,2.5,2.1,5,3.2,7.5,0,.2.3.2.4.1,2.8-1,5.6-2,8.4-3,.1,0,.4-.2.3-.3-1.2-2.4-2.4-4.9-3.6-7.3-.1-.3-.9,0-.7.2,1.2,2.4,2.4,4.9,3.6,7.3l.3-.3c-2.8,1-5.6,2-8.4,3h.4c-1.1-2.4-2.1-4.9-3.2-7.4l-.3.3c2.7-.9,5.3-1.9,8-2.8.4-.1.3-.6-.1-.5h0Z"/>
      <path class="cls-12" d="M309.6,328.7c-.1-.5-.6-.9-1.1-1.1-.6-.3-1.3-.5-1.9-.6-.5-.1-1.1-.3-1.6-.5-.3-.2-.7-.2-1,0-.4.3-.6.9-.8,1.3-.2.5-.5,1.1-.7,1.6s-.6,1.1-.8,1.7c-.1.4,0,.6.4.8.5.4,1,.7,1.5,1,.5.3,1,.6,1.4.8.4.2.9.6,1.3.6.7,0,.9-.8,1.1-1.3.5-1,.9-2,1.4-2.9.2-.3.4-.6.6-.9.1-.2.1-.3.1-.5,0-.3-.8-.1-.7.2,0,.2-.3.6-.5.8-.5.7-.8,1.5-1.2,2.3-.3.5-.5,1.1-.8,1.6,0,0-.1.2,0,.2h0c.2,0,.1,0,0,0,0,0-.2,0-.2-.1-.4-.2-.9-.5-1.3-.7-.4-.2-.8-.5-1.1-.7l-.6-.4c-.2-.1-.5-.3-.6-.5-.2-.3.2-1,.4-1.2.2-.5.4-1,.6-1.4.2-.4.4-.9.6-1.3,0,0,.2-.5.3-.6,0,0,.2,0,.3,0,.4.2.9.3,1.4.4.6.1,1.2.3,1.8.5.4.2,1,.4,1.1.9,0,.3.8.1.7-.2h0Z"/>
      <path class="cls-12" d="M301.1,325.2c-.2-.5-.8-.8-1.3-1-.6-.2-1.3-.3-1.9-.5-.3,0-.5-.3-.8-.3-.4,0-.7.3-.9.7-.5,1-.9,2-1.4,3-.2.5-.5,1-.7,1.5-.2.5.3.6.6.8.8.4,1.7,1,2.6,1.1.5,0,1,0,1.4-.5.5-.6.8-1.4,1.1-2s.7-1.3,1.1-1.9c.1-.3.3-.5.2-.8-.1-.3-.8,0-.7.2,0,.2,0,.3,0,.5-.2.3-.4.7-.6,1-.4.7-.8,1.4-1.1,2.1-.2.3-.4.9-.7,1.1,0,0-.3,0-.4,0-.4,0-.8-.3-1.1-.5s-.7-.4-1.1-.6c-.1,0-.4-.1-.4-.3,0-.2.2-.6.3-.8.4-.9.8-1.7,1.2-2.6.2-.4.4-.8.5-1.2,0,0,0-.3.1-.3,0,0,0,0,0,0,.1,0,.2.1.3.1.5.2,1.1.3,1.7.5.5.1,1.2.4,1.4.9.1.3.8,0,.7-.2h0Z"/>
      <path class="cls-12" d="M292.9,341.5c.2.3.7.3,1,.1.3-.1.5-.5.7-.8.2-.3.4-.6.4-.9,0-.3-.2-.6-.5-.7-.6-.3-1.5-.2-2.1.1-.5.3-.9,1-.6,1.6.1.3.4.6.8.8.4.2.9.1,1.2-.2.1-.1,0-.3,0-.3-.2,0-.4,0-.5.1,0,0,0,0,0,0s0,0,0,0c0,0,0,0,0,0,0,0-.1,0-.2-.1-.2-.1-.3-.3-.4-.5-.2-.4,0-.8.2-1.1.1-.1.3-.2.4-.2,0,0,0,0,0,0h.2c.1,0,.2,0,.3,0,.2,0,.4.1.5.3s0,.4,0,.5c-.1.2-.3.5-.4.7,0,0,0,0,0,.1s0,0,0,0c0,0,0,0,0,0,0,0,0,0,0,0s0,0,0,0c0,0,0,0,0,0-.2-.2-.9,0-.7.3h0Z"/>
      <path class="cls-12" d="M300.1,346.1c.2.2.5.2.8.2.3,0,.6-.2.9-.4.4-.3.9-.8.7-1.3-.1-.2-.3-.4-.5-.5-.3-.2-.6-.3-.9-.3-.7,0-1.2.4-1.5,1,0,.1-.1.3-.1.5s.1.3.2.4c.2.3.4.5.7.7s.3,0,.5,0c0,0,.3-.2.2-.2-.2-.1-.3-.3-.5-.4-.1-.1-.3-.4-.3-.6s.1-.4.2-.6c0,0,.1-.2.2-.2,0,0,0,0,0,0,0,0,0,0,0,0,0,0,0,0,0,0,0,0,0,0,0,0s0,0,0,0h.1c.1,0,.2,0,.3.1.2,0,.4.2.5.3s.2.3.2.5c0,.2-.1.4-.3.5s-.3.3-.5.4c0,0,0,0,0,0,0,0,0,0,0,0,0,0,0,0,0,0h0c0,0-.2,0-.2-.1-.1-.1-.8.1-.7.3h0Z"/>
      <path class="cls-12" d="M309.5,350.7c.2.3.6.3.9.2s.6-.3.8-.6c.3-.5.4-1.3,0-1.7-1-1-2.7-.3-3,.9-.1.4,0,.7.2,1,.3.3.6.5,1,.6.2,0,.4,0,.5-.1s0-.3,0-.3c-.4-.1-.9-.4-1-.9,0-.4.3-.8.6-1,0,0,0,0,0,0,0,0,0,0,0,0s0,0,0,0c0,0,0,0,0,0,0,0,.1,0,.1,0,0,0,0,0,0,0h.1c0,0,0,0,0,0h0q0,0,.1,0c.1,0,.2,0,.3.1.4.2.5.6.5,1,0,.2-.1.5-.3.6,0,0,0,0,0,0,0,0,0,0,0,0,0,0,0,0,0,0,0,0,0,0,0,0,0,0,0,0,0,0,0,0,0,0,0,0,0,0,0,0,0,0-.1-.1-.3-.1-.5,0-.1,0-.3.2-.2.4h0Z"/>
      <path class="cls-12" d="M318.9,354.6c.3.2.7,0,1,0s.5-.3.8-.5c.2-.2.4-.4.3-.7s-.2-.5-.5-.6c-.5-.4-1.2-.5-1.8-.3-.3.1-.6.3-.8.6-.2.2-.4.5-.4.7,0,.7.8,1,1.4,1.1.2,0,.4,0,.5-.1s.2-.1,0-.2c-.4,0-.9-.3-1.1-.6-.3-.4,0-.9.3-1.2,0,0,.1-.1.2-.2h0s-.1,0-.1,0c0,0,0,0,0,0h.1c.2,0,.4,0,.6.2.3.2.8.5.7.9,0,.2-.2.4-.4.6,0,0-.2.1-.3.2,0,0,0,0,0,0h.1s0,0,0,0c0,0-.1,0-.1,0-.1,0-.4,0-.5,0,0,0-.3.1-.2.2h0Z"/>
      <path class="cls-12" d="M317.3,333.2c-.1-.7-.7-1.1-1.3-1.4-.7-.4-1.4-.6-2.1-.8-.6-.2-1.2-.7-1.9-.4-.5.2-.6.8-.9,1.3-.3.6-.6,1.3-.9,1.9-.3.6-.6,1.2-.8,1.8-.2.5.5.7.9.9.5.3,1,.4,1.6.7.4.2.7.4,1,.6.5.4.9.5,1.5.3.4-.1.6-.3.8-.7.5-.8.8-1.7,1.3-2.5.2-.4.5-.8.7-1.3,0-.2.1-.3.1-.5,0-.1-.8,0-.7.2,0,.4-.3.8-.5,1.1-.4.8-.8,1.6-1.2,2.4-.2.4-.3.8-.6,1.1,0,0,0,0,0,0,0,0,.1,0,0,0s-.2,0-.3-.1c-.1,0-.2-.1-.3-.2-.2-.2-.5-.3-.7-.5-.5-.2-.9-.4-1.4-.6-.4-.2-.8-.4-1.2-.7-.3-.2-.3-.4-.1-.7.1-.3.2-.5.4-.8.5-1.1,1-2.1,1.5-3.2,0,0,0-.2.1-.3h0c0-.2,0-.2,0-.1,0,0,.2.1.3.1.2.1.5.2.8.3.7.2,1.4.5,2,.8.6.3,1.2.7,1.3,1.4,0,.1.8,0,.7-.2h0Z"/>
      <path class="cls-12" d="M332.7,339.9c-.1-.5-.6-.8-1.1-1-.6-.3-1.3-.4-1.9-.6-.6-.1-1.1-.3-1.6-.5-.3-.1-.7-.1-1,0-.4.2-.5.8-.7,1.2-.5,1.1-1.1,2.2-1.5,3.4-.2.4,0,.6.4.8.5.3.9.7,1.4,1s1,.6,1.4.8c.4.2.9.6,1.3.5.7,0,.9-.8,1.1-1.3.5-1,.9-2,1.4-2.9.2-.3.4-.6.6-.9.1-.2.2-.3.1-.5,0-.2-.8,0-.7.2,0,.3-.4.7-.5.9-.4.7-.8,1.5-1.2,2.3-.2.5-.5,1-.7,1.6,0,0,0,.2-.1.2h0c.1,0,.1,0,0-.1,0,0-.2-.1-.2-.1-.5-.2-.9-.5-1.3-.7-.4-.2-.7-.4-1.1-.7l-.6-.4c-.2-.1-.5-.3-.7-.5s0-.4.1-.6c.1-.2.2-.5.3-.7.2-.5.4-.9.6-1.4s.4-.9.6-1.4c0-.1.1-.2.2-.4,0,0,.1-.2.2-.3,0,.2-.2,0,0,0,0,0,.1,0,.2,0,.4.2.9.3,1.3.4.6.2,1.3.3,1.9.6.4.2,1,.4,1.1,1,0,.2.8,0,.7-.2h0Z"/>
      <path class="cls-12" d="M324.2,336.4c-.2-.5-.8-.8-1.3-1-.6-.2-1.3-.3-1.9-.5-.3-.1-.5-.3-.8-.2-.4,0-.7.2-.9.5-.5,1-.9,2-1.4,3-.2.5-.5,1-.7,1.5-.2.5.3.6.6.8.8.4,1.6,1,2.5,1,.5,0,1.1-.1,1.4-.5.2-.2.3-.5.5-.7.2-.4.4-.8.6-1.3.4-.7.7-1.3,1.1-2,.1-.2.3-.5.2-.8,0-.2-.8,0-.7.2,0,.2,0,.3,0,.5-.2.4-.4.7-.6,1-.4.7-.8,1.4-1.1,2.1-.1.2-.2.5-.4.7,0,0-.1.2-.2.2,0,0-.2,0,0,0-.6,0-1.3-.4-1.9-.7-.4-.2-.8-.3-1.1-.5-.3-.2-.2-.4,0-.6.1-.2.2-.5.3-.7.4-.9.8-1.7,1.2-2.6.2-.4.3-.8.5-1.1h0c.1-.2,0-.2-.2,0,0,0,.1,0,.1,0,.1,0,.2.1.3.1.6.2,1.2.3,1.7.5.5.2,1.2.4,1.4.9,0,.2.8,0,.7-.2h0Z"/>
      <path class="cls-12" d="M331.3,349.2c-13.8-6.7-27.5-13.4-41.3-20.1-.3-.1-.8.3-.4.5,13.8,6.7,27.5,13.4,41.3,20.1.3.1.8-.3.4-.5h0Z"/>
      <path class="cls-12" d="M329.7,351.3c-13.5-6.6-27-13.2-40.5-19.8-.3-.1-.8.3-.4.5,13.5,6.6,27,13.2,40.5,19.8.3.1.8-.3.4-.5h0Z"/>
    </g>
    <g>
      <path class="cls-7" d="M43.5,83.2c0,.6.1,1.3.1,2s0,1.2-.1,1.4c0,0,0,0-.2-.1-.1-.1-.2-.2-.2-.2,0,0,0,0,0,0-.1.2-.2.4-.3.7,0,0-.2.4-.3.8-.3,1.2,0,4.8-.8,5.3-.7.4-2.8-1.2-4.6-3.6-4.5-5.8-4.5-13-4.4-22.3,0,0,.2-12.7,5.1-22,.4-.8,1.3-2.1,1.6-2,.2,0,0,.6.4,1.3,0,.1.5,1,1.1,1.1.4,0,.8-.3,1.5-1.2.7-.8,1.1-1.1,1.1-1,.2.4.2,1.4.3,3.1,0,1.7,0,2.9,0,3.6,0,.3-.3.9-.6,1.6-.3.8-.6,1.1-.7,1.1,0,0,0,0-.1,0-.4-.2-1.2.5-1.4.6-.6.5-1.2,1-2,1.7-.8,1-2.2,3.1-2.8,6.1-.5,2.6-.1,4.8.2,6,.8-.7,1.6-1.5,2.4-2.5.3-.3.6-.7.8-1,.2,0,.4.8.9,2.5.5,1.7.8,2.9.8,3.6,0,.4,0,.9-.2,1.4-.1.6-.2.9-.4,1.1-.2,0-.4,0-.5.1-2.5.9-3,4.9-3.1,5.7-.2.6-.4,1.6-.1,2.9.4,1.9,1.6,3.1,2,3.4.3-2.1.7-3.7,1-4.9.2-.8.5-1.4.8-1.5.1,0,.6.8,1.4,2.3.8,1.5,1.2,2.4,1.3,2.9h0Z"/>
      <path class="cls-7" d="M53.6,49.9c0,.3-.2.9-.5,1.9-.3.9-.4,1.4-.5,1.6-2,10.5-1.8,21.4.6,31.9.2,1.1.4,1.7.6,2,.4.8.6,1.3.6,1.6,0,.3,0,.4-.3.5-.2,0-.6,0-1.1-.1-.6-.2-.9-.3-1-.3-.2,0-.4-.4-.7-1.1,0,0,0-.3-.2-.6-.3-1.4-.8-3.4-1.1-6.1,0,1.6.1,3.3.2,5,.2,2,0,3-.2,2.9-2.3-.8-4.5-4.9-5.2-12-.4-4.1-.3-8.3.6-12.5.8-4,1.8-6.6,2.7-7.6.1-.2.2-.2.3-.2.2,0,.5,1.2.9,3.3.4-3.9.7-5.9,1.6-9.7,0-.3.1-.8.2-1.4s.2-1.2.3-1.5c.2-.7.4-1,.7-.9.2,0,.6.4.9,1,.2.4.4.8.6,1.1.2.3.2.8,0,1.6h0ZM49,62.3c-.6.8-1.3,2.6-1.7,5.6-.5,2.9-.5,5.7-.3,8.2.3,2.9.9,4.5,1.6,4.7.4,0-.9-6.2.4-18.5h0Z"/>
      <path class="cls-7" d="M61.3,60.5c0,.3,0,.6,0,.9s-.1.6-.3,1c-.2.4-.2.6-.2.8-.6,8.1-.3,12.2,1.6,20.2,0,.2.1.5.3.9.2.4.3.7.3.9.1.5,0,.9-.2,1.2-.1.2-.5.1-1.2-.2-.8-.3-1.2-.7-1.4-1.1-.1-.4-.3-.9-.3-1.6,0-.8-.1-1.3-.2-1.6,0-.3-.2-.7-.3-1.1.1,1.5.2,2.9.2,4.1,0,1.4-.1,2.2-.4,2.3-.3,0-.9-.1-1.6-.7s-1.2-1.1-1.4-1.7c-2.2-7.2-2.2-15.4-2.1-22.5,0-.6,0-1.2,0-1.8,0-1,.3-1.6.6-2,0,0,.2-.1.4,0,.3,0,.7.3,1.2.6.4.4.7.7.7,1.1,0,.2,0,.4,0,.6,0,.3-.2.9-.4,1.6-.2.7-.3,1.3-.3,1.6-.7,12.2,1.3,18.3,1.4,18.4.2.1.2-1.4.3-4.4.2-3,.3-5.3.2-6.8-.2-3.4-.1-5.1.1-8.4,0-.4-.1-.9,0-1.5.1-1.2.4-1.9.8-2.3,0,0,.1,0,.2,0,.3,0,.6.3,1.1.7s.7.7.8.9h0Z"/>
      <path class="cls-7" d="M70.1,75.8c0,.5-.1,1.2-.2,2-.2,1.4,0,2.7,0,3.4-.1,1.6-.4,2.7-1,3.2-.1,0-.2.1-.4.2-.6.1-1.4-.4-2.6-1.7-1-1.1-2.1-4.2-2.5-9.1-.3-3.6-.1-6.9.5-9.9.6-3.1,1.4-4.7,2.1-4.7.5,0,1.1.4,1.7,1.3.6.9,1,1.7,1.2,2.7.2.8.2,1.8.2,3,0,.3,0,.8,0,1.5,0,.6,0,1.1,0,1.4,0,.7,0,1,0,1,0,.8,0,1.2-.4,1.2-.4,0-.7-.1-1.1-.4-.4-.4-.7-.9-.8-1.6,0-.2,0-.6.1-1,.1-.4.2-.7.2-1,0-.2,0-.7,0-1.4,0-1.6,0-2.5-.2-2.5-.3,0-.7,1.2-1,3.9-.2,2.4-.2,5.1,0,7.9.4,3.4.9,5.1,1.2,5.2.2,0,.4-.6.5-2.2.1-1.3.2-2.2.1-2.6s0-.9,0-1.3c0-.8.2-1.1.4-1.1.2,0,.5.3,1,.8.5.5.8.9.8,1.1,0,.3,0,.5.1.7h0Z"/>
      <path class="cls-7" d="M79.5,80.4c0,.3,0,.6,0,.8s-.2.4-.3.4c-1.3,0-2.1-.4-2.4-1.1,0,0,0-.2,0-.3,0-.1,0-.2,0-.4,0-.1,0-.3,0-.4,0-.1,0-.2,0-.3,0-.2,0-.6-.2-1.2,0,.2-.2.8-.2,1.8,0,1,0,1.8-.2,2.2-.1.8-.4,1.2-.8,1.3-.2,0-.5-.1-.9-.5-.2-.2-.5-.6-.9-1.3-.8-1.2-1.2-1.9-1.2-2-.3-.6-.6-1.3-.7-1.9,0-.2,0-.4,0-.6-.2-2.2.2-4.4,1.2-6.4.7-1.4,1.7-2.9,3.1-4.3,0-.7,0-1.2-.2-1.4,0-.1-.5,0-1.1.7-.6.6-1.1,1.2-1.3,1.7,0,.2-.2.5-.4.8-.2.2-.3.3-.5.2-.1,0-.3-.5-.7-1.3s-.5-1.4-.5-1.7c0-.7,0-1.2.3-1.6,0,0,.3-.1.6-.4.4-.3.8-.9,1.2-1.4.9-.8,1.6-1.2,2.2-1.2.2,0,.5.3.7.9.2.6.4,1.1.6,1.6.2.5.5,1.1.7,1.5.3.6.4,1.2.4,1.8-.1,5,.1,7.6,1.2,12.5.2.5.4.9.4,1.1h0ZM75.7,70.9c-.5.5-.9,1.2-1.1,2.1-.2.8-.3,1.6-.5,2.3-.1.5-.2,1.2-.3,2.1s0,1.4,0,1.8c0,.2,0,.3.2.3.2,0,.4-1.2.8-3.5s.8-3.9.9-5.1h0Z"/>
      <path class="cls-7" d="M85.2,65.4c0,.3,0,.6-.2.9-.1.3-.2.4-.4.4,0,0,0,0-.1,0-.1-.1-.4-.2-.9-.2-.2,4.7,0,7.1,1.1,11.7,0,0,0,.1.2.4.1.3.2.6.3.9.1.6,0,.9-.3,1.1-.2,0-.6,0-1.3-.2-.7-.2-1.1-.6-1.2-.9,0-.1,0-.4,0-.9s0-.8,0-1.1c-.8-4.4-1-6.6-.9-11-.2,0-.3,0-.5,0-.2,0-.4-.4-.7-1.1-.2-.7-.3-1.3-.3-1.7,0-.3.1-.6.3-.9.1-.2.3-.4.4-.3.4,0,.7,0,1.1.1.1-1.1.2-1.7.4-2.8,0-.4,0-.9,0-1.4,0-.4.2-.7.4-.7,0,0,.2,0,.4,0,.4,0,.8.3,1.2.6s.7.6.8.9c0,.1,0,.3,0,.4,0,.2-.2.5-.4.8s-.3.6-.4.8c0,.6-.1,1-.2,1.6.2,0,.3,0,.5,0,0,0,.3.4.5,1.1.3.7.4,1.2.4,1.5h0Z"/>
      <path class="cls-7" d="M90.7,77.7c.2.6.2,1,0,1.2,0,0-.1,0-.2,0-.3.1-.8,0-1.4,0-.6-.1-1-.4-1.2-.7,0-.1-.1-.4,0-.9,0-.3,0-.8-.2-1.5-.8-4.6-1-6.9-.6-11.6,0-.7,0-1.2,0-1.4s.2-.3.6-.3c.3,0,.7.3,1.2.6s.8.7.9.9c0,0,0,.2,0,.3,0,.1,0,.4-.2.8-.1.4-.2.7-.2.9-.2,4.2,0,6.3.9,10.5,0,.2.1.4.3.6.2.2.3.4.3.5h0ZM90.4,60s0,.1,0,.2c0,.4-.2.9-.4,1.4-.2.6-.3,1-.4,1-.1,0-.5-.2-1.2-.7-.7-.6-1-1-1.1-1.2,0-.1,0-.2,0-.4,0-.5.3-1,.5-1.5.3-.6.6-.9.8-.9.2,0,.6.2,1.1.7s.7.9.8,1.3h0Z"/>
      <path class="cls-7" d="M96.4,64.2c.5.3.9,1.2,1.1,2.3.2,1,.4,2.2.4,3.5.1,1.9.2,3.5,0,4.9-.2,1.6-.6,2.5-1.4,2.5s-.8,0-1.3,0c-.4,0-.8,0-1.2,0-.6-.1-1.3-.7-1.9-2-.6-1.2-.9-2.6-1.1-4.3-.1-1.7,0-3.3.4-4.6.4-1.5,1.1-2.5,1.8-3,.1,0,.3-.1.5,0,.2,0,.6.2,1.2.4.4,0,1,.1,1.5.4h0ZM94.5,66.1c-.3,0-.6.5-.8,1.5s-.3,2-.3,2.9c0,1.1.3,2.2.6,3.3.4,1.1.7,1.7,1,1.8.3,0,.5-.6.5-1.8,0-1.2,0-2.4,0-3.8,0-.8-.1-1.5-.2-2.2-.2-1.1-.4-1.7-.8-1.7h0Z"/>
      <path class="cls-7" d="M106.7,73.1c0,.2.2.4.2.5,0,.3,0,.5-.2.7,0,0-.2.1-.4.1-.3,0-.7.1-1.2.1-.5,0-.8,0-.9-.1,0,0-.1-.1-.1-.2,0-.1,0-.3,0-.6,0-.3.1-.5.1-.6-.8-4.4-.4-6.6-.5-6.7-.1,0-.5.4-1.1,1.5-.6,1.2-.8,2.1-.8,2.7.1,1.4.2,2,.5,3.4.2.1.3.3.3.5.1.4,0,.8-.3,1.1,0,0,0,0-.2,0-.3,0-.7.1-1.2,0s-.9,0-.9-.2c0,0-.1-.2-.2-.3s0-.3,0-.5.1-.3,0-.4c-.8-3.6-.9-5.4-.5-9.1,0-.1,0-.2,0-.4,0-.2,0-.3,0-.4,0-.3.3-.4.5-.5.2,0,.5.1,1.1.4.6.3.9.5,1,.7,0,.1,0,.3,0,.6-.2.4-.2.6-.2.7,0,.1,0,.3,0,.4.2-.6.4-1.1.8-1.6.4-.5.8-.7,1.1-.7.3,0,.8.2,1.3.6.5.3.8.6.9.8.2.7-.5,4.2.9,7.3h0Z"/>
    </g>
    <path class="cls-7" d="M130.2,140.4c.1,0,.2.1.4.2s.3,0,.4,0c.4,0,.5,0,.8,0,0,0,0,0,0,0,.1,0,.3-.1.4-.1.3-.1.5-.3.7-.5.1-.1.2-.2.3-.4.1-.3.1-.4,0-.7,0,0,0,0,0-.1,0-.1-.1-.2-.2-.3-.1-.1-.2-.2-.4-.3,0,0,0,0-.1,0-.1,0-.2-.1-.4-.2-.2,0-.4,0-.5-.1h-.1c-.2,0-.3,0-.5,0-.4,0-.8.1-1.2.3-.1,0-.3.1-.4.2s-.2.2-.3.3c-.1.1-.2.3-.3.4-.2.3-.2.6-.1.9,0,0,0,.1,0,.2,0,.1.1.3.2.4.3.4.7.5,1.1.6.2,0,.4,0,.6,0,.2,0,.4,0,.6-.2.2,0,.3-.2.4-.3.1,0,.2-.2.3-.4v-.3c.1-.2,0-.3,0-.5-.2-.2-.5-.3-.8-.4h0,.3c0,0,0,0-.1,0h.3c0,.1,0,0-.1,0l.2.2c0,0-.1-.1-.1-.2v.2c0-.1,0-.2,0-.3v.3c0,0,0-.2,0-.2v.3c0,0,0-.1,0-.2l-.2.2c0,0,0-.1.1-.1l-.2.2s0,0,.1,0l-.3.2s.1,0,.1,0h-.4c0,.1.1.1.2.1h-.4c0,0,.1,0,.2,0h-.4c0,0,.1,0,.2,0h-.3c0,0,.1,0,.2,0h-.3c0,0,.1,0,.2,0l-.2-.2s0,.1.1.1v-.2c0,0,0,.1,0,.2v-.3s0,0,0,.1v-.3c0,0,0,0,0,.1l.2-.2s0,0,0,0l.2-.2s0,0,0,0l.3-.2s0,0,0,0h.4c0-.1,0-.1,0-.1h.4c0,0,0,0,0,0h.4,0,.3c0,0,0,0,0,0h.3c0,.1,0,.1,0,.1-.1-.1-.3-.1-.4-.2-.2,0-.4,0-.5,0-.2,0-.4,0-.6.1-.2,0-.4.1-.5.2l-.2.2c-.1.1-.2.3-.3.5v.3c0,.2.2.3.3.4h0Z"/>
    <path class="cls-7" d="M130.2,152.4c.1,0,.2.1.4.2.3,0,.5,0,.8,0s.6-.1.9-.2.5-.3.7-.5c.1-.1.2-.3.3-.4.1-.3.1-.4,0-.7,0,0,0,0,0-.1,0-.1-.1-.2-.2-.3-.2-.3-.5-.5-.9-.6-.2,0-.4,0-.5-.1h-.1c-.2,0-.3,0-.5,0-.4,0-.8.1-1.2.3-.3.2-.5.3-.7.5-.1.1-.2.3-.3.4-.2.3-.2.6-.1.9,0,0,0,.1,0,.2,0,.1.1.3.2.4.3.4.7.5,1.1.6.2,0,.4,0,.6,0,.2,0,.4,0,.6-.2.2,0,.3-.2.4-.3.1-.1.2-.2.3-.4v-.3c.1-.2,0-.4,0-.5-.2-.2-.5-.3-.8-.4h0,.3c0,0,0,0-.1,0h.3c0,.1,0,0-.1,0l.2.2c0,0-.1-.1-.1-.2v.2c0,0,0-.2,0-.3v.3c0,0,0-.2,0-.2v.3c0,0,0-.1,0-.2l-.2.2s0,0,.1-.1l-.2.2s0,0,.1-.1l-.3.2s.1,0,.1,0h-.4c0,.1.1.1.2.1h-.4c0,0,.1,0,.2,0h-.4c0,0,.1,0,.2,0h-.3c0,0,.1,0,.2,0h-.3c0-.1.1,0,.2,0l-.2-.2s0,.1.1.1v-.2c0,0,0,.1,0,.2v-.3s0,0,0,.1v-.3c0,0,0,0,0,.1l.2-.2s0,0,0,0l.2-.2s0,0,0,0l.3-.2s0,0,0,0h.4c0-.1,0-.1,0-.1h.4c0,0,0,0,0,0h.4,0,.3c0,0,0,0,0,0h.3c0,.1,0,.1,0,.1-.1-.1-.3-.1-.4-.2-.2,0-.4,0-.5,0-.2,0-.4,0-.6.1-.2,0-.4.1-.5.3l-.2.2c-.1.1-.2.3-.3.5v.3c0,.2.2.3.4.4h0Z"/>
    <path class="cls-7" d="M130.2,164.2c.2.1.5.1.7,0,.4,0,.9-.1,1.3-.3.3-.1.7-.3.9-.5,0,0,.2-.2.2-.3,0-.1,0-.2,0-.3,0-.1-.1-.2-.2-.3-.1-.2-.4-.3-.6-.3-.3-.1-.7-.1-1,0s-.6,0-.9.2-.6.2-.9.3c-.2.1-.4.2-.6.4-.1,0-.2.2-.2.3-.1.1-.1.4-.1.5,0,.2.1.4.2.5.2.2.5.3.8.3.2,0,.3,0,.5,0,.2,0,.4,0,.6-.1.2,0,.4-.1.6-.2.1,0,.3-.1.4-.2l.2-.2c.1,0,.1-.2.1-.3h0c-.1-.2-.3-.3-.4-.3h0c0,0,.2,0,.2,0,0,0,0,0-.1,0h.2c0,0-.1,0-.2,0h0c-.1,0-.1-.2-.1-.3h0s0,0,0-.1v.2c0,0,0-.1,0-.1l-.2.2s0,0,.1,0l-.3.2s0,0,0,0h-.3c0,.1,0,.1.1.1h-.4c0,.1,0,.1,0,.1h-.4c0,0,0,0,.1,0h-.4c0,0,.1,0,.1,0h-.3c0,0,.1,0,.2,0h-.2c0,0,.2,0,.2,0h-.2c.1,0,.2,0,.3.1h0c0,0,0,0,0,.1h0c0,0,0,0,0,0v-.2c.1,0,0,0,0,.1l.2-.2s0,0,0,0l.3-.2s0,0,0,0h.3c0-.1,0-.1,0-.1h.4c0-.1,0-.1,0-.1h.4c0,0,0,0,0,0h.4s0,0,0,0h.3,0,.2s0,0,0,0c-.1,0-.3,0-.4,0s-.4,0-.5,0c-.2,0-.4,0-.6.1-.2,0-.4.1-.5.2l-.3.2c-.1,0-.2.2-.3.3h0c0,.3.1.3.2.4h0Z"/>
    <path class="cls-13" d="M435.1,262.5c2.2,4.1,3.5,8.8,3.5,13.8,0,16-13,29-29,29s-29-13-29-29,0-1.2,0-1.8"/>
    <g class="cls-2">
      <text class="cls-1" transform="translate(403.5 284.6)"><tspan x="0" y="0">2</tspan></text>
    </g>
    <g>
      <path class="cls-7" d="M377.9,261.1c0,.5.1,1.1.1,1.8,0,.6,0,1.1-.1,1.2,0,0,0,0-.2-.1-.1-.1-.2-.2-.2-.2,0,0,0,0,0,0-.1.2-.2.4-.3.6,0,0-.2.4-.3.8-.3,1.1,0,4.3-.7,4.8-.6.4-2.5-1.1-4.1-3.2-4-5.2-4-11.7-3.9-20,0,0,.1-11.4,4.5-19.7.4-.7,1.1-1.9,1.4-1.8.2,0,0,.5.3,1.1,0,.1.4.9,1,.9.3,0,.7-.3,1.4-1.1.6-.7,1-1,1-.9.1.3.2,1.3.2,2.8,0,1.5,0,2.6,0,3.2,0,.3-.2.8-.5,1.5-.3.7-.5,1-.6,1,0,0,0,0-.1,0-.4-.2-1.1.4-1.2.5-.5.5-1.1.9-1.8,1.5-.7.9-2,2.8-2.5,5.5-.4,2.4-.1,4.3.2,5.4.7-.6,1.4-1.4,2.1-2.2.3-.3.5-.6.7-.9.1,0,.4.7.8,2.3.4,1.5.7,2.6.7,3.2,0,.4,0,.8-.1,1.3-.1.5-.2.8-.3,1-.2,0-.3,0-.5.1-2.2.8-2.7,4.4-2.8,5.1-.1.5-.4,1.4-.1,2.6.3,1.7,1.4,2.7,1.8,3.1.3-1.9.6-3.3.9-4.4.2-.8.4-1.3.7-1.3.1,0,.5.7,1.2,2,.7,1.4,1.1,2.2,1.2,2.6h0Z"/>
      <path class="cls-7" d="M386.9,233.2c0,.8,0,1.5-.3,2.1-.2.5-.4,1-.5,1.5-.7,3.5-1,5.2-1.4,8.8,1.1,4.2,1.8,6.3,3.3,10.2.2.4.3.7.5,1.1.2.5.4,1,.5,1.4,0,.3,0,.5,0,.8s-.2,1-.4,2c-.2.9-.4,1.5-.5,1.6-.1.1-.5-.3-.8-1.2-.4-1.5-1.6-4.5-3.2-9.2,0,3.1,0,4.7.1,7.8,0,.7.2,1.3.3,2,.2,1,.2,1.6,0,1.8-.1.1-.6,0-1.2-.6-.7-.6-1.2-1.2-1.4-1.8,0-.2-.1-.4-.2-.6-.1-.5-.1-1.1,0-1.7,0-1,0-1.5,0-1.6,0-4.6,0-6.9.4-11.5-1-4.1-1.5-6.1-2.1-10.4-.1-.3-.3-.9-.4-1.7,0-.4.2-1.3.8-2.4.5-1.2.9-1.8,1.1-1.9.2,0,.3,0,.3.5,0,.4,0,.9.1,1.4.4,3.3.6,4.9,1.2,8,.4-3.1.7-4.6,1.4-7.5,0-.5.1-1,.2-1.4,0-.3.2-.5.5-.6.1,0,.5.4.9,1.2.5.8.7,1.4.8,1.9h0Z"/>
      <path class="cls-7" d="M394.9,260.1c0,.2-.1.3-.2.3-.2,0-.9-.8-1.8-2.5.8,3.6,1.2,5.5,2.3,9,0,.2.2.7.5,1.3.3.6.5,1,.5,1.4.2.6.2,1,0,1.1-.2,0-.6,0-1.2-.2-.3-.2-.7-.4-1-.6-.3-.1-.6-.6-.8-1.3-.1-.3-.3-.9-.5-1.9s-.3-1.5-.3-1.6c-2.8-10.4-4.1-21.2-3.8-32,0-1.1,0-1.8,0-2.1-.1-.8-.1-1.4,0-1.8,0-.3.2-.4.4-.4.2,0,.5.2.9.6.5.4.7.6.8.6.1,0,.2.5.3,1.2,0,.1,0,.3,0,.7,0,1.3-.2,3.3-.2,5.9.2-1.5.4-3.1.7-4.5.4-1.9.7-2.8.9-2.6,1.8,1.5,2.4,5.3,2.8,11.4.2,3.5.3,7,.3,10.7,0,3.7,0,6.1-.5,7.4h0ZM391.9,238.2c-.3-.1-1.1,5.7.6,17.3.4-.9.5-2.7.6-5.5,0-2.7,0-5.2,0-7.5-.2-2.7-.5-4.1-1.1-4.4Z"/>
      <path class="cls-7" d="M402.9,249.7c.1.4.1,1.6,0,3.8,0,2.3-.2,3.9-.5,4.8,0,.1-.1.2-.2.2-.4.1-.9-.1-1.6-.6-.7-.5-1.3-1.2-1.7-1.9-1-2-1.8-5.1-2.2-9-.4-3.7-.3-7.1.2-9.9.5-3.1,1.3-4.6,2-4.6.3,0,.6.3,1,.8.5.6.9,1.5,1.2,2.5,0,.2.1,1,.2,2.3.1,1.3.2,2.6.3,3.9.1,1.9.1,3.2,0,3.9-.9,1-1.8,1.7-2.8,1.9.1,1.4.4,2.9.8,4.4s.7,2.3.8,2.3c.2,0,.3-.5.4-1.5,0-.9.1-1.6,0-2.1,0-.8,0-1.7,0-2.6.1,0,.5.1,1,.5.5.4.8.8.9,1.2h0ZM399.5,237c-.1,0-.4.7-.6,2.3-.2,1.6-.3,3.2-.2,4.7.4,0,.7-.4.9-1,.1-.4,0-1.8,0-4.3,0-1,0-1.6,0-1.7Z"/>
      <path class="cls-7" d="M408.7,235.4c0,.4,0,.7-.2,1-.1.1-.2.3-.3.5-.6,2.4-1.3,5.7-1.8,10,.5,4.1,1,6.2,1,6.3s.1.4.3,1c.2.5.3.9.4,1.2.1.5.1.8,0,1,0,.1-.2.3-.4.3-.3.1-.8,0-1.3-.3-.6-.4-1-1-1.2-1.8,0-.2,0-.6-.1-1.2s0-1-.1-1.3c-1.1-6.3-1.4-9.5-1.3-15.9-.1-1.5-.1-2.3-.1-2.4,0-.8.2-1.4.5-1.5.1,0,.2-.1.4,0,.3,0,.7.2,1,.5s.5.7.6,1c0,.1,0,.2,0,.4s0,.8-.2,1.9v1.9c.2-1.1.4-2.2.7-3.3.3-1.4.6-2.1.7-2.1.2,0,.5.3.9,1.1s.6,1.4.6,1.9h0Z"/>
      <path class="cls-7" d="M414.3,253.3c.2.8.2,1.3,0,1.6,0,0-.1,0-.2,0-.3.1-.8,0-1.3-.2-.6-.2-1-.5-1.2-1,0-.2-.1-.6-.1-1.1,0-.4,0-1-.2-2-1-6-1.3-9.1-1.2-15.2-.1-.9-.1-1.5-.1-1.9s.2-.5.5-.4c.3,0,.7.3,1.1.8.5.5.8.9.9,1.2,0,0,0,.2,0,.4s0,.5-.2,1c-.1.5-.2.9-.2,1.1,0,5.6.4,8.5,1.4,14,0,.2.1.5.3.8.2.3.3.5.3.7h0ZM413,229.4s0,.1,0,.3c0,.5-.1,1.2-.3,2-.1.9-.3,1.4-.4,1.4s-.5-.2-1.2-.9-1-1.2-1-1.5c0-.1,0-.3,0-.5,0-.6.2-1.3.4-2,.2-.8.5-1.2.7-1.3.2,0,.6.2,1,.8.5.6.7,1.2.8,1.7h0Z"/>
      <path class="cls-7" d="M420.5,246.8c.1.3,0,1.2-.1,2.8-.2,1.7-.4,2.9-.7,3.6,0,0-.1.1-.2.2-.4.1-.9,0-1.5-.4s-1.2-.8-1.5-1.4c-.9-1.5-1.5-3.8-1.9-6.8-.3-2.8-.2-5.4.3-7.5.5-2.3,1.2-3.4,2-3.4.3,0,.6.2,1,.6.5.5.9,1.1,1.2,1.9,0,.2.1.8.2,1.7.1,1,.2,1.9.2,2.9,0,1.4,0,2.3,0,2.9-.9.8-1.8,1.3-2.8,1.5.1,1.1.3,2.2.6,3.3.3,1.1.6,1.7.7,1.7.2,0,.3-.4.5-1.2.1-.6.2-1.2.2-1.6,0-.6,0-1.3,0-2,.1,0,.5,0,.9.4.5.3.8.6.9.9h0ZM417.3,237.5c-.1,0-.4.5-.6,1.7s-.4,2.4-.3,3.5c.4,0,.7-.3,1-.8s.1-1.3,0-3.2c0-.8,0-1.2,0-1.2h0Z"/>
      <path class="cls-7" d="M428.6,248.3c0,.3.2.6.3.9.1.5,0,.9,0,1.1,0,0-.2.1-.3.2-.3,0-.7.1-1.2,0s-.8-.2-.9-.3c0,0-.1-.2-.1-.3,0-.2,0-.5,0-1,0-.5,0-.8,0-1-1.2-6.9-1-10.5-1-10.6-.1,0-.5.7-.9,2.4-.5,1.9-.6,3.3-.5,4.2.2,2.1.4,3.1.8,5.2.2.2.3.5.4.8.1.7.1,1.2-.1,1.5,0,0,0,0-.1.1-.2,0-.6,0-1.1,0-.5-.1-.8-.2-.9-.4,0-.1-.1-.3-.2-.5,0-.2,0-.4,0-.7,0-.3,0-.5,0-.6-1-5.4-1.2-8.1-1.1-13.6,0-.2,0-.4-.1-.6s0-.5,0-.6c0-.4.2-.7.5-.8.1,0,.5,0,1,.4.6.4.9.7.9,1,0,.2,0,.5,0,.9-.1.6-.2,1-.2,1.1,0,.2,0,.4,0,.7.1-.9.3-1.8.6-2.5.3-.8.7-1.2,1-1.2.3,0,.7.3,1.2.7.5.5.8.8.8,1.2.2,1.1-.4,6.1,1.4,12h0Z"/>
      <path class="cls-7" d="M435.4,243.9c0,.3-.2.7-.3,1.1-.2.7-.2,1.5-.3,1.9-.2,1-.6,1.6-1.2,1.9-.1,0-.2.1-.4.1-.5.1-1.2,0-2.1-.7-.8-.6-1.5-2.3-1.8-5.1-.2-2.1-.1-4,.2-5.7.4-1.8,1-2.7,1.5-2.7s1,.3,1.6.8c.6.5,1.1,1,1.3,1.5.2.4.3,1,.3,1.7v.8c0,.4,0,.6,0,.7,0,.4,0,.6,0,.5,0,.5-.1.7-.4.7-.3,0-.7,0-1-.2-.4-.2-.7-.5-.8-.9,0-.1,0-.3,0-.5.1-.2.1-.4.1-.6,0-.1,0-.4,0-.8,0-.9-.1-1.4-.3-1.4-.3,0-.6.7-.7,2.2-.1,1.4-.1,2.9,0,4.5.2,1.9.6,2.9.9,2.9.2,0,.4-.4.6-1.3.2-.8.3-1.2.3-1.5,0-.2,0-.5,0-.8,0-.4.2-.6.4-.6.2,0,.5.1.9.4.5.2.7.4.7.6,0,.1,0,.3,0,.4h0Z"/>
      <path class="cls-7" d="M442.3,243.1c.1.1,0,.7-.3,1.6-.3,1-.6,1.7-1,2.2,0,0-.1,0-.2.1-.4.1-.9,0-1.5,0-.7-.1-1.1-.4-1.4-.7-.7-.8-1.2-2.2-1.4-4-.2-1.7,0-3.2.5-4.5.5-1.4,1.2-2,2-1.9.3,0,.6.1,1,.4.5.3.9.6,1.2,1.1,0,.1.1.4.2.9,0,.5.2,1.1.2,1.6,0,.8,0,1.3-.2,1.6-.9.5-1.9.8-2.9,1,0,.6.2,1.2.4,1.9.2.6.4,1,.6.9.2,0,.4-.3.5-.7.2-.4.3-.7.3-1,0-.4,0-.7.1-1.1.1,0,.5,0,.9.1.5.1.7.3.8.4h0ZM439.4,238c-.1,0-.4.3-.6,1-.3.7-.4,1.4-.4,2,.4,0,.7-.2,1-.5.1-.1.2-.8.1-1.8,0-.5,0-.7,0-.7h0Z"/>
    </g>
    <g class="cls-2">
      <text class="cls-6" transform="translate(457.2 262.8)"><tspan x="0" y="0">April 2018 - September 2020</tspan></text>
    </g>
    <g class="cls-2">
      <text class="cls-3" transform="translate(458.1 284.1)"><tspan x="0" y="0">Shop assistant, at UNIQLO, Kanagawa, Japan(full-time)</tspan></text>
    </g>
    <g class="cls-2">
      <text class="cls-4" transform="translate(130.3 142.1)"><tspan x="0" y="0">　Graphic Design</tspan></text>
      <text class="cls-4" transform="translate(130.3 154.3)"><tspan x="0" y="0">　Web Design</tspan></text>
      <text class="cls-4" transform="translate(130.3 166.6)"><tspan x="0" y="0">　Video Editting</tspan></text>
    </g>
    <path class="cls-7" d="M460.8,299.5c.2.1.4.1.6.1.5,0,1.1,0,1.6-.3.3-.1.7-.3.9-.5.1,0,.2-.2.2-.3,0-.2,0-.4,0-.5,0-.1-.1-.2-.2-.3-.1,0-.3-.1-.4-.2-.3-.1-.7-.1-1,0-.6,0-1.3.2-1.8.5-.2.1-.4.2-.6.4-.1,0-.2.2-.3.3-.1.1-.1.3-.1.5s.1.4.2.5c.2.2.5.3.8.3.2,0,.3,0,.5,0,.2,0,.4,0,.6-.1.2,0,.4-.1.5-.2.1,0,.3-.1.4-.2l.2-.2c.1,0,.1-.2.1-.3h0c-.1-.2-.3-.2-.4-.2h0c0,0,.2,0,.2,0,0,0,0,0-.1,0h.2c0,0-.1,0-.2,0h0c-.1,0-.2-.2-.1-.4h0s0,0,.1-.2v.2c0,0,0,0,0-.1l-.2.2s0,0,.1,0l-.3.2s0,0,0,0h-.3c0,.1,0,.1.1.1h-.4c0,.1,0,.1,0,.1h-.4c0,0,0,0,.1,0h-.4s0,0,.1,0h-.3c0,0,.1,0,.2,0h-.2c0,0,.2,0,.2,0h-.2c.1,0,.2,0,.3.1h0c0,0,.1,0,0,.2h0c0,0,0,0,0,0v-.2c.1,0,0,0,0,0l.2-.2s0,0,0,0l.3-.2s0,0,0,0h.3c0-.1,0-.1,0-.1h.4c0-.1,0-.1,0-.1h.4c0,0,0,0,0,0h.4s0,0,0,0h.3,0,.2s0,0,0,0h.2c0,0,0,0,0,0,0,0-.2-.1-.3-.1-.1,0-.3,0-.4,0-.2,0-.4,0-.5,0-.2,0-.4,0-.6.2h-.3c-.2.2-.3.3-.5.5v.2c-.2.1-.1.2,0,.3h0Z"/>
    <path class="cls-7" d="M461,311.6c.2.1.5.1.7,0,.4,0,.9-.1,1.3-.3.3-.1.7-.3.9-.6,0,0,.2-.2.2-.3,0-.1,0-.2,0-.3,0-.1-.1-.2-.2-.4,0,0-.1-.1-.2-.1-.1,0-.3-.1-.4-.2-.3-.1-.7-.1-1,0-.6,0-1.3.2-1.8.5-.2.1-.4.2-.6.4-.1,0-.2.2-.2.3-.1.2-.1.4-.1.5,0,.2.1.4.2.5.2.2.5.3.8.3.2,0,.3,0,.5,0,.2,0,.4,0,.6-.1.2,0,.4-.1.5-.2.1,0,.3-.1.4-.2l.2-.2c.1,0,.1-.2.1-.3h0c-.1-.2-.3-.3-.4-.3h0,.3s0,0-.1,0h.2c0,0-.1,0-.2,0h0c-.1,0-.1-.2-.1-.3v.2c0-.1,0-.2,0-.3v.2c0,0,0-.1,0-.2l-.2.2s0,0,.1,0l-.3.2s0,0,0,0h-.3c0,.1,0,.1.1.1h-.4c0,.1,0,.1,0,.1h-.4c0,0,0,0,.1,0h-.4s0,0,.1,0h-.3c0,0,.1,0,.2,0h-.3c0,0,.2,0,.2,0h-.2c.1,0,.2,0,.3.1h0c0,0,0,0,0,.1v-.2c0,0,0,.1,0,.2v-.2c.1,0,0,0,0,0l.2-.2s0,0,0,0l.3-.2s0,0,0,0h.3c0-.1,0-.1,0-.1h.4c0-.1,0-.1,0-.1h.4c0,0,0,0,0,0h.4s0,0,0,0h.3,0,.3s0,0,0,0c-.1,0-.3,0-.4,0-.2,0-.4,0-.5,0-.2,0-.4,0-.6.1-.2,0-.4.1-.5.2l-.3.2c-.1,0-.2.2-.3.3v.2c0,.1.1.2.3.2h0Z"/>
    <path class="cls-7" d="M460.8,323.5c0,0,.2,0,.3.1.2,0,.4,0,.6,0,.4,0,.9-.1,1.3-.3.4-.1.7-.3.9-.5.1,0,.2-.2.2-.3,0-.1,0-.2,0-.3,0-.1,0-.2-.2-.3-.1-.2-.4-.3-.6-.4-.1,0-.3,0-.4,0-.2,0-.4,0-.5,0-.6,0-1.3.2-1.8.5-.2.1-.4.2-.6.4-.1,0-.2.2-.3.3-.1.1-.1.3-.1.5,0,.2.1.4.2.5.2.2.5.3.8.3.2,0,.3,0,.5,0,.2,0,.4,0,.6-.1.2,0,.4-.1.5-.2.1,0,.3-.1.4-.2l.2-.2c.1,0,.1-.2.1-.3h0c-.1-.2-.3-.2-.4-.2h0c0,0,.2,0,.2,0,0,0,0,0-.1,0h.2c0,0-.2,0-.2-.1h0c-.1,0-.1-.2-.1-.4h0s0,0,.1-.1v.2c0,0,0-.1,0-.1l-.2.2s0,0,.1,0l-.3.2s0,0,0,0h-.3c0,.1,0,.1.1.1h-.4c0,.1,0,.1,0,.1h-.4c0,0,0,0,.1,0h-.4s0,0,.1,0h-.3c0,0,.1,0,.2,0h-.2c0,0,.2,0,.2,0h-.2c.1,0,.2,0,.3.1h0c0,0,0,0,0,.2h0c0,0,0,0,0,0v-.2c.1,0,0,0,0,0l.2-.2s0,0,0,0l.3-.2s0,0,0,0h.3c0-.1,0-.1,0-.1h.4c0-.1,0-.1,0-.1h.4c0,0,0,0,0,0h.4s0,0,0,0h.3,0,.2s0,0,0,0h.2c0,0,0,0,0,0,0,0-.2-.1-.3-.1-.1,0-.3,0-.4,0-.2,0-.4,0-.5,0-.2,0-.4,0-.6.2h-.3c-.2.2-.3.3-.5.5v.2c-.1.1-.1.2,0,.3h0Z"/>
    <g class="cls-2">
      <text class="cls-1" transform="translate(206.2 400.6)"><tspan x="0" y="0">3</tspan></text>
    </g>
    <g class="cls-2">
      <text class="cls-5" transform="translate(259.4 391.8)"><tspan x="0" y="0">October 2020 - September 2021</tspan></text>
    </g>
    <g class="cls-2">
      <text class="cls-3" transform="translate(260.2 413.6)"><tspan x="0" y="0">Study abroad, Dublin, Ireland</tspan></text>
    </g>
    <path class="cls-7" d="M262.9,428.5c.2,0,.4.1.6.1.5,0,1.1,0,1.6-.3.3-.1.7-.3.9-.5,0,0,.2-.2.2-.3,0-.2,0-.4,0-.5,0,0-.1-.2-.2-.2-.1,0-.3-.1-.4-.2-.3,0-.7,0-1,0-.6,0-1.3.2-1.8.5-.2.1-.4.2-.6.4-.1,0-.2.2-.3.3-.1.2-.1.3-.1.5s0,.3.1.4c0,0,.1.2.2.2,0,0,.2,0,.2.1,0,0,0,0,.1,0,.1,0,.3,0,.4,0,.2,0,.3,0,.5,0,.2,0,.4,0,.6-.2.2,0,.4-.1.5-.2l.3-.2c.1,0,.2-.2.3-.3h0c0-.2-.1-.3-.3-.3,0,0,0,0-.1,0h.2c0,0-.2,0-.2,0h0c-.1,0-.2-.2-.1-.4h0s0,0,.1-.2v.2c-.1,0,0,0,0-.1l-.2.2s0,0,.1,0l-.3.2s0,0,0,0h-.3c0,.1,0,.1,0,.1h-.4c0,.1,0,0,0,0h-.4c0,0,0,0,.1,0h-.4s0,0,.1,0h-.3c0,0,.1,0,.2,0h-.2c0,0,.2,0,.2,0h-.2c.1,0,.2,0,.3.2h0c0,0,.1,0,0,.2h0c0,0,0,0,0,0v-.2c.1,0,0,0,0,0l.2-.2s0,0,0,0l.3-.2s0,0,0,0h.3c0-.1,0-.1,0-.1h.4c0-.1,0-.1,0-.1h.4c0,0,0,0,0,0h.4s0,0,0,0h.3,0,.2s0,0,0,0h.2c0,0,0,0,0,0,0,0-.2,0-.3,0-.1,0-.3,0-.4,0-.2,0-.4,0-.5,0-.2,0-.4,0-.6.2h-.3c-.2.2-.3.3-.5.5,0,0-.2.3,0,.4h0Z"/>
    <path class="cls-7" d="M263.4,441c.2.1.6.1.9.1.2,0,.3,0,.5,0,0,0,0,0,0,0,.1,0,.3,0,.4-.2.3-.1.5-.3.7-.5.1-.1.2-.3.3-.4.1-.3.1-.4,0-.7,0,0,0,0,0-.1,0-.1-.1-.2-.2-.3-.1-.1-.2-.2-.4-.3-.1,0-.2-.1-.4-.2,0,0,0,0-.1,0-.4-.1-.8-.2-1.1-.1-.4,0-.8.1-1.2.3-.3.2-.5.3-.7.5-.1.1-.2.3-.3.4-.2.3-.2.6-.1.9,0,0,0,.2,0,.2,0,.1.1.3.2.4.3.4.7.5,1.2.6.2,0,.4,0,.6,0,.2,0,.4,0,.6-.2.2,0,.3-.2.5-.3.1,0,.2-.2.3-.4v-.3c0-.2,0-.4,0-.5-.2-.2-.5-.4-.8-.4h0,.3c0,0,0,0-.1,0h.3c0,.1,0,0-.1,0l.2.2c0,0-.1-.1-.1-.2v.2c0,0,0-.2,0-.3v.3c0,0,0-.2,0-.2v.3c0,0,0-.1,0-.2l-.2.3s0,0,.1-.1l-.2.2s0,0,.1,0l-.3.2s.1,0,.1,0h-.4c0,.1.1.1.2.1h-.4c0,0,.1,0,.2,0h-.4c0,0,.1,0,.2,0h-.3c0,0,.1,0,.2,0h-.3c0-.1.1,0,.2,0l-.2-.2s0,0,.1.1v-.2c0,0,0,.1,0,.2v-.3s0,0,0,.1v-.3c0,0,0,0,0,0l.2-.3s0,0,0,0l.2-.2s0,0,0,0l.3-.2s0,0,0,0h.4c0-.1,0-.1,0-.1h.4c0,0,0,0,0,0h.4,0,.3c0,0,0,0,0,0-.2,0-.3,0-.5,0-.2,0-.4,0-.6,0-.2,0-.4.1-.5.2-.2,0-.3.2-.4.3-.2.2-.3.5-.2.8v.2c.2.2.4.3.6.3h0Z"/>
    <path class="cls-7" d="M262.9,452.5c.2,0,.4.1.6.2.5,0,1.1,0,1.6-.3.3-.1.7-.3.9-.5s.2-.2.2-.3c0-.2,0-.4,0-.5,0,0-.1-.2-.2-.2-.1,0-.3-.1-.4-.2-.3,0-.7,0-1,0-.6,0-1.3.2-1.8.5-.4.2-.7.4-.9.7-.1.2-.1.3-.1.5s0,.3.1.4c0,0,.1.2.2.2,0,0,.2,0,.2.1,0,0,0,0,.1,0,.1,0,.3,0,.4,0,.2,0,.3,0,.5,0,.2,0,.4,0,.6-.2.2,0,.4-.1.5-.2l.3-.2c.1,0,.2-.2.3-.3h0c0-.2-.1-.3-.3-.3,0,0,0,0-.1,0h.2c0,0-.2,0-.2,0h0c-.1,0-.2-.2-.1-.4h0s0,0,.1-.2v.2c0,0,0,0,0-.2l-.2.2s0,0,.1,0l-.3.2s0,0,0,0h-.3c0,.1,0,.1,0,.1h-.4c0,.1,0,0,0,0h-.4c0,0,0,0,.1,0h-.4s0,0,.1,0h-.3c0,0,.1,0,.2,0h-.2c0,0,.2,0,.2,0h-.2c.1,0,.2,0,.3.2h0c0,0,.1,0,0,.2h0c0,0,0,0,0,0v-.2c.1,0,0,0,0,0l.2-.2s0,0,0,0l.3-.2s0,0,0,0h.3c0-.1,0-.1,0-.1h.4c0-.1,0-.1,0-.1h.4c0,0,0,0,0,0h.4s0,0,0,0h.3,0,.2s0,0,0,0h.2c0,0,0,0,0,0,0,0-.2,0-.3,0-.1,0-.3,0-.4,0-.2,0-.4,0-.5,0-.2,0-.4,0-.6.2h-.3c-.2.2-.3.3-.5.5v.2c-.2,0-.1.2,0,.2h0Z"/>
    <g class="cls-2">
      <text class="cls-4" transform="translate(271.2 430.5)"><tspan x="0" y="0">Learning English</tspan></text>
      <text class="cls-4" transform="translate(271.2 442.7)"><tspan x="0" y="0">Living with some native speakers to become more fluent</tspan></text>
      <text class="cls-4" transform="translate(271.2 455)"><tspan x="0" y="0">something something something/////</tspan></text>
      <text class="cls-4" transform="translate(271.2 479.5)"><tspan x="0" y="0">　</tspan></text>
    </g>
    <path class="cls-12" d="M211.5,421.4c-19.5,60.7,11.8,93.6,70.9,102.7,24.5,3.8,49.5,3.7,74.1,1.3,36.9-4.1,74.1-9.4,108.4-24.2,23.2-9,43.4-23.8,66-34,11.3-5.1,23-9.5,35.1-12.2,12.1-2.7,24.6-4,37-3,29.4,2.9,62.1,14,77.4,41.1,3.3,6.2,5.5,13,6.4,19.9h-.5c-7.3-50.8-77.1-68-120.2-57.7-12,2.7-23.9,6.9-35.1,12-11.3,5.2-22,11.4-32.6,17.8-21.2,12.9-44.4,22.4-68.5,28.6-17.9,5.1-36.4,8.1-54.9,10.2-12.3,1.5-24.7,2.6-37.1,3.1-43.7,1.5-113.3-1.6-129.9-50.7-3.9-11.9-3.9-24.8-1.8-37,1.1-6.1,2.7-12.1,4.6-18l.5.2h0Z"/>
    <circle class="cls-13" cx="686.8" cy="541.8" r="28.5"/>
    <g class="cls-2">
      <text class="cls-1" transform="translate(679.8 549.6)"><tspan x="0" y="0">4</tspan></text>
    </g>
    <g class="cls-2">
      <text class="cls-5" transform="translate(473.3 533.4)"><tspan x="0" y="0">March 2022 - July 2023</tspan></text>
    </g>
    <g class="cls-2">
      <text class="cls-4" transform="translate(303.2 557.9)"><tspan x="0" y="0">Waitress, Takumi 3rd Chicken&amp;Veggie, Dusseldorf, Germany (full-time)</tspan></text>
    </g>
    <g>
      <path class="cls-7" d="M279.6,572.4c.1,0,.2.1.4.1s.3,0,.4,0c.5,0,.9,0,1.3-.2.3-.1.5-.3.7-.5.2-.2.3-.4.4-.6.1-.3,0-.6-.2-.8,0-.1-.2-.2-.4-.3-.1,0-.3-.2-.5-.2-.4-.1-.8-.1-1.1,0-.2,0-.4,0-.6.1-.4,0-.6.2-.9.4-.3.2-.6.4-.7.7s-.2.5-.2.8c0,.2.1.4.3.6,0,.1.2.2.4.3.2.2.5.2.8.2.2,0,.4,0,.6,0,.2,0,.4,0,.6-.2.2,0,.3-.2.5-.3.1,0,.2-.2.3-.3.1-.2.2-.5,0-.7l-.2-.2c-.2,0-.4-.2-.6-.2h0c.1,0,.2,0,.3,0,0,0,0,0-.1,0h.3c0,.1,0,0-.1,0l.2.2c0,0-.1-.1-.2-.2v.2c0,0,0-.2,0-.3v.2c0,0,0-.2,0-.3v.2c0,0,0-.1,0-.2l-.2.2s0,0,.1-.1l-.3.2s0,0,.1,0l-.3.2s0,0,.1,0h-.4c0,.1.1,0,.2,0h-.4c0,0,.1,0,.2,0h-.4c0,0,.1,0,.2,0h-.3c0,0,.1,0,.2,0h-.3c0,0,.1,0,.2,0l-.2-.2c0,0,.1.1.2.2v-.2c0,0,0,.1,0,.2v-.2s0,0,0,.1v-.2c0,0,0,0,0,0l.2-.2s0,0,0,0l.3-.2s0,0,0,0l.3-.2s0,0,0,0h.4c0-.1,0-.1,0-.1h.4c0,0,0,0,0,0h.4s0,0,0,0h.3s0,0,0,0h.3c0,.1,0,.1,0,.1-.1,0-.3-.1-.4-.2-.2,0-.4,0-.5,0-.2,0-.4,0-.6.1-.2,0-.4.1-.5.2l-.3.2c-.1.1-.2.3-.3.5v.2c0,.2.2.3.3.4h0Z"/>
      <path class="cls-7" d="M279.5,584.2c.2,0,.5,0,.7,0,.4,0,.9-.1,1.3-.3.3-.1.7-.3.9-.5,0,0,.2-.2.2-.3,0,0,0-.2,0-.3,0-.1-.1-.2-.2-.3-.1-.2-.4-.3-.6-.3-.3,0-.7-.1-1,0s-.6,0-.9.2-.6.2-.9.3c-.2.1-.4.2-.6.4-.1,0-.2.2-.2.3-.1.2-.1.3-.1.5,0,.2.1.4.2.5.2.2.5.3.8.3.2,0,.3,0,.5,0,.2,0,.4,0,.6,0s.4-.1.5-.2c.1,0,.3-.1.4-.2l.2-.2c.1,0,.1-.2.1-.3h0c-.1-.2-.3-.3-.4-.3h0c0,0,.2,0,.2,0,0,0,0,0-.1,0h.2c0,0-.1,0-.2,0h0c-.1,0-.1-.2-.1-.3v.2c0-.1,0-.2,0-.3v.2c0,0,0,0,0-.1l-.2.2s0,0,.1,0l-.3.2s0,0,0,0l-.3.2s0,0,.1,0h-.4c0,.1,0,0,0,0h-.4c0,0,0,0,.1,0h-.4s.1,0,.1,0h-.3c0,0,.1,0,.2,0h-.2c0,0,.2,0,.2,0h-.2c.1,0,.2,0,.3.1h0c0,0,0,0,0,.2v-.2c0,0,0,.1,0,.2v-.2c.1,0,0,0,0,0l.2-.2s0,0,0,0l.3-.2s0,0,0,0l.3-.2s0,0,0,0h.4c0-.1,0-.1,0-.1h.4c0,0,0,0,0,0h.4s0,0,0,0h.3,0,.2s0,0,0,0c-.1,0-.3,0-.4,0s-.4,0-.5,0c-.2,0-.4,0-.6.2-.2,0-.4.1-.5.2l-.3.2c-.1,0-.2.2-.3.3v.2c0,.1.1.2.2.2h0Z"/>
      <path class="cls-7" d="M279.9,596.5c.2.1.6.1.9.1.2,0,.3,0,.5,0,0,0,0,0,0,0,.1,0,.3,0,.4-.2.3-.1.5-.3.7-.5.2-.2.3-.4.4-.7,0-.1,0-.3,0-.5,0,0,0,0,0-.1,0-.1-.1-.2-.2-.3-.2-.3-.5-.5-.9-.6-.4-.1-.8-.2-1.1-.1-.4,0-.8.1-1.2.3-.3.2-.5.3-.7.5s-.2.3-.3.4c0,.1-.1.3-.1.4,0,.2,0,.3,0,.5,0,0,0,.2,0,.2,0,.1.1.3.2.4.3.4.7.5,1.1.6.2,0,.4,0,.6,0,.2,0,.4,0,.6-.2.2,0,.3-.2.5-.3.1,0,.2-.2.3-.4v-.3c0-.2,0-.4,0-.5-.2-.2-.5-.3-.8-.4h0,.3c0,0,0,0-.1,0h.3c0,.1,0,0-.1,0l.2.2c0,0-.1-.1-.1-.2v.2c0,0,0-.2,0-.3v.3c0,0,0-.2,0-.2v.3c0,0,0-.1,0-.2l-.2.3s0,0,.1-.1l-.2.2s0,0,.1,0l-.3.2s.1,0,.1,0h-.4c0,.1.1.1.2.1h-.4c0,0,.1,0,.2,0h-.4c0,0,.1,0,.2,0h-.3c0,0,.1,0,.2,0h-.3c0,0,.1,0,.2,0l-.2-.2s0,0,.1.2v-.2c0,0,0,.1,0,.2v-.3s0,0,0,.1v-.3c0,0,0,0,0,0l.2-.3s0,0,0,0l.2-.2s0,0,0,0l.3-.2s0,0,0,0h.4c0-.1,0-.1,0-.1h.4c0,0,0,0,0,0h.4,0,.3c0,0,0,0,0,0-.2,0-.3,0-.5,0-.2,0-.4,0-.6,0-.2,0-.4.1-.5.2-.2,0-.3.2-.4.3-.2.2-.3.5-.2.8v.2c.2.2.4.3.6.3h0Z"/>
      <g class="cls-2">
        <text class="cls-4" transform="translate(287.8 574)"><tspan x="0" y="0">Providing the customers a authentic Japanese dining high high-quality</tspan></text>
        <text class="cls-4" transform="translate(287.8 586.3)"><tspan x="0" y="0">Trained new employees respectfully through positive reinforcement</tspan></text>
        <text class="cls-4" transform="translate(287.8 598.5)"><tspan x="0" y="0">Guided guests through menus while demonstrating knowledge of the food</tspan></text>
      </g>
    </g>
    <path class="cls-12" d="M690.6,570.4c.7,33.8-2.3,71.1-16.4,102.2-6.2,13.2-13.7,27.9-27.6,34.2-9.4,4-20.5,1.9-28.6-3.9-14-10-21.1-28.9-38.7-33.8-4.7-1.4-9.8-1.5-14.7-.8-2.4.3-4.9.9-7.2,1.8-7.8,2.8-14.2,8.4-20.3,13.8-4.9,4.4-9.9,8.8-15.3,12.6-7.5,5.4-15.7,9.9-24.4,13-12.9,5.5-25.1,4.7-38.5,1.5-15.2-3.7-29.6-10.2-43.7-16.9-69.7-31.3-181.8-116.5-252.6-118.1-34.1-.3-58.1,20.8-69.6,52-3.7,9.7-6.2,19.8-7.8,30.1h-.5c1.5-10.4,3.9-20.6,7.6-30.4,7.2-19.5,20.4-37.8,39.8-46.4,29.5-13.5,62.6-2.3,90.8,9.2,57.4,24.7,109.9,59.3,164.8,88.8,27.1,14.6,55.6,29.9,86.6,33.4,5.1.4,10.4,0,15.3-1.3,4.8-1.4,9.6-3.2,14.2-5.1,5.7-2.5,12.1-6.2,17.5-10.1,8.1-5.7,15.2-12.7,23-18.9,3.9-3,8.2-5.8,12.8-7.5,2.3-.9,4.8-1.5,7.2-1.8,4.9-.8,10-.7,14.8.7,10.7,2.8,18.2,11.6,25,19.8,4.3,5,8.6,10.1,14,13.9,8,5.6,18.8,7.6,27.9,3.7,14.9-7,22.6-24.2,29.1-38.4,7.5-18.3,11.3-38,13.2-57.7,1.3-13.2,1.8-26.4,1.5-39.6h.5Z"/>
    <g class="cls-2">
      <text class="cls-6" transform="translate(131.1 674)"><tspan x="0" y="0">August 2023 - Present</tspan></text>
    </g>
    <g class="cls-2">
      <text class="cls-4" transform="translate(132 693.9)"><tspan x="0" y="0">London, UK</tspan></text>
    </g>
    <path class="cls-12" d="M87,715c-2.1,12.5-3.8,25.1-4.6,37.8,0,1.6-.2,3.2-.3,4.7v4.8c-.2,3.2,0,6.3,0,9.5.4,6.3,1,12.6,2.6,18.7,1.6,6.1,4.2,12,8.4,16.6,2.1,2.3,4.6,4.2,7.4,5.6,2.8,1.3,5.9,2.1,9,2.4,3.1.3,6.3.1,9.4-.2,3.1-.4,6.2-1,9.3-1.8,6.1-1.6,12.1-3.6,18.1-5.7,6-2.1,12-4.2,18.1-6,6.1-1.8,12.3-3.2,18.7-3.5,3.2-.2,6.4,0,9.5.6,3.1.6,6.1,1.7,8.9,3.2,1.3.9,2.7,1.7,3.9,2.7,1.2,1,2.4,2.1,3.4,3.3,2.1,2.4,3.8,5.2,5.1,8.1,2.6,5.8,3.9,12.1,5.5,18.2.8,3.1,1.7,6.1,2.9,9,1.2,2.9,2.7,5.7,4.7,8.1,3.9,4.9,9.6,8,15.7,9.7,1.5.5,3,.8,4.6,1.1.8.1,1.6.2,2.3.3.8.1,1.6.2,2.4.3l2.4.2c.8,0,1.6,0,2.4,0,1.6,0,3.1-.2,4.7-.2s1.6-.2,2.4-.3c.8-.1,1.6-.2,2.3-.4,1.5-.3,3.1-.6,4.6-1.1.8-.2,1.5-.4,2.3-.7l2.2-.8,1.1-.4,1.1-.5,2.1-1c2.8-1.5,5.5-3,8-5,1.3-.9,2.4-2,3.6-3.1l.9-.8c.3-.3.5-.6.8-.9l1.6-1.7c4.1-4.8,6.9-10.5,8.9-16.5,1.9-6,3-12.3,3.6-18.6,1.3-12.6,1-25.3,1.6-38,.3-6.3.8-12.7,2-18.9.6-3.1,1.5-6.2,2.5-9.2,1.2-3,2.5-5.9,4.2-8.5.5-.7.8-1.4,1.3-2l1.5-1.9c.2-.3.5-.6.8-.9l.9-.8,1.7-1.7c.6-.5,1.2-1,1.9-1.5.6-.5,1.2-1,1.9-1.4l2-1.3c.7-.4,1.4-.8,2.1-1.1,5.7-2.9,12.1-4.2,18.5-4.4,3.2,0,6.4.1,9.6.5,3.1.4,6.3,1.1,9.4,2,6.1,1.9,11.9,5,16.9,8.9,10.2,7.8,18,18.4,23.2,30,2.6,5.8,4.6,11.9,5.8,18.2,1.2,6.3,1.4,12.7.9,19.1h-.5c1-12.7-1.6-25.4-6.9-36.9-5.3-11.5-13-21.9-23.1-29.6-5-3.8-10.6-6.8-16.6-8.8-3-1-6.1-1.6-9.2-2.1-3.1-.4-6.3-.7-9.4-.6-6.3,0-12.6,1.4-18.3,4.2-.7.4-1.4.7-2.1,1.1l-2,1.2c-.7.4-1.3.9-1.9,1.4-.6.5-1.3.9-1.9,1.5l-1.7,1.6-.9.8c-.3.3-.5.6-.8.9l-1.5,1.8c-.5.6-.9,1.3-1.3,2-1.8,2.6-3.1,5.5-4.2,8.5-1,3-1.9,6-2.5,9.2-1.3,6.2-1.8,12.6-2,18.9-.6,12.7,0,25.4-1.2,38.1-.6,6.3-1.6,12.7-3.5,18.8-1.9,6.1-4.7,12-8.9,16.9-4.1,5-9.4,8.8-15.2,11.5-5.8,2.6-12.1,4.3-18.4,5-6.3.6-12.8.5-19-1.2-.8-.2-1.6-.4-2.3-.7l-2.3-.8c-.8-.3-1.5-.7-2.2-1l-1.1-.5c-.4-.2-.7-.4-1-.6-2.8-1.7-5.2-3.8-7.3-6.3-2-2.5-3.5-5.4-4.7-8.4-1.2-3-2-6.1-2.8-9.2-1.5-6.2-2.7-12.4-5.2-18.2-1.3-2.9-2.9-5.7-4.9-8-1.1-1.2-2.2-2.3-3.4-3.3-1.2-1-2.6-1.8-3.9-2.7-2.8-1.5-5.8-2.6-8.9-3.3-3.1-.5-6.3-.7-9.5-.5-6.3.4-12.5,1.8-18.6,3.7-6.1,1.8-12,4-18,6.1-6,2.1-12,4.3-18.1,5.9s-6.2,1.5-9.4,1.9c-3.2.4-6.4.6-9.6.3-3.2-.3-6.4-1.1-9.3-2.4-2.9-1.4-5.5-3.4-7.8-5.7-4.4-4.8-7-10.9-8.6-17-1.6-6.2-2.2-12.6-2.6-18.9,0-3.2-.2-6.4,0-9.5v-4.8c.2-1.6.3-3.2.4-4.8.8-12.7,2.7-25.3,4.9-37.8h.5c0,0,0,0,0,0Z"/>
    <path class="cls-7" d="M134.9,708.5c.2.1.5.1.8.1.4,0,.9,0,1.3-.3.5-.2.9-.5,1.1-1,0-.1,0-.2,0-.4,0-.1-.1-.3-.2-.4,0,0-.1-.1-.2-.2-.1,0-.3-.2-.4-.2s-.3,0-.5-.1c-.3,0-.6,0-.9,0-.5,0-1,.2-1.5.5-.3.2-.6.4-.8.7,0,.1-.1.2-.2.3s0,.3,0,.4c0,.2.1.4.2.6.2.2.5.4.8.4.4,0,.7,0,1.1,0,.2,0,.4-.1.5-.2.2,0,.3-.2.4-.3l.2-.2c.1-.1.1-.2.1-.4,0-.2-.3-.3-.6-.3,0,0,0,0,0,0h.3c0,0,0,0-.1,0h.2c0,0-.1,0-.2,0v.2c0-.1,0-.2,0-.4v.2c0,0,0-.2,0-.3v.2c0,0,0-.1,0-.2l-.2.2s0,0,.1,0l-.3.2s0,0,.1,0l-.3.2s0,0,.1,0h-.4c0,.1,0,.1.1,0h-.4c0,0,0,0,.1,0h-.4c0,0,.1,0,.2,0h-.3c0,0,.1,0,.2,0h-.3c0,0,.2,0,.2,0h-.2c0,0,.1,0,.2,0v-.2c0,0,0,.2,0,.2v-.2s0,0,0,.2v-.2c.1,0,0,0,0,0l.2-.2s0,0,0,0l.3-.2s0,0,0,0l.3-.2s0,0,0,0h.4c0-.1,0-.1,0-.1h.4c0,0,0,0,0,0h.4s0,0,0,0h.3s0,0,0,0h.3c0,0,0,0,0,0-.1,0-.3,0-.4,0-.2,0-.4,0-.5,0-.2,0-.4,0-.6.1-.2,0-.4.1-.5.2l-.3.2c-.1,0-.2.2-.3.4v.2c0,.1.1.2.3.3h0Z"/>
    <path class="cls-7" d="M135.2,720.8c.2.1.6.1.9.1.2,0,.3,0,.5,0,0,0,0,0,0,0,.1,0,.3,0,.4-.2.3-.1.5-.3.7-.5.1-.1.2-.3.3-.4.1-.3.1-.4,0-.7,0,0,0,0,0-.1,0-.1-.1-.2-.2-.3-.1-.1-.2-.2-.4-.3-.1,0-.2-.1-.4-.2,0,0,0,0-.1,0-.4-.1-.8-.2-1.1-.1-.4,0-.8.1-1.2.3-.3.2-.5.3-.7.5s-.2.3-.3.4c-.2.3-.2.6-.1.9,0,0,0,.2,0,.2,0,.1.1.3.2.4,0,0,.2.2.3.3,0,0,0,0,0,0,.3.2.5.2.8.3.2,0,.4,0,.6,0,.2,0,.4,0,.6-.2.2,0,.3-.2.4-.3.1,0,.2-.2.3-.4v-.3c.1-.2,0-.4,0-.5-.2-.2-.5-.4-.8-.4h0,.3c0,0,0,0-.1,0h.3c0,.1,0,0-.1,0l.2.2c0,0,0-.1-.1-.2v.2c0,0,0-.2,0-.3v.3c0,0,0-.2,0-.2v.3c0,0,0-.1,0-.2l-.2.3s0,0,.1-.1l-.2.2s0,0,.1,0l-.3.2s.1,0,.1,0h-.4c0,.1.1.1.2,0h-.4c0,0,.1,0,.2,0h-.4c0,0,.1,0,.2,0h-.3c0,0,.1,0,.2,0h-.3c0-.1.1,0,.2,0l-.2-.2s0,0,.1.1v-.2c0,0,0,.1,0,.2v-.3s0,0,0,.1v-.3c0,0,0,0,0,0l.2-.3s0,0,0,0l.2-.2s0,0,0,0l.3-.2s0,0,0,0h.4c0-.1,0-.1,0-.1h.4c0,0,0,0,0,0h.4,0,.3c0,0,0,0,0,0-.2,0-.3,0-.5,0-.2,0-.4,0-.6,0-.2,0-.4.1-.5.2-.2,0-.3.2-.4.3-.2.2-.3.5-.2.8v.2c.2.2.4.3.6.3h0Z"/>
    <path class="cls-7" d="M134.9,732.5c.2.1.5.2.8.2.3,0,.5,0,.8,0,0,0,0,0,0,0,.1,0,.3,0,.4-.1.3-.1.5-.3.7-.5.2-.2.3-.3.4-.6.1-.3,0-.6-.2-.8-.2-.3-.5-.4-.8-.5-.4-.1-.8-.1-1.1,0-.5,0-1,.2-1.5.5-.1,0-.3.2-.4.3,0,0-.1.1-.2.2,0,0-.1.1-.2.2-.2.3-.2.5-.2.8,0,.2.1.4.3.6,0,.1.2.2.3.3.1,0,.2,0,.4.1.1,0,.3,0,.4,0,.2,0,.4,0,.6,0,.2,0,.4,0,.6-.2.2,0,.3-.2.4-.3.1,0,.2-.2.3-.3.1-.2.2-.5,0-.7l-.2-.2c-.2,0-.4-.1-.6-.2h0c.1,0,.2,0,.3,0,0,0,0,0,0,0h.3c0,0-.1,0-.1,0l.2.2c0,0-.1-.1-.1-.2v.2c0,0,0-.2,0-.3v.2c0,0,0-.2,0-.2v.2c0,0,0-.1,0-.2l-.2.2s0,0,.1-.1l-.3.2s0,0,.1,0l-.3.2s0,0,.1,0h-.4c0,.1.1,0,.1,0h-.4c0,0,.1,0,.1,0h-.4c0,0,.1,0,.2,0h-.3c0,0,.1,0,.2,0h-.3c0,0,.1,0,.2,0l-.2-.2c0,0,.1.1.2.2v-.2c0,0,0,.1,0,.2v-.2s0,0,0,.1v-.2c0,0,0,0,0,0l.2-.2s0,0,0,0l.3-.2s0,0,0,0l.3-.2s0,0,0,0h.4c0-.1,0-.1,0-.1h.4c0,0,0,0,0,0h.4s0,0,0,0h.3s0,0,0,0h.3c0,0,0,0,0,0-.3-.1-.6-.2-1-.1-.2,0-.4,0-.6.1-.2,0-.4.1-.5.2l-.3.2c-.1.1-.2.3-.3.5v.2c0,.2.2.3.3.3h0Z"/>
    <g class="cls-2">
      <text class="cls-4" transform="translate(135 710.2)"><tspan x="0" y="0" xml:space="preserve">  Graphic Design</tspan></text>
      <text class="cls-4" transform="translate(135 722.5)"><tspan x="0" y="0" xml:space="preserve">  English Literature</tspan></text>
      <text class="cls-4" transform="translate(135 734.7)"><tspan x="0" y="0" xml:space="preserve">  Photography</tspan></text>
      <text class="cls-4" transform="translate(135 747)"><tspan x="0" y="0" xml:space="preserve">  Catering</tspan></text>
      <text class="cls-4" transform="translate(135 759.2)"><tspan x="0" y="0" xml:space="preserve">  Illustrations</tspan></text>
    </g>
    <circle class="cls-13" cx="85.1" cy="686.6" r="28.5"/>
    <g class="cls-2">
      <text class="cls-1" transform="translate(79.1 694.4)"><tspan x="0" y="0">5</tspan></text>
    </g>
    <path class="cls-11" d="M413.9,805.7c.6,0,1.5-.1,2-.5.4-.3.5-.7-.2-.7s-1.5.1-2,.5c-.4.3-.5.7.2.7h0Z"/>
    <path class="cls-11" d="M413.7,816c.6,0,1.5-.2,2-.5.4-.3.5-.6-.1-.6s-1.5.2-2,.5c-.4.3-.5.6.1.6h0Z"/>
    <path class="cls-11" d="M413.7,823c.6,0,1.5-.1,2-.5.4-.3.5-.6-.2-.6s-1.5.1-2,.5c-.4.3-.5.6.2.6h0Z"/>
    <path class="cls-11" d="M414.1,829.4c.6,0,1.6-.2,1.9-.8s-.2-.8-.8-.8-1.6.2-1.9.8.2.8.8.8h0Z"/>
    <path class="cls-11" d="M413.6,835.9c.6,0,1.5-.1,2-.5.4-.3.5-.7-.2-.7s-1.5.1-2,.5c-.4.3-.5.7.2.7h0Z"/>
    <path class="cls-12" d="M640.2,330c0,16.9,0,33.8.1,50.8,0,.2.3.2.4.2,17.7.2,35.4.4,53.1.5.3,0,1-.2,1-.6,0-17.3,0-34.5,0-51.8,0-.2-.3-.2-.4-.2-17.7.2-35.4.3-53.2.5-.5,0-1.6.8-.6.7,17.7-.2,35.4-.3,53.2-.5l-.4-.2c0,17.3,0,34.5,0,51.8l1-.6c-17.7-.2-35.4-.4-53.1-.5l.4.2c0-16.9,0-33.8-.1-50.8,0-.4-1.5-.1-1.5.4h0Z"/>
    <g>
      <path class="cls-12" d="M649.6,338.7c-.4,2.8-.5,5.6-.2,8.5.2,2.2,1,3.9,3.1,4.8,1.6.6,3.3.5,4.8-.3,1.6-.8,2.4-2.2,2.8-3.9.8-3,.8-6.2.3-9.3,0-.5-1.5-.2-1.5.4.4,2.4.4,4.8,0,7.2-.2,1.4-.5,3.3-1.6,4.3s-2.4,1.2-3.8.7c-1.9-.7-2.6-2.2-2.8-4.1-.3-2.8-.2-5.7.2-8.5,0-.6-1.4-.4-1.5.2h0Z"/>
      <path class="cls-12" d="M666.9,351.3c0-2.2,0-4.5-.1-6.8,0-1.5-.2-3,0-4.4,0-.1,0-.3,0-.4,0-.1,0,0,0,0,0-.1-1.2.1-1.1.3.2.5.6,1,.8,1.5.9,1.7,1.7,3.5,2.6,5.2s1.9,3.4,3.1,5c.1.2.6,0,.8,0,.8-.2,1-.7,1-1.4s0-1.4,0-2.1c0-2.9,0-5.8.1-8.8,0-.4-1.4-.1-1.5.4,0,2.7,0,5.4-.1,8.1,0,.8,0,1.5,0,2.3,0,.2,0,1-.1,1.1l.5-.2h-.1s.8,0,.8,0c-2.5-3.3-4.1-7.1-6-10.8-.2-.4-.4-.9-.8-1-.5-.1-1.2.1-1.4.6-.2.3-.2.8-.2,1.1,0,.8,0,1.5,0,2.3,0,2.8.1,5.6.1,8.4,0,.4,1.5.1,1.5-.4h0Z"/>
      <path class="cls-12" d="M681,339c0,4.1,0,8.2,0,12.3,0,.3,1.5.1,1.5-.4,0-4.1,0-8.2,0-12.3,0-.3-1.5-.1-1.5.4h0Z"/>
      <path class="cls-12" d="M678.9,352.1c1.5-.1,3-.1,4.6,0,.3,0,.8,0,1-.3.2-.2.2-.3,0-.4-1.6-.1-3.3-.2-4.9,0-.3,0-.7.1-1,.4s.2.3.4.3h0Z"/>
      <path class="cls-12" d="M664.3,358.3c0,4,0,7.9.2,11.9,0,.2.3.2.4.2,2.2,0,4.5,0,6.7,0,.3,0,.8,0,1-.4.1-.3-.1-.4-.4-.4-2.2.1-4.5.1-6.7,0l.4.2c-.2-3.9-.3-7.8-.2-11.7,0-.6-1.4-.2-1.4.2h0Z"/>
      <path class="cls-12" d="M680.9,372.5c3.1-.2,5.2-2.9,5.9-5.7.6-2.6.1-5.3-1.6-7.3-.8-1-2-1.8-3.3-2-1.5-.2-3.1.3-4.2,1.3-2.2,1.8-3.1,4.6-2.8,7.4.3,3.1,2.4,6.3,5.8,6.3.3,0,.8,0,1-.4.1-.3-.1-.5-.4-.5-2.4,0-4.1-2.2-4.7-4.4-.6-2.4-.2-5.2,1.3-7.1.7-.8,1.6-1.6,2.7-1.7,1.2-.1,2.3.5,3.1,1.4,1.4,1.5,2.1,3.5,2,5.5-.1,2.5-1.6,6.1-4.6,6.3-.8,0-1.2,1-.2.9h0Z"/>
      <path class="cls-12" d="M653.7,372.7c3.1-.2,5.3-2.5,6.1-5.4.7-2.6.2-5.3-1.4-7.4-.8-1-1.9-1.8-3.2-2-1.5-.3-3.1.3-4.3,1.2-2.2,1.7-3.1,4.6-2.9,7.3.2,3.1,2.4,6.4,5.8,6.4.3,0,.8-.1,1-.4s-.1-.4-.4-.4c-2.4,0-4.2-2.3-4.7-4.5-.6-2.4-.2-5.2,1.4-7.2.6-.8,1.5-1.6,2.5-1.7,1.2-.1,2.3.5,3.1,1.3,1.4,1.4,2.1,3.4,2.1,5.4,0,1.6-.5,3.3-1.4,4.6-.7,1-1.7,1.9-3,2-.3,0-.8,0-1,.4-.1.3.1.4.4.4h0Z"/>
      <path class="cls-12" d="M654.6,367.7c1.8,1.2,3.5,2.5,5.1,3.8.4.3,1.8-.3,1.1-.8-1.7-1.3-3.4-2.6-5.1-3.8-.3-.2-.8,0-1,.1-.2.2-.4.5,0,.7h0Z"/>
      <path class="cls-12" d="M679.2,338.7c1.5-.1,3-.1,4.5,0,.3,0,.8-.1,1-.4s-.1-.5-.4-.6c-1.6-.1-3.3-.2-4.9,0-.3,0-.8.2-.8.6s.4.5.7.4h0Z"/>
    </g>
    <g class="cls-2">
      <text class="cls-4" transform="translate(461 301.5)"><tspan x="0" y="0">　Providing excellent customer service</tspan></text>
      <text class="cls-4" transform="translate(461 313.7)"><tspan x="0" y="0">　Charging of inventory control and receiving business orders </tspan></text>
      <text class="cls-4" transform="translate(461 326)"><tspan x="0" y="0">　Training of new employee</tspan></text>
    </g>
    <path class="cls-12" d="M409.8,305.2c2.9,11.2,1.5,23.9-5.4,33.4-9.5,13.5-30.3,19.5-45.9,21.8-17.1,2.2-35.2,1.3-50.9-6.4-1.2-.5-2.8-1.4-3.9-1.9-6.6-3-12.5-7.3-17.8-12.3-6.2-5.9-12-12.7-19.9-16.3-10.3-4.6-22.8-6.3-33.4-1.9-10.7,4.5-17.6,14.9-20.6,25.8-1.5,5.5-2.2,11.2-2.2,17h-.5c-.2-5.8.3-11.6,1.8-17.2,4.8-18.1,19-30.7,38.3-28.3,5.7.6,11.4,2.1,16.7,4.4,5.3,2.4,9.9,6.1,14.1,10,8.3,8,17.1,15.5,27.6,20.2,3.7,1.6,8.3,3.1,12.2,4.1,18,5,37.5,4.6,55.2-1.3,10.6-3.8,21.7-8.8,28.4-18.2,6.7-9.3,8.2-21.6,5.7-32.7h.5q0-.1,0-.1Z"/>
    <path class="cls-7" d="M135.3,745.9c.2.1.6.2.9.1.3,0,.6-.1.9-.2.3-.1.5-.3.7-.5.1-.1.2-.3.3-.4.1-.3.1-.5,0-.8,0-.1-.1-.3-.2-.4,0,0,0,0,0-.1-.2-.3-.5-.5-.9-.6s-.4-.1-.5-.1c-.1,0-.3,0-.5,0h-.1c-.4,0-.8.1-1.2.3-.3.2-.5.3-.7.6-.1.1-.2.3-.3.4,0,.1-.1.3-.1.5,0,.2,0,.3,0,.5s0,.2,0,.2c0,.2.1.3.2.4.3.4.7.6,1.2.7.2,0,.4,0,.6,0,.2,0,.4,0,.6-.2.2,0,.3-.2.4-.3.1-.1.2-.2.3-.4.1-.3.1-.6,0-.8s-.5-.4-.8-.5h0,.3c0,0,0,0-.1,0l.3.2s0,0-.1,0l.2.2c0,0,0-.1-.1-.2v.3c0,0,0-.2,0-.3v.3c0,0,0-.2,0-.2v.3c0,0,0-.1,0-.2l-.2.3s0,0,.1-.2l-.2.2s0,0,.1,0l-.3.2s.1,0,.1,0h-.4c0,.1.1.1.2,0h-.4c0,0,.1,0,.2,0h-.4c0,0,.1,0,.2,0h-.3c0,0,.1,0,.2,0l-.3-.2c0,0,.1,0,.2.1l-.2-.2s0,0,.1.2v-.3c-.1,0-.1,0,0,.2v-.3s0,0,0,.1v-.3c0,0,0,0,0,0l.2-.3s0,0,0,0l.2-.2s0,0,0,0l.3-.2s0,0,0,0h.4c0-.1,0-.1,0-.1h.4c0,0,0,0,0,0h.4,0,.3c0,0,0,0,0,0-.2,0-.3,0-.5,0-.2,0-.4,0-.6,0-.2,0-.4.1-.5.2-.2,0-.3.2-.4.3-.2.2-.3.6-.2.9v.3c.3.2.4.3.6.4h0Z"/>
    <path class="cls-7" d="M134.9,757.8c.2.1.5.1.8.1.4,0,.9-.1,1.3-.3.2,0,.6-.2.7-.4.2-.2.3-.3.4-.5,0-.1,0-.2,0-.4,0-.1-.1-.3-.2-.4,0,0-.1-.1-.2-.2-.1,0-.3-.2-.4-.2-.9-.3-2,0-2.8.4-.1,0-.2.1-.3.2,0,0,0,0-.1,0-.1,0-.2.2-.3.3,0,.1-.1.2-.2.3s0,.3,0,.4c0,.2.1.4.2.5,0,0,.1,0,.2.1.2.1.4.2.6.2.4,0,.7,0,1.1,0,.2,0,.4-.1.5-.2.2,0,.3-.2.4-.3l.2-.2c.1-.1.1-.2.1-.4,0-.2-.3-.3-.6-.3,0,0,0,0,0,0h.3c0,0,0,0-.1,0h.2c0,0-.1,0-.2,0v.2c0-.1,0-.3,0-.4v.2c0,0,0-.2,0-.3v.2c0,0,0-.1,0-.2l-.2.2s0,0,.1,0l-.3.2s0,0,.1,0l-.3.2s0,0,.1,0h-.4c0,.1,0,.1.1,0h-.4c0,0,0,0,.1,0h-.4c0,0,.1,0,.1,0h-.3c0,0,.1,0,.2,0h-.3c0,0,.2,0,.2,0h-.2c0,0,.1,0,.2,0v-.2c0,0,0,.2,0,.2v-.2s0,0,0,.2v-.2c.1,0,0,0,0,.1l.2-.2s0,0,0,0l.3-.2s0,0,0,0l.3-.2s0,0,0,0h.4c0-.1,0-.1,0-.1h.4c0,0,0,0,0,0h.4s0,0,0,0h.3s0,0,0,0h.3c0,0,0,0,0,0-.1,0-.3,0-.4,0-.2,0-.4,0-.5,0-.2,0-.4,0-.6.1-.2,0-.4.1-.5.2l-.3.2c-.1,0-.2.2-.3.4v.2c0,.1.1.2.3.3h0Z"/>
  </g>
  <path class="cls-9" d="M118.3,400.6l-9.1.6-2.1,9.6c-1.4,3.9-2.7,7.8-4.1,11.7.2,5.7,3.3,10.6,7.8,12.2,4.8,1.8,9.5-.8,10.7-1.4,2.9-1.5,4.6-3.7,5.5-4.9h0s.6-.8.6-.9c.3-.4.6-1.9.9-6.4,2.5-1.2,3-1.9,2.9-2.3-.1-.5-1.1-.6-2.8-1.8-.3-.2-.5-.4-.7-.5l-1-6.2c-.1-.9-.7-4.9-4.2-7.6-1.7-1.3-3.4-1.8-4.5-2h0Z"/>
  <g>
    <g>
      <path class="cls-10" d="M79.3,485c-2.3-.1-2.8,3.8-5.8,4.4-1.2.2-1.8-.2-3.6.2-.8.1-1.5.5-2.2,1-1.1.7-2.2,1.5-2.6,2.7s.1,2.8,1.4,3.1c.4,0,.8,0,1.1,0,1.7-.2,3.5-.7,5.1-1.4,6.5-2.9,6.9-2.5,7.8-3.8,1-1.5,1.6-3.9.6-5.2,0-.1-.7-.8-1.6-.9h0Z"/>
      <path class="cls-7" d="M79.5,484.8c-1.2,0-2,.7-2.7,1.6-1,1.3-1.9,2.8-3.8,2.8-.7,0-1.4,0-2.1,0-1,0-1.9.3-2.8.8-1.5.8-3.4,2.1-3.5,3.9,0,1.6,1.1,2.7,2.7,2.5,2.4-.3,4.6-1,6.8-2,1.5-.6,2.9-1.2,4.4-1.8.6-.2,1.2-.5,1.8-.9,1.9-1.7,2.8-6.6-.6-7-.2,0-.8.3-.4.4,3.1.3,2.2,4.8.6,6.3-.3.3-.8.5-1.2.7-1,.4-1.9.8-2.9,1.2-1.8.8-3.6,1.7-5.5,2.2-.5.1-1.1.3-1.6.3s-1.3.3-1.8.2c-.8-.2-1.3-1-1.4-1.8-.2-2,1.9-3.4,3.5-4.1s3-.3,4.5-.5c1.2-.2,2.2-.9,3.1-1.8.7-.8,1.5-2.6,2.8-2.6.3,0,.8-.4.3-.4h0Z"/>
    </g>
    <g>
      <path class="cls-7" d="M95.7,444.5c.7.6,1.6,1.6,2.9,2.7,2,1.8,2.6,1.9,2.9,2.5.6,1.2-.4,3.7-7.1,9.4-.3,2.3-.3,5.8,1.7,8.7,3.6,5,11.3,4.9,11.2,5.9-.1.9-6.7-.8-14.2,2.1-4.6,1.7-7.1,4.2-10.4,4.8-.3,0-1.4.3-2.2,1.2-.7.8-.7,1.8-.8,2.9-.1,3.7.3,8.2,3.7,9.6,1.7.7,3.5.3,5.3,0,9.7-2.1,19.2-5,28.5-8.4,2-.8,4.8-1.3,7.1-3.7,0,0,2.4-2.6,3.1-7.1,1-6.7-5.1-16.5-15.9-24.9-1-.8-1.9-1.4-2.8-1.9-4.9-2.8-9.7-3.5-12.9-3.6h0Z"/>
      <path class="cls-7" d="M95.3,444.6c1.3,1.3,2.6,2.5,4.1,3.7.6.5,1.5.9,1.7,1.6.5,1.3-.8,2.8-1.5,3.7-1,1.2-2.2,2.4-3.3,3.5-.3.3-.6.6-1,.9s-1.1.7-1.3,1.1c-.2.4-.2,1.1-.2,1.6-.1,3.2.7,6.5,3.1,8.7,1.8,1.7,4.3,2.7,6.6,3.3.9.2,1.9.4,2.7.7,1,.4-.1.4-.6.4-2.9,0-5.8,0-8.7.6-3.6.7-6.8,2.3-10,4.1-1.4.8-2.8,1.5-4.4,1.9-1.1.3-2.1.7-2.7,1.8-.6,1.2-.5,2.8-.5,4.1,0,1.5.2,3.1.7,4.5,1,2.8,3.2,4.2,6.2,4,1.9-.2,3.8-.7,5.6-1.1,2.2-.5,4.3-1.1,6.5-1.7,4.1-1.1,8.2-2.3,12.2-3.7,2.1-.7,4.2-1.5,6.3-2.2,1.5-.5,3-1,4.4-1.6,4.4-2.1,6.9-7.1,6.6-11.9-.4-5.9-4.4-11.3-8.3-15.5-5.2-5.8-11.5-10.8-19.3-12.2-1.4-.3-2.9-.4-4.4-.5-.3,0-.8.4-.3.4,3.6.2,7.1.9,10.4,2.4,3.7,1.7,6.8,4.3,9.8,7,4.5,4.3,9.1,9.5,10.8,15.6,1.3,4.5.1,10.3-3.8,13.3-1.4,1.1-3.1,1.7-4.8,2.2s-3.3,1.2-5,1.8c-4.1,1.5-8.3,2.8-12.5,4s-8,2.2-12.1,3c-2.1.5-4.5.7-6.2-.9-1-1-1.5-2.4-1.8-3.7s-.4-2.8-.3-4.2c0-.9,0-1.9.4-2.8.4-1,1.3-1.3,2.2-1.6,2.8-.7,5.1-2.3,7.7-3.6,3.7-1.9,7.8-2.8,11.9-2.9,1.2,0,2.3,0,3.5,0,.5,0,1.2,0,1.6-.2.9-.7-.9-1-1.3-1.2-2.2-.6-4.5-1.2-6.5-2.4-3-1.8-4.7-4.8-4.9-8.2,0-.8,0-1.7,0-2.5.2-1,1-1.5,1.8-2.1,1.1-1,2.2-2,3.2-3.2.9-1,2.2-2.4,2.3-3.9.1-1.4-1.2-1.9-2.1-2.7-1.3-1.1-2.6-2.3-3.8-3.5-.2-.2-.8,0-.7.3h0Z"/>
    </g>
    <g>
      <path class="cls-12" d="M47.6,499.9c1.8-2.2,3.8-4.4,5.9-6.4,1.3-1.2,2.9-2.5,4.4-2.5,1.1,0,1.8.8,2,1.8s0,2.1-.3,3.2c-.3,1.2-.6,2.5-1.3,3.7s-1.9,2.4-3.3,2.8"/>
      <path class="cls-9" d="M48,499.8c1.5-1.8,3.1-3.6,4.8-5.2.8-.8,1.6-1.6,2.4-2.2.9-.7,2.3-1.7,3.5-1,.8.5,1,1.5.9,2.4,0,1.2-.4,2.4-.7,3.5-.6,2.1-1.8,4.3-4,5.1-.5.2,0,.2.2.2,1.7-.6,3.1-2,3.8-3.6.5-1,.7-2,1-3.1.2-1,.5-2.1.4-3.1-.2-1.7-1.8-2.2-3.3-1.8-1.8.5-3.3,2-4.6,3.3-1.8,1.8-3.5,3.7-5.2,5.6,0,0,.6,0,.7-.1h0Z"/>
    </g>
    <g>
      <path class="cls-12" d="M103.9,472.7c5.7-5.3,10.6-9.7,14.3-13,8-7.2,10.4-9,14.1-11.3,5.2-3.2,11.3-5.7,16.9-5.6.8,0,1.6,0,2.2.4.6.4.9,1,1,1.7.7,3.3-.7,7.3-2.4,11-2.4,5.2-5.2,10.3-8.5,15.3-19.3,1.9-33.5,3.3-35.6,3.4-.7,0-1.7,0-2-.5-.3-.4,0-1,.2-1.4h0Z"/>
      <path class="cls-9" d="M104.2,472.7c6.7-6.2,13.4-12.4,20.4-18.3,5.2-4.5,11-8.5,17.7-10.4,2.3-.7,5-1.2,7.4-1,3,.3,2.6,4.3,2.1,6.5-1,4.9-3.7,9.7-6.1,14-1.3,2.4-2.6,5-4.3,7.2-.7.9-2.5.7-3.6.8-1.3.1-2.6.3-4,.4-4.5.4-9,.9-13.4,1.3-3.5.3-7,.7-10.6,1-1,0-2,.2-3,.3-1.3,0-3.6.3-2.7-1.7,0-.2-.6,0-.7.1-1.2,2.7,2.8,2,4.3,1.8,2.9-.2,5.9-.5,8.9-.8,4.8-.5,9.5-.9,14.3-1.4,2.8-.3,5.6-.5,8.3-.8.6,0,1.9,0,2.4-.3.4-.3.7-1,1-1.5.4-.6.8-1.3,1.2-1.9,3-4.9,5.9-10.1,7.9-15.5.8-2.3,1.5-4.9,1-7.4-.4-2.3-2.2-2.4-4.2-2.3-7.8.3-15.2,4.4-21.3,9.1-3.7,2.9-7.1,6-10.6,9.1-4.4,3.9-8.8,7.9-13.1,11.9-.2.2.5.1.7,0h0Z"/>
    </g>
    <g>
      <path class="cls-9" d="M59,498.6c21.4-12.4,39.2-19.3,51.7-23.3,26.9-8.6,46.2-9.2,46-7.2,0,.2-.3.6-.2,1,.4,1.1,3.1-.1,4.6.9.9.6.2,1.6,1,2.3,1,.8,2.8.3,4.2,0,1.4-.2,2.6-.2,3.6-.1,1.3.2,3.2.3,4.7,1.5.4.4,1.2,1.2,1.7,2.7,1.4,4.1,0,9.2-.4,10.5-2.5,6.8-24.9,32.5-63.3,35.3-3.7.3-15.9-.4-40.2-1.6-3.5-.2-9.7-.5-17.7-2-6.7-1.2-12.3-2.7-16.6-4.1.3-.7.6-1.4.9-2.1,4.6-8.3,16.5-12.8,19.8-13.9h0Z"/>
      <path class="cls-12" d="M59.2,498.6c23-13.3,47.9-23.9,74-29,5-1,10.1-1.8,15.2-2.1,1.6-.1,3.3-.2,5,0,.8,0,2,0,2.7.4.2.1.3.2.3.4.1.5-.4.7,0,1.2.2.3.5.3.8.3,1.2.2,3.4-.6,4.1.8.3.5,0,1.1.4,1.6s1,.6,1.5.7c1.3.1,2.7-.4,4-.5,1.7-.2,3.6,0,5.2.5,3.2,1,4.2,4.3,4.3,7.3.1,3.3-.6,6.6-2.4,9.5-1.5,2.4-3.4,4.6-5.4,6.7-6.3,6.6-13.8,12-21.8,16.2-10.6,5.5-22.6,9.1-34.6,9.7-2.5.1-4.9,0-7.4,0-4.7-.2-9.3-.4-14-.6-13.1-.7-26.3-.9-39.3-3.5-3.4-.7-6.7-1.5-10-2.5-.7-.2-1.3-.4-2-.6-.2,0-.8-.2-1-.3-.3-.4.1-1,.3-1.3.6-1.2,1.4-2.4,2.2-3.5,3.4-4.2,8.4-7.1,13.3-9.3,1.5-.7,2.9-1.2,4.4-1.8.5-.2,0-.2-.2-.2-8.1,2.8-17.7,7.6-21,16.1,0,0,0,0,0,0,11.3,3.6,23,5.5,34.8,6.1,10.8.6,21.6,1.2,32.5,1.6,2.3,0,4.6.2,6.8,0,5.3-.3,10.7-1.2,15.9-2.5,10-2.5,19.5-6.7,28.1-12.4,6.1-4.1,11.8-8.9,16.5-14.7,1.3-1.6,2.7-3.4,3.6-5.3,1.7-3.7,2.3-9.6-.3-13-1.4-1.9-3.7-2.2-5.9-2.4-1.3-.1-2.5,0-3.8.2-1,.2-2.3.6-3.3.1-.9-.5-.5-1.1-.8-1.8-.4-.9-1.5-1-2.4-1-.5,0-1,0-1.5,0s-.7,0-1-.2c-.5-.4.1-.9,0-1.3-.1-.4-.4-.5-.9-.6-2.2-.7-4.9-.4-7.2-.2-4.6.3-9.2,1-13.8,1.8-23.4,4.3-45.9,13.1-66.8,24.2-3.2,1.7-6.5,3.5-9.7,5.4-.3.2.4,0,.6,0h0Z"/>
    </g>
    <g>
      <path class="cls-12" d="M83.4,518.6c4.8-4.3,10-6.5,20.5-11,0,0,15.1-6.7,25-3.7.3,0,.6.2.6.5,0,.3-.2.6-.4.9-6.8,9.9-13.7,19.9-20.5,29.8-2.7,3.9-5.4,7.9-8.4,11.7-2.4,3.1-7.9,9.9-14.9,15.7-8.7,7.3-23.8,16.7-27.6,13.3-1.6-1.5-.3-4.7,7.7-23.2,11.3-26,13-29.6,17.9-34.1h0Z"/>
      <path class="cls-9" d="M83.7,518.6c5.8-5.2,13.4-7.9,20.4-10.9,5.4-2.3,11.2-4,17.1-4.3,2.1-.1,4.2,0,6.3.4.6.1,1.6.2,1.6,1,0,.4-.7,1.1-.9,1.5-.8,1.2-1.7,2.5-2.5,3.7-3.2,4.7-6.4,9.4-9.7,14.1-5.9,8.5-11.5,17.4-18.1,25.4-5.7,6.9-12.1,13.1-19.5,18.3-3.4,2.4-6.9,4.6-10.6,6.4-1.6.8-3.3,1.5-5,2-1.2.3-2.6.6-3.8.2-2.7-1-1-4.7-.3-6.4,2.8-7.8,6.3-15.3,9.6-22.8,2.8-6.4,5.5-12.9,8.7-19.1,1.5-2.9,3.1-5.7,5.4-8,.4-.5.9-.9,1.4-1.3.2-.1-.5,0-.7,0-2.3,2.1-4.1,4.5-5.6,7.2-3.2,5.7-5.7,11.8-8.3,17.7-3.7,8.5-7.6,16.9-10.9,25.6-.6,1.7-2.6,5.6-.6,7.1,1.8,1.2,4.6.4,6.4-.2,3.6-1.2,7-3.1,10.2-5.1,8-5,15.2-11.1,21.5-18.2,6.7-7.6,12.3-16.1,18-24.5,3.5-5,6.9-10.1,10.4-15.1,1.8-2.6,3.7-5.1,5.3-7.8.5-.8.6-1.2-.3-1.6s-1.8-.5-2.7-.6c-7-.9-14.4,1.1-20.9,3.6-2.8,1.1-5.6,2.3-8.4,3.5-3.6,1.5-7.1,3.2-10.4,5.3-1.3.9-2.6,1.9-3.7,2.9-.2.1.5,0,.7,0h0Z"/>
    </g>
    <g>
      <path class="cls-12" d="M160.1,479.2c-2.5,8.6-12.6,12.5-13.5,12.8-.3.1-.6.2-.7.2-2.3-2-2.7-3.5-2.6-4.5.2-3.4,5.5-4.4,9.4-10,1.6-2.3,2.3-4.3,2.7-5.7.6-.2,3-.6,4.4.7,1.7,1.6.8,4.8.3,6.3h0Z"/>
      <path class="cls-9" d="M159.7,479.2c-1.7,5.6-6.7,9.6-11.9,12-.5.2-1.1.6-1.6.7-.4,0-.4,0-.7-.4-.2-.2-.4-.4-.6-.6-.2-.3-.5-.6-.7-.9-.4-.6-.6-1.3-.7-2,0-2.7,3.4-4.3,5.2-5.8,3.3-2.6,5.8-6,6.9-10.1l-.3.3c1.8-.4,4-.2,4.8,1.7.6,1.6,0,3.5-.4,5.1-.1.3.6.2.7,0,.6-1.9,1.3-4.5-.1-6.2-1.2-1.5-3.4-1.5-5.1-1.1-.1,0-.3.1-.3.3-.8,2.7-2.2,5.3-4.1,7.3-1.6,1.8-3.7,3.1-5.6,4.7-1.1.9-2.3,2-2.4,3.5-.2,2,1.3,3.6,2.7,4.8,0,0,.2,0,.3,0,6.3-2.1,12.6-6.8,14.6-13.3.1-.3-.6-.2-.7,0h0Z"/>
    </g>
    <g>
      <path class="cls-12" d="M134.5,489.7c.1,0,.9-.4,1.7-.3,1.4.2,1.7,1.6,1.9,2.5.1.6.2,1.3,0,2-.2.7-.9,1.4-1.6,1.8-.3.1-.6.2-.9.3-.4.1-.9.3-1.2.6-.1,0-.2.2-.4.2-.2,0-.4,0-.4-.2-.4-.6-.6-1.3-.7-2-.6-2.7,0-3.2.2-3.5.6-.8,1.4-1.2,1.6-1.2h0Z"/>
      <path class="cls-9" d="M134.6,489.8c.6-.3,1.3-.4,1.9,0,.5.3.8.8,1,1.3.5,1.3.5,2.9-.5,4-.6.7-1.5.7-2.2,1.1-.2,0-.3.2-.5.2,0,0-.2.2-.3.2-.2,0,0,0,0,0-.2-.4-.4-.7-.6-1.1-.3-.8-.4-1.6-.5-2.4,0-.5,0-.9,0-1.4.2-.8,1.1-1.4,1.8-1.7.5-.2,0-.4-.3-.2-.8.4-1.8,1-2.1,1.9-.2.5-.2,1-.1,1.5,0,1,.3,2,.7,2.9.1.3.3.8.7,1s.8,0,1.1-.2c.5-.3.9-.5,1.4-.6.4-.1.9-.3,1.2-.6.7-.5,1.2-1.3,1.4-2.2.1-.7,0-1.5-.3-2.2s-.6-1.3-1.3-1.6c-.8-.3-1.8-.1-2.6.2-.5.2,0,.4.3.2h0Z"/>
    </g>
    <g>
      <path class="cls-12" d="M128.2,492.4c.2,0,.9-.3,1.4,0,0,0,.4.2.5,1.1.1,1,0,2.2-.4,3.3,0,.2-.1.4-.3.6-.1.2-.3.3-.5.4-.8.4-1.5.5-2.3.5-.3,0-.6,0-.8,0-.6-.2-.7-.8-.7-1.1,0-.3-.3-1.3.6-2.6.1-.2,1.1-1.7,2.6-2.1h0Z"/>
      <path class="cls-12" d="M128.2,492.5c.4,0,.8-.2,1.1.1.3.3.3,1,.4,1.4,0,.8,0,1.5-.2,2.2,0,.3-.2.7-.3,1-.2.4-.6.6-1,.7-.3.1-.7.2-1.1.2s-.8.1-1.1,0c-.4-.2-.6-.6-.6-1-.2-.9,0-1.8.6-2.6s1.3-1.6,2.2-1.9c0,0,.4,0,.3-.2s-.3,0-.4,0c-2,.6-3.9,2.8-3.5,5,.1.5.3,1,.9,1.1.4,0,.8,0,1.2,0,.4,0,.9-.1,1.3-.2.8-.2,1.6-.5,1.9-1.4s.5-1.7.5-2.6c0-.5,0-1.5-.5-1.8s-1.3-.2-1.8,0c0,0-.4,0-.3.2s.3,0,.4,0h0Z"/>
    </g>
    <g>
      <path class="cls-12" d="M116.1,495.5c.8-.5,1.4-.8,1.8-.9.4-.2.5-.2.5-.2.4,0,.6.3.8.6.5,1.2.5,2.7.1,4.2,0,.1,0,.3-.2.4-.2.2-.4.3-.7.4-.7.2-1.3.4-2,.6-.2,0-.4,0-.6,0-.2,0-.3-.2-.4-.4-.5-1-.1-2.6-.2-3.6,0,0,0-.3.2-.6.1-.2.2-.3.6-.5h0Z"/>
      <path class="cls-12" d="M116.4,495.5c.4-.3.9-.5,1.4-.7.1,0,.3-.1.5-.2,0,0,.1,0,0,0,.1,0,.2,0,.3.1.4.3.5,1,.6,1.5.1.6.1,1.2,0,1.8,0,.3,0,.7-.1,1,0,.3-.1.7-.4.9-.2.1-.5.2-.7.3-.3.1-.6.2-1,.3-.3,0-.7.2-.9,0-.2-.2-.3-.4-.3-.7-.1-.5-.1-1-.1-1.5,0-.5,0-1.1,0-1.6s0-.5.2-.7c.1-.2.4-.3.5-.4.1,0,0-.2,0-.2-.2,0-.4,0-.5.1-.4.3-.9.6-.9,1.1,0,.6,0,1.2,0,1.8s0,1.3.2,1.9c.3.7.9.6,1.5.5.8-.2,1.5-.4,2.2-.7.2-.1.5-.2.6-.5.2-.3.3-.8.3-1.2.1-.8.1-1.5,0-2.3,0-.5-.2-1.4-.7-1.7-.4-.3-1,0-1.5.1-.6.2-1.2.6-1.8,1-.1,0,0,.2,0,.2.2,0,.4,0,.5-.1h0Z"/>
    </g>
    <g>
      <path class="cls-12" d="M33.1,486c5.7,3,11.3,6.1,16.8,9.5,2.4,1.5,4.9,3.2,5.9,6.5.1.4.2.8,0,1.2-.2.5-.6.8-1,1-4.1,2-8.2,4-12.3,6.1-1,.5-2,1-3,1-1.7,0-3-1.6-4.1-3.2-3-4.6-5.5-9.9-7.3-15.7-.3-1-.6-2.2-.4-3.4.4-2.2,2.4-3.5,4-4.2.4.7,1,1.2,1.6,1.4"/>
      <path class="cls-9" d="M32.8,486.2c4.8,2.5,9.5,5.1,14.1,7.9,1.8,1.1,3.8,2.2,5.4,3.5,1.5,1.3,4.5,4.7,2.3,6.4-.9.8-2.4,1.2-3.5,1.7-1.2.6-2.5,1.2-3.7,1.8-1.1.5-2.2,1.1-3.3,1.6-1.4.7-3.2,2-4.8,1.7-2.2-.3-3.7-3.3-4.8-5-1.3-2.1-2.4-4.3-3.4-6.6-1.1-2.5-2.2-5.2-2.9-7.9-.8-3.2,1-5.2,3.7-6.5h-.5c.4.7.9,1.1,1.7,1.4.3,0,.8-.3.4-.5-.7-.2-1.1-.7-1.5-1.3,0-.2-.4,0-.5,0-1.8.9-3.6,2.1-4.2,4.1-.7,2.6.9,5.7,1.8,8,1,2.6,2.2,5.1,3.5,7.5,1.2,2.2,2.5,5,4.6,6.5,2.1,1.5,4.2.3,6.2-.7,2.9-1.5,5.8-2.9,8.8-4.3,1.1-.5,2.6-1,3.4-1.8.8-.8.5-1.8.1-2.7-.8-2-2.3-3.6-4.1-4.8-2.8-2-5.8-3.6-8.8-5.3-3.2-1.8-6.5-3.6-9.8-5.3-.3-.1-.9.2-.6.4h0Z"/>
    </g>
    <g>
      <path class="cls-12" d="M36.7,515.5c-2.9,4-5.6,8-7.9,12.2-.4.8-.9,1.7-.5,2.3.5.9,2.1.4,3.3-.1,3.1-1.3,6.2-2.7,9.2-4.1,2-1,4.1-2,5.9-3.4,3.5-2.7,5.7-6.5,7.2-10.1.2-.5.4-.9.4-1.3,0-.8-.7-1.3-1.5-1.4s-1.8.1-2.8.4c-4.3,1.2-8.7,3-12.8,5.4"/>
      <path class="cls-9" d="M36.3,515.5c-1.7,2.3-3.4,4.7-4.9,7.2-.6,1-1.2,2-1.8,3s-1.8,2.5-1.8,3.7c0,3.3,9.7-2,10.8-2.5,4.5-2.1,8.9-4.2,12.1-8.2,1.4-1.8,2.5-3.8,3.5-5.9.3-.8,1-1.8.6-2.6-.3-.7-1.1-.9-1.7-.9-1.1,0-2.2.3-3.3.6-1.3.4-2.7.8-4,1.3-3,1.1-5.8,2.5-8.6,4-.4.2.2.3.4.2,4-2.2,8.2-4.1,12.7-5.3,1-.3,3.2-.9,3.8.4.4.8-.3,1.8-.6,2.6-.8,1.8-1.8,3.5-2.9,5.1-2.5,3.5-5.9,5.7-9.8,7.5-2.2,1-4.3,2-6.5,3-1,.4-2,.9-3,1.3-.6.2-1.7.6-2.4.2-.5-.4-.1-1.3,0-1.7,1-2.3,2.5-4.5,3.9-6.6s2.8-4.2,4.3-6.2c.2-.2-.5-.2-.7,0h0Z"/>
    </g>
    <g>
      <path class="cls-12" d="M96.1,499.7c.1,0,.9-.4,1.7-.3,1.4.2,1.7,1.6,1.9,2.5.1.6.2,1.3,0,2-.2.7-.9,1.4-1.6,1.8-.3.1-.6.2-.9.3-.4.1-.8.3-1.2.6-.1,0-.2.2-.4.2-.2,0-.4,0-.4-.2-.4-.6-.6-1.3-.7-2-.7-2.7,0-3.2.2-3.5.6-.8,1.4-1.2,1.6-1.2h0Z"/>
      <path class="cls-12" d="M96.2,499.9c.6-.2,1.3-.4,1.8-.1.5.2.8.7.9,1.2.5,1.3.5,2.8-.5,3.9-.6.6-1.4.7-2.2,1-.2,0-.3.2-.5.3-.1,0-.3.3-.5.2s-.2-.4-.3-.5c0-.2-.2-.4-.2-.7-.2-.8-.4-1.6-.5-2.4,0-.4,0-.9,0-1.3.2-.7,1.1-1.3,1.8-1.6.4-.2,0-.6-.3-.5-.8.4-1.8,1-2.1,1.9-.2.5-.2,1-.1,1.6,0,1,.3,2,.7,2.9.1.3.3.8.7,1,.4.2.8,0,1.1-.2.5-.3.9-.5,1.5-.6.5-.1.9-.3,1.3-.6.7-.6,1.2-1.4,1.3-2.3,0-.7,0-1.5-.3-2.2s-.6-1.3-1.3-1.7c-.8-.4-1.8-.2-2.6.2-.4.2,0,.6.3.5Z"/>
    </g>
    <g>
      <path class="cls-12" d="M87.1,503c.2,0,.9-.3,1.4,0,0,0,.4.2.5,1.1.1,1,0,2.2-.4,3.3,0,.2-.2.4-.3.6-.1.2-.3.3-.5.4-.8.4-1.5.5-2.3.5-.3,0-.6,0-.8,0-.6-.2-.7-.8-.7-1.1,0-.3-.3-1.3.6-2.6.1-.2,1.1-1.7,2.6-2.1h0Z"/>
      <path class="cls-12" d="M87.2,503.2c.3,0,.9-.2,1.1,0,.3.3.3.9.4,1.3,0,.8,0,1.5-.2,2.2,0,.3-.2.7-.4,1-.2.3-.6.5-1,.6s-.7.2-1,.2-.7.1-1.1,0c-.5,0-.6-.6-.7-1-.2-.9,0-1.8.6-2.6.5-.8,1.3-1.6,2.3-1.9.1,0,.3-.1.3-.3s-.3-.1-.4-.1c-2,.6-3.9,2.9-3.5,5.1.1.5.3,1.1.9,1.2.4,0,.8,0,1.3,0s.9,0,1.3-.2c.8-.2,1.6-.6,1.8-1.4s.5-1.8.5-2.7c0-.6,0-1.4-.5-1.8s-1.3-.3-1.8-.1c-.1,0-.3.1-.3.3s.3.1.4.1h0Z"/>
    </g>
    <g>
      <path class="cls-12" d="M75,506.1c.8-.5,1.4-.8,1.8-.9.4-.2.5-.2.5-.2.4,0,.6.3.8.6.5,1.2.5,2.7.1,4.2,0,.1,0,.3-.2.4-.2.2-.4.3-.7.4-.7.2-1.3.4-2,.6-.2,0-.4,0-.6,0-.2,0-.3-.2-.4-.4-.5-1-.1-2.6-.2-3.6,0,0,0-.3.2-.6,0-.2.2-.3.6-.5h0Z"/>
      <path class="cls-9" d="M75.2,506.3c.4-.3.9-.5,1.3-.7.1,0,.3-.1.4-.2,0,0,.2,0,.2,0,0,0,0,0,0,0,.2,0,.3.3.3.5,0,.3.2.6.2.8.1.6.2,1.2,0,1.8,0,.3,0,.6-.1.9s0,.7-.4.9c-.5.3-1.1.4-1.7.6-.3,0-.6.2-.9.2s-.4-.3-.4-.6c-.1-.5-.1-1-.1-1.5,0-.5,0-1.1,0-1.6s0-.5.1-.7c.1-.2.3-.3.5-.4.1,0,.2-.3,0-.4-.2-.1-.4,0-.5,0-.4.3-.9.6-.9,1.2s0,1.2,0,1.8,0,1.3.2,1.9c0,.2.2.5.5.6.3.2.7.1,1,0,.8-.1,1.6-.4,2.3-.7.3-.1.5-.3.7-.5.2-.3.3-.8.3-1.2.1-.8.1-1.5,0-2.3,0-.6-.2-1.4-.7-1.8s-1-.2-1.5,0c-.6.2-1.2.6-1.8.9-.1,0-.2.3,0,.4.2.1.4,0,.5,0h0Z"/>
    </g>
    <g>
      <path class="cls-10" d="M82,507.8c-2.5.1-2.5,4.4-5.7,5.4-1.3.4-1.9,0-3.9.6-.8.2-1.6.8-2.3,1.3-1.1.8-2.2,1.9-2.5,3.2-.3,1.3.4,3,1.8,3.2.4,0,.8,0,1.2-.2,1.8-.5,3.7-1.1,5.3-2.1,6.6-3.8,7.2-3.5,7.9-5,.9-1.7,1.3-4.4,0-5.7-.1-.1-.8-.8-1.9-.8h0Z"/>
      <path class="cls-7" d="M82,507.6c-1.3.1-2.1,1.1-2.7,2.2-.9,1.5-1.8,3.1-3.7,3.4-.8.1-1.6,0-2.3.2-1.1.2-2.1.6-3,1.3-1.4,1-3.2,2.5-3.1,4.5.3,5.4,8.2.7,10.4-.5,1.5-.8,3-1.6,4.4-2.4.6-.3,1.2-.6,1.7-1.1,1.9-2,2.2-7.5-1.6-7.5-.3,0-.7.5-.3.5,3.3,0,2.8,4.9,1.3,6.7-.3.4-.8.7-1.3.9-1.1.6-2.1,1.1-3.2,1.7-1.8,1-3.5,2.1-5.4,2.8-.6.2-1.2.4-1.8.6-.6.2-1.3.4-1.8.4-1-.1-1.6-1.1-1.7-2-.2-2,1.8-3.6,3.3-4.6s3.1-.7,4.8-1.1c1.4-.3,2.4-1.2,3.2-2.4.7-1,1.3-2.9,2.8-3,.4,0,.6-.5,0-.5h0Z"/>
    </g>
    <g>
      <path class="cls-7" d="M125.2,435.5c1-1.2,3.1-4.1,3.9-8.4.5-2.7.3-5,0-6.4.3-.2.8-.4,1.3-.8.6-.5.9-.8.9-1.1,0-.6-.9-1-1.6-1.4-.6-.3-1-.4-1.4-.5-.4-9.7-3.9-17.3-9-18.7-.8-.2-1.9-.3-3.1-.1-1-1.1-2.4-2.3-4.4-3.2-8.8-4-22.8,2.2-27,12.4-.6,1.4-2.5,6.5-1.1,12.1,1.4,5.5,4.8,7,4.8,10.8,0,2.6-1.7,6.3-9.5,10.7,3.8.8,7.5,1.7,11.3,2.5,1.5,0,3.1-.1,4.6-.2,2.8.8,12.9,3.3,22.2-1.4,1.7-.8,5.1-2.6,8-6.4h0ZM125.7,429.9c-2.5,2.6-6.4,3.6-10,2.5-1.2,1.7-2.4,3.3-3.6,5-.6.2-2.5.8-4.8,0-2.4-.9-3.6-2.7-3.9-3.2,1.1-.8,2.9-2.4,4-5,.4-1,.6-1.9.7-2.6-.3.1-1.1.4-1.9.2-1.4-.3-2-1.6-2.1-1.8-.5-1.1-.5-2.8.5-3.4.8-.4,1.8,0,2,.2.7-.8,1.7-2,2.7-3.5,2.7-4,3.8-7.6,4.4-9.9.9-3,1.3-5.5,1.4-7.3.7-.2,1.8-.3,3.1,0,3.8.7,6.5,4.1,7.5,6.8.1.4,1.4,3.7,1.2,6.8,0,.3,0,.6,0,1,.6,2.2,4.3,2.3,4.4,3.4,0,.5-.6,1.2-3.1,2.1,0,.4,1.1,5.3-2.4,9h0Z"/>
      <g>
        <path class="cls-7" d="M125.2,435.4c3.3-4.1,4.9-9.6,3.9-14.8.5-.2,1-.6,1.4-1,.4-.3,1-.7.7-1.2-.7-.8-1.9-1.3-2.9-1.6h0c-.4-7.1-2.7-19.8-11.9-18.9-6.9-7.7-19.3-4.2-26,2-7.5,6.5-9.2,18-3,26,4.6,6.3-3.1,12.1-8.1,14.9-.2-.2,11.4,2.5,11.2,2.4,0,0,4.6-.2,4.6-.2,10.4,3,23.1,1.2,30.1-7.7h0ZM125.3,435.5c-7,9-19.8,11-30.2,7.8.1,0-4.6.2-4.6.2l-11.2-2.6h0c5-2.8,12.7-8.5,8.1-14.8-4.2-5.3-4.9-12-2.5-18.3,2.3-6.1,7.8-10.6,13.8-12.8,5.9-2.2,13.5-2,17.9,3,9.2-1.1,11.8,11.7,12.2,18.8h0c1.1.3,2.2.6,2.9,1.6.2.3,0,.7-.1.9-.6.6-1.3,1.1-2.1,1.5h0c.9,5.1-.6,10.6-4,14.7h0Z"/>
        <path class="cls-7" d="M125.7,429.9c-2.3,2.7-7.1,3.8-10,2.5l-3.6,5c-3.3,1.2-7.3-.3-8.9-3.4,2.5-1.8,4.3-4.6,4.8-7.7-2.7,1.5-5.5-2.1-4-4.7.6-.8,1.8-.7,2.6-.3h-.1c1.2-1.4,2.4-2.9,3.4-4.5,2.1-3.2,3.2-6.9,4.2-10.5.5-1.9.8-3.7,1-5.6,2.6-.6,5.4.2,7.3,2,3,2.6,4.4,6.6,4.6,10.5,0,.6-.1,1.3,0,1.9.1.6.6,1.1,1.1,1.4.8.5,1.8.8,2.6,1.3.3.2.6.4.7.8,0,.4-.3.7-.6.9-.8.6-1.7,1-2.6,1.3h0c.6,3.1-.2,6.6-2.5,8.9h0ZM125.6,429.8c2.2-2.3,3-5.8,2.4-9,.9-.4,1.9-.7,2.6-1.3.6-.5.6-1-.1-1.3-1.4-.7-3.4-1.1-3.8-2.9,0-2,0-3.9-.5-5.8-1.1-4.9-5.7-9.9-11.1-8.5-.6,7.2-3.5,15.2-8.6,20.7-4.6-2.2-3.2,6.7,1.5,4.7-.2,2.8-2.4,6.3-4.6,7.7,1.6,3,5.8,4.2,8.6,3.2l3.6-5h0c0,0,0,0,0,0,3.4,1.1,7.4.2,9.9-2.5h0Z"/>
      </g>
    </g>
    <path class="cls-7" d="M121.8,416.4c0,0,.1,0,.2,0s.1,0,.2,0c.2,0,.4,0,.6-.2.2,0,.3-.2.4-.4,0-.3-.1-.5-.3-.6-.1,0-.3,0-.5,0-.3,0-.6,0-.9.2-.3.1-.6.4-.6.8,0,0,0,0,0,0,0,0,0,.1.1.2.2.2.5.2.8.1.3,0,.6-.2.9-.4.1,0,.2-.2.2-.3,0-.2,0-.3,0-.5,0,0-.1-.2-.2-.2-.1,0-.2-.1-.4-.2,0,0-.2,0-.3,0-.2,0-.3,0-.5,0-.2,0-.5.2-.7.3-.1.1-.2.2-.3.4,0,.1,0,.2,0,.3s.2.2.3.2c.2,0,.4,0,.5,0s.4-.1.5-.2c0,0,.2-.2.1-.3s0,0,0-.1h0s0,0,0-.1h0c0,0,0,0,0,0h-.1c0,0,0,0,0,0h-.1c0,0,0,0,0,0h-.2c0,0,0,0,0,0h-.2c0,0,0,0,0,0h-.2s0,0,0,0h-.2s0,0,0,0h-.2,0-.1s0,0,.1,0h0c0,0,.1,0,.1,0h0c0,0,0,.1,0,.2h0s0,0,0,0h0c0,0,0,0,0,0h.1c0,0,0,0,0,0h.1c0,0,0,0,0,0h.2c0,0,0,0,0,0h.2c0,0,0,0,0,0h.2s0,0,0,0h.2s0,0,0,0h.2,0,.1s0,0,0,0h0c0,0,0,0,0,0h0c0,0,0,0,0,0h0c0,0,0,0,0,0h0c0,0,0,0,0,0h-.1c0,0,0,0,0,0h-.1c0,0,0,0,0,0h-.2c0,0,0,0,0,0h-.2c0,0,0,0,0,0h-.2s0,0,0,0h-.2s0,0,0,0h-.2,0-.1s0,0,.1,0h0c0,0,0,0,.1,0h0c0,0,0,0,0,0h0c0,0,0,0,0,0h0c0,0,0,0,0,0h.1c0,0,0,0,0,0h.1c0,0,0,0,0,0h.2c0,0,0,0,0,0h.2c0,0,0,0,0,0h.2s0,0,0,0h.2s0,0,0,0h.2,0c0,0-.2,0-.2,0-.1,0-.2,0-.3,0-.2,0-.4.1-.5.2,0,0-.2.2-.1.3,0,.1.2.2.3.2h0Z"/>
    <path class="cls-7" d="M126.5,424.9c-1.1.6-2.8,1-3.7-.2-.2-.2-.9,0-.7.3,1.1,1.4,3.3.9,4.7.2.1,0,.3-.2.2-.3,0-.1-.4,0-.5,0h0Z"/>
    <path class="cls-7" d="M123.6,411.8c-1.5-.2-3.1-.2-4.6.2-.2,0-.3.2-.3.4,0,.2.3.2.4.2,1.4-.3,2.8-.4,4.2-.1.2,0,.4,0,.5-.2s0-.3-.2-.3h0Z"/>
    <path class="cls-7" d="M121.9,414.8h0,.2c0,0-.2,0-.3,0h.1c-.1,0-.2,0-.3-.1h.1c0,0,0,0-.1,0-.1-.1-.2-.2-.4-.2-.1,0-.2,0-.3,0-.1,0-.2,0-.3,0h-.2c0,.2-.2.2-.2.3h0c0,.2,0,.3,0,.3,0,0,.2.1.2.2,0,0,.1,0,.2.1.1,0,.2,0,.3.1.1,0,.2,0,.4,0,.1,0,.2,0,.3,0,.1,0,.2,0,.3,0,0,0,.2,0,.2-.1,0,0,.1,0,.2-.2h0c0-.2,0-.3,0-.3h-.1c0-.1-.2-.2-.3-.2h0Z"/>
    <path class="cls-7" d="M121,415.8c-.1.3,0,.7.2.9.3.3.7.3,1.1.3.3,0,.7-.1,1-.4.1-.1.2-.3.2-.5s-.2-.3-.4-.4c-.4-.2-.8-.3-1.2-.3l.3.2s0,0,0,0c0,0,0,0,0,0h0s0,0,0,0c0,0,0,0,0,0h0c.2,0,.3,0,.4,0,.3,0,.4.3.5.6,0,.2,0,.3,0,.5t0,0s0,0,0,0c0,0,0,0,0,0,0,0,0,0,0,0,0,0,0,0,0,0s0,0,0,0c0,0,0,0,0,0,0,0,0,0-.1,0,0,0,0,0,0,0,0,0,0,0,0,0,0,0-.1,0-.2,0-.1,0-.3,0-.4-.1-.3-.2-.5-.4-.6-.8,0-.2-.3-.2-.4-.1-.1,0-.3.1-.3.3,0,.4.4.8.8,1,.5.2,1.1.2,1.6,0,.2,0,.5-.2.6-.5s0-.5,0-.7c0-.2-.1-.4-.3-.6s-.4-.3-.6-.3c-.6-.2-1.4-.1-1.6.5,0,0,0,.1,0,.2,0,0,.2,0,.2,0,0,0,0,0,0,0,0,0,0,0,.1,0,0,0,.1,0,.2,0,.1,0,.2,0,.4.2,0,0,.1,0,.2.1,0,0,0,0,0,.1,0,0,0,0,0,0,0,0,0,0,0,0,0,0,0,0,0,0s0,0,0,0c0,0,0,0,0,0,0,0,0,0,0,0s-.1,0-.1,0c-.1,0-.2,0-.3,0-.2,0-.4-.3-.3-.6.1-.4-.6-.3-.7,0h0Z"/>
    <path class="cls-7" d="M127.6,411.8c.3-.3.6-.6.8-.9,0,0,0,0,0,0,0,0,0,0-.1,0,0,0-.1,0-.2,0,0,0-.2,0-.3,0-.2,0-.4,0-.6.2-.1,0-.2.1-.3.2s-.1.2-.2.3h0c-.1.1-.3.3-.5.4,0,0,0,0,0,.1,0,0,0,0,0,0,0,0,.1,0,.1,0,0,0,.1,0,.2,0,.2,0,.4,0,.6-.1.1,0,.3-.1.4-.2h0Z"/>
    <path class="cls-9" d="M110.8,396.3c.2,0,.4.1.5.2.2.1.3.2.5.4.3.3.6.5.9.8.6.6,1,1.2,1.4,1.9.1.2.8,0,.7-.3-.4-.8-1-1.5-1.6-2.1-.3-.3-.6-.6-1-.9-.4-.3-.8-.6-1.2-.5-.1,0-.4,0-.4.3,0,.2.2.2.3.2h0Z"/>
    <path class="cls-7" d="M106.3,421.2c-.8-.2-1.6-.4-2.3.1-.6.4-.7,1.2-.7,1.8,0,.8.3,1.7.8,2.4s1.1,1,1.9,1.2c.5,0,1,.2,1.4,0,.4,0,.8-.3,1.1-.5.4-.3-.2-.5-.5-.3s-.6.4-.9.4c-.4,0-.9,0-1.2-.2-.8-.2-1.2-.9-1.5-1.6s-.5-1.6-.3-2.3c0-.3.3-.6.6-.7.4,0,.8,0,1.1.2.2,0,.4,0,.5-.1.1-.1,0-.3,0-.3h0Z"/>
    <path class="cls-7" d="M107.6,426.5c.3,1.5-.8,3.1-1.7,4.3-.9,1.3-1.9,2.5-3,3.6-.3.3.4.2.6,0,1.2-1.2,2.3-2.4,3.2-3.8.8-1.2,1.9-2.8,1.6-4.4,0-.2-.8,0-.7.2h0Z"/>
    <path class="cls-7" d="M116.8,395c.8-1.1,1.1-2.5.5-3.8-.4-.8-1-1.5-1.8-2-.3-.2-.7-.1-1,0-.2.2-.4.6,0,.8.2.1.4.3.6.4,0,0,0,0,.1.1,0,0,0,0,0,0,0,0,.1.2.2.2.2.2.3.4.4.6.3.5.4,1.2.2,1.8,0,.3-.1.5-.2.8,0,.1-.1.2-.2.3,0,0,0,0,0,.1,0-.2,0,0,0,0-.5.8.8,1,1.2.4h0Z"/>
    <path class="cls-7" d="M115.5,394.5c-.4-1.4-1.3-2.7-2.5-3.6-1.8-1.4-4.3-1.7-6.5-1.1-.2,0-.7.3-.6.6s.6.2.8.2c.3,0,.4-.1.8-.1.5,0,.9,0,1.4,0,1.1.1,2.2.6,3.1,1.4,1,.8,1.7,1.9,2.1,3.1.2.5,1.6.1,1.4-.4h0Z"/>
    <g>
      <path class="cls-7" d="M94.9,462.3c.8.6,1.9,1.5,3.4,2.5,2.4,1.8,3.1,1.8,3.4,2.4.8,1.3-.4,4.7-9.3,13.5.1,2.1.6,5.3,2.8,8,6.7,8.3,23.9,5,23.9,5.5,0,.3-6.8.5-15.1,1.9-12.4,2.1-11.3,4.1-19,6.6-.4.1-1.5.5-2.2,1.5-.6.9-.6,2.1-.5,3.2.3,4,1.3,8.8,5.1,9.9,1.9.5,3.8,0,5.7-.7,10.2-3.4,20.1-7.6,29.7-12.4,2.1-1,5.1-2,7.2-4.8,0,0,2.3-3.1,2.5-8,.3-7.3-7.4-17.1-20-24.9-1.2-.7-2.2-1.2-3.3-1.7-5.6-2.5-10.9-2.6-14.3-2.4h0Z"/>
      <path class="cls-7" d="M94.6,462.5c1.8,1.4,3.5,2.7,5.4,3.9.6.4,1.3.7,1.5,1.4.4,1.6-1.3,3.6-2.1,4.8-1.2,1.6-2.4,3-3.8,4.4-.8.9-1.7,1.8-2.6,2.6s-1.2.9-1,2c.4,3.8,2.1,7.3,5.3,9.5,5,3.5,11.8,3.7,17.6,3.4,1,0,2-.1,3-.2.2,0,.6,0,.7,0,.6-.3,0-.2-.4-.2-3.9.5-7.9.8-11.9,1.3s-8.1,1.3-11.9,2.7c-2.2.9-4.3,2.1-6.5,3.1-1.3.6-2.8.9-4.1,1.6-1.9,1-2.1,2.9-1.9,4.8.3,3.2.9,7.5,4,9.2,1.8,1,3.9.8,5.8.2,2.4-.7,4.8-1.6,7.2-2.5,5.3-1.9,10.5-4.1,15.5-6.4,2.5-1.1,5-2.3,7.5-3.6,1.8-.9,3.6-1.6,5.3-2.7,2.4-1.6,3.9-3.8,4.8-6.6,1.1-3.4.9-6.8-.4-10.1-1.4-3.5-3.8-6.6-6.4-9.3-3.3-3.4-7-6.4-11-9-4.2-2.7-8.7-4.5-13.7-5-1.9-.2-3.8-.2-5.7,0-.4,0-.6.5,0,.5,4.8-.3,9.7.4,14.1,2.3s8.6,5.1,12.3,8.4c3.1,2.7,5.9,5.7,8,9.2,1.6,2.6,2.9,5.7,2.8,8.8s-1,6.5-3.1,8.8c-1.5,1.7-3.5,2.6-5.5,3.5-2.2,1-4.3,2.1-6.5,3.1-4.9,2.3-9.8,4.4-14.8,6.3-2.6,1-5.3,2-7.9,2.9s-5.6,2.2-8.1.5c-1.6-1.1-2.4-2.9-2.9-4.7s-.9-4.2-.7-6.1c.3-2.5,2.7-2.8,4.7-3.5,1.2-.5,2.3-1,3.4-1.5,2.3-1.2,4.5-2.2,7-2.9,4.7-1.3,9.6-1.9,14.5-2.5,1.7-.2,3.4-.3,5.2-.5.4,0,1.6,0,2-.3.6-.7-1.8-.4-2-.4-5.7.4-12,.5-17.3-2-3.6-1.7-6.1-4.7-6.9-8.6-.1-.7-.5-1.8-.3-2.5.1-.5.9-1.1,1.3-1.5.5-.5.9-.9,1.4-1.4,1.4-1.4,2.7-2.9,3.9-4.4,1.1-1.4,2.6-3.2,2.9-5.1.2-1.5-.7-1.9-1.8-2.6-1.8-1.1-3.5-2.5-5.2-3.8-.2-.2-.9.2-.6.4h0Z"/>
    </g>
    <g>
      <path class="cls-12" d="M88.5,457.5c0-.3.1-.5.1-.5.5-2.2,2.5-9.6,8.1-17,4.1-5.5,8.6-9,10.7-8,.7.3,1.7,1.3,3.4,1.3.9,0,1.4-.3,1.8-.4,2.4-.5,9.6,8.9,11.2,21,.6,4.3,2.6,19.4-8.5,30.6-10.4,10.5-24.3,9.6-26.5,9.5-2.3-21.7-1.3-31.7-.2-36.6h0Z"/>
      <path class="cls-9" d="M88.8,457.4c1.3-5.5,3.6-10.7,6.8-15.4,2.1-3.2,4.6-6.3,7.8-8.6.9-.7,2.3-1.6,3.5-1.3s2,1.3,3.3,1.4c.9.1,1.9-.5,2.7-.3.7.1,1.3.8,1.8,1.2,1.8,1.7,3.1,3.8,4.3,5.9,2.7,4.9,4.1,10.4,4.7,15.9,1.2,11.5-2.1,23.3-11.5,30.7-4.8,3.8-10.6,6-16.7,6.7-1.8.2-3.6.3-5.3.2-.2,0-.5,0-.8,0-.5,0-.3.1-.4-.4-.2-2-.4-4-.6-6-.8-9.3-1.6-19.2.1-28.5,0-.5.2-1.1.3-1.6,0-.3-.7-.2-.7,0-1.8,7.7-1.4,16-.9,23.8.2,4.3.6,8.6,1.1,12.9,0,0,.2.1.2.1,6.7.5,13.8-1,19.7-4.2,9.2-5,14.9-14.2,16.1-24.5.9-8-.4-16.6-3.9-23.8-1.4-3-3.4-6.8-6.4-8.6-1.4-.9-2.7.3-4.2-.2s-2.4-1.7-4.1-1.2c-2.2.6-4.1,2.3-5.6,3.8-2.5,2.5-4.6,5.3-6.4,8.3-2.5,4.2-4.4,8.8-5.6,13.5,0,.3.7.2.7,0h0Z"/>
    </g>
    <path class="cls-7" d="M108.2,424.8c.2.6.5,2,.9,2.5.5.5,1.2,1.7,1.8,2,.5.3,1.1.5,1.6.8h0c-.6,0-1.1-.3-1.6-.8-.4-.4-1.1-.6-1.3-1.2-.3-.2-.4-.5-.5-.7-.4-.8-1-1.6-1-2.5h.1s0,0,0,0Z"/>
    <path class="cls-9" d="M121.8,449.9l1.1,2.7c0,0-.3.2-.3,0-.4-.9-.8-1.8-1.1-2.7,0,0,.3-.2.3,0h0Z"/>
    <path class="cls-9" d="M121.1,450.6c.3.8.6,1.6,1,2.4,0,0-.3.1-.3,0-.4-.8-.7-1.6-1-2.4,0,0,.3-.1.3,0h0Z"/>
    <path class="cls-9" d="M121.1,453c.2.2,0,.5-.1.6-.3.2-.6.1-.9,0-.1,0-.2-.2-.3-.3,0-.1-.1-.2-.1-.4,0-.1.1-.2.2-.2.1,0,.3,0,.5,0,.3,0,.6.2.7.4,0,0-.3.1-.3,0,0-.2-.2-.3-.4-.3,0,0,0,0-.1,0,0,0,0,0,0,0s0,0,0,0c0,0,0,0,0,0h0c0,0-.1,0-.2.2,0,0,0,.2,0,.3,0,0,.1.2.2.3,0,0,.1.1.2.2,0,0,0,0,.1,0,0,0,0,0,0,0,0,0,0,0,0,0s0,0,0,0h0c.2,0,.2-.4.1-.5,0,0,0,0,.1,0,0,0,0,0,.1,0s0,0,0,0h0Z"/>
    <path class="cls-9" d="M119.2,452.9c.2.3.3.7.3,1,0,.1-.2.2-.3.1-.3-.2-.5-.4-.8-.5h.3c0,.2,0,.5-.2.8,0,0-.2,0-.3,0-.5-.4-1-.7-1.5-1.1,0,0,0-.1,0-.2,0,0,.2,0,.2,0,.5.4,1,.7,1.5,1.1h-.3c.2-.2.2-.5.2-.8,0-.1.2-.2.3-.1.3.2.5.4.8.5h-.3c0-.2-.1-.5-.3-.8,0-.2.2-.2.3-.1h0Z"/>
    <g>
      <path class="cls-7" d="M120.8,442.1c-.3-.2-.4-.2-.3,0,0,0,0,.2,0,.3,0,.2,0,.5,0,.7-.1.6-.2,1.1-.4,1.7-.4,1.6-1,3.2-1.5,4.8-1.5,4-3.4,7.9-5.9,11.4-4.5,6.3-9.8,12.1-15.8,17-.3.3.4.2.6.1,5.3-4.3,9.9-9.3,14.1-14.7s7.3-11.7,9.1-18.5c.2-.7.8-2.2.6-2.9-.2-.5-.7-.3-1,0-.3.3.4.3.6.1h0Z"/>
      <path class="cls-7" d="M87.1,474.7c1.6.2,3.2,0,4.7,0s3.3.4,4.4,1.5c.9,1,1.3,2.4,1.6,3.7.7,3.4.9,6.8.7,10.3,0,.7-.1,1.4-.5,1.9-.3.4-.8.7-1.3.9-2.2,1.1-4.7,1.5-7.2,1.3-.9,0-1.9-.3-2.6-.9-1.1-1-1.2-2.6-1.3-4,0-2.3-.2-4.6-.3-6.9,0-2.1-.2-4.2.3-6.2.2-.8.8-1.8,1.7-1.5"/>
      <path class="cls-7" d="M87.8,465.1c-1.1,1.6-2.2,3.4-2.7,5.3-.6,2.1-.1,4.1,1.3,5.6.2.2.9,0,.7-.3-1.4-1.5-1.8-3.4-1.3-5.4.5-1.8,1.5-3.5,2.5-5,.3-.4-.4-.4-.6-.2h0Z"/>
      <path class="cls-9" d="M86,481.9c3.8,0,7.6,0,11.4-.2.4,0,.6-.5,0-.5-3.8.1-7.6.2-11.4.2-.4,0-.6.5,0,.5h0Z"/>
      <path class="cls-9" d="M91.5,483.8c.4,0,.6-.5,0-.5s-.6.5,0,.5h0Z"/>
      <path class="cls-12" d="M87.7,463.8c0,.3,0,.7,0,1.1,0,1-.1,2-.1,2.9,1.3-.4,2-1.6,1.8-2.6-.2-.7-.8-1.2-1.5-1.4h0Z"/>
    </g>
    <g>
      <g>
        <path class="cls-9" d="M129.1,476.9c.8-.6,1.8-.4,2,0,.2.4,0,1.1-.6,1.6"/>
        <path class="cls-7" d="M129,476.8c.4-.5,1-.4,1.5-.3.2,0,.4,0,.5.2,0,0,.2,0,.2.2.1.2,0,.6,0,.8,0,.4-.3.7-.6.8h0c.2-.4.9-.9.7-1.3,0,0,0-.1-.1-.2,0,0,0-.2,0-.2-.2,0-.3-.1-.4-.2-.5-.2-.9.2-1.4.3h0Z"/>
      </g>
      <g>
        <path class="cls-9" d="M129.9,477.4c3.5.5,4.4.5,4.4.9,0,.1,0,.2-.1.3-.3.3-.9,0-2,0-.8,0-1.3,0-1.3,0,0,0,1.1,0,2.4.4.9.3,1.2.5,1.2.8,0,.2,0,.3,0,.3-.2.3-.8.2-1.2,0-.9-.2-2.3-.5-2.2-.5,0,0,2.4.5,2.5,1.2,0,0,0,.2,0,.3-.1.2-.5.2-1.1.1-.9-.1-1.6-.4-1.7-.4,0,0,1.5.5,1.5,1.1,0,.2-.2.3-.2.3-.4.3-1.1,0-1.9-.3-2.4-.9-2.7-.8-3.1-1.3-.4-.5-.6-1.4-.3-2.1.3-.8,1.2-1,1.5-1.1.6-.2,1.1-.1,1.7,0h0Z"/>
        <path class="cls-7" d="M130,477.3l2.2.3,1.1.2c.3,0,1.4,0,1.2.7-.1.3-.6.4-.8.4-.8,0-1.6-.3-2.5-.2,0,0,0,0-.1,0h0s0,0,0,0c0-.1,0,0,0,0,1.1.1,2.3.3,3.3.8.4.2.4.8-.1.9-1.1,0-2.1-.3-3.2-.5-.1,0-.2-.2,0-.2.1,0,0,0,.1,0,.6,0,1.1.3,1.6.5.3.2.7.3.9.8,0,1.1-2,.3-2.6.1h-.3c0,0,0,0,0-.1,0,0,0,0,0,0h0c.5.2,2.1.9,1.1,1.6-.6.3-1.5-.3-2.2-.4-.9-.4-1.9-.4-2.6-1-1.9-2.2.5-4.2,2.8-3.6h0ZM129.9,477.5c-1.8-.4-4.1.8-3,2.9.5,1,1.9.9,2.8,1.4.6.2,2.2,1.1,2.4,0-.2-.6-1-.7-1.5-1-.1,0,0-.2,0-.2,0,0,.3,0,.3,0,.5.1,1.1.3,1.6.3.4,0,.8,0,.8-.3-.3-.8-1.6-.9-2.3-1.1,0,0-.1,0,0,0,0,0,0-.2,0-.2,0,0,.3,0,.4.1.7.2,1.4.4,2.2.5.3,0,.8,0,.9-.3,0-.4-.4-.5-.7-.7-.9-.3-1.9-.5-2.8-.5,0,0,0,0-.1,0,0,0,0,0,0,0,.5-.1,1.1,0,1.6,0,.5,0,1.1.2,1.6,0,.8-.5-1.7-.7-1.9-.8l-2.2-.3h0Z"/>
      </g>
      <g>
        <path class="cls-12" d="M114.7,451.9c2.5,5.2,5.1,9.1,7.1,11.8,3.4,4.7,9.2,11.4,7.8,13.2-.4.6-1.6.6-2.2,1.8-.5,1-.1,1.5-.4,1.8-1.1,1.1-9.4-3.4-15.3-11.3-2-2.7-3.2-5.1-4.1-6.9"/>
        <path class="cls-9" d="M114.4,452c2.1,4.1,4.4,8.1,7.1,11.8,2.4,3.3,5.4,6.5,7.3,10.2.3.5.6,1.2.7,1.8.2,1-.3,1.2-1.1,1.7-.5.3-1,.7-1.3,1.3-.2.4-.2.8-.3,1.2,0,.6,0,.5-.5.5-1.2,0-2.7-1.1-3.7-1.6-1.7-1-3.2-2.2-4.7-3.5-4.2-3.6-7.6-8.1-9.9-13.2-.1-.2-.8,0-.7.2,2.2,4.9,5.5,9.3,9.5,12.9,1.6,1.5,3.4,2.8,5.3,3.9,1.1.7,2.3,1.3,3.6,1.6.6.1,1.5.2,1.8-.5.1-.3,0-.7,0-1,.1-.9.8-1.4,1.5-1.9.5-.3,1-.5,1.1-1.2.3-1.3-.9-3-1.6-4-1.2-1.9-2.6-3.7-3.9-5.5-3.6-4.8-7-9.7-9.6-15.1-.1-.2-.8,0-.7.2h0Z"/>
      </g>
    </g>
  </g>
</svg>