<?xml version="1.0" encoding="UTF-8"?>
<svg id="_レイヤー_2" data-name="レイヤー 2" xmlns="http://www.w3.org/2000/svg" xmlns:xlink="http://www.w3.org/1999/xlink" viewBox="0 0 722.03 556.96">
  <defs>
    <style>
      .cls-1 {
        clip-path: url(#clippath);
      }

      .cls-2 {
        fill: none;
      }

      .cls-2, .cls-3 {
        stroke-width: 0px;
      }

      .cls-4 {
        clip-path: url(#clippath-1);
      }

      .cls-5 {
        clip-path: url(#clippath-2);
      }

      .cls-6, .cls-7 {
        font-family: HiraKakuStd-W8-83pv-RKSJ-H, 'Hiragino Kaku Gothic Std';
        font-size: 54px;
        letter-spacing: .08em;
      }

      .cls-8 {
        fill: #231815;
        font-family: HiraKakuPro-W6-83pv-RKSJ-H, 'Hiragino Kaku Gothic Pro';
        font-size: 12px;
      }

      .cls-9 {
        letter-spacing: .09em;
      }

      .cls-3 {
        fill: #e2e0e0;
      }

      .cls-10 {
        font-family: KozGoPr6N-Regular-83pv-RKSJ-H, 'Kozuka Gothic Pr6N';
        font-size: 9px;
      }

      .cls-7 {
        fill: #fff;
        stroke: #231815;
        stroke-width: .5px;
      }
    </style>
    <clipPath id="clippath">
      <rect class="cls-2" x=".06" y="37.84" width="709.03" height="449.89"/>
    </clipPath>
    <clipPath id="clippath-1">
      <rect class="cls-2" x="-41.07" y="37.84" width="426.68" height="426.68"/>
    </clipPath>
    <clipPath id="clippath-2">
      <rect class="cls-2" x="329.94" y="87.27" width="414.11" height="356.44"/>
    </clipPath>
  </defs>
  <g id="_レイヤー_1-2" data-name="レイヤー 1">
    <g>
      <rect class="cls-3" x="8.51" y="44.84" width="692.96" height="431.78"/>
      <path class="cls-3" d="m704.65,479.8c-172.86,4.48-348.45,6.8-521.93,1.91-58.17-1.51-116.15-3.09-174.21-3.39,0,0-1.7-.01-1.7-.01v-1.68c.83-70.87-1.36-144.88-4.34-215.89-1.55-53.96-4.15-107.97-.9-161.92,1.18-19.39,2.6-38.78,2.93-58.18,0,0,4.01.1,4.01.1,36.18,1.64,72.16-3.16,108.28-4.28,79.43-.48,158.81,3.26,238.21,5.4,117.65,3.51,235.25-.05,352.85-3.74,1.08,38.64,1.77,77.41,1.9,116.25.29,108.44-1.58,217.26-5.09,325.44h0Zm-6.36-6.36c-4.24-143.04-7.2-285.65-3.37-428.6,0,0,6.55,6.55,6.55,6.55-115.47-3.68-230.96-6.98-346.48-3.56-72.18,2.01-144.34,5.11-216.55,5.45-14.45.22-28.88-.06-43.31-1-28.83-2.17-57.69-4.42-86.62-3.33,0,0,4.11-4.11,4.11-4.11.98,35.96,5.02,71.94,4.37,107.94-.69,107.47-8.62,216.35-6.78,323.83,0,0-1.69-1.69-1.69-1.69,57.45-.3,114.97-1.87,172.27-3.39,172.98-4.99,343.94-2.41,517.51,1.91h0Z"/>
    </g>
    <g class="cls-1">
      <g class="cls-4">
        <image width="3500" height="2300" transform="translate(-154.69 37.84) scale(.19)" xlink:href="../../TIPTOE/TIPTOE表紙.png"/>
      </g>
      <g class="cls-5">
        <image width="3500" height="2300" transform="translate(259.66 87.27) scale(.15)" xlink:href="../../TIPTOE/tiptop_right.png"/>
      </g>
    </g>
    <g>
      <text class="cls-7" transform="translate(335.43 47.77)"><tspan x="0" y="0">EDITORIAL</tspan><tspan x="115.45" y="67.66">DESIGN</tspan></text>
      <text class="cls-6" transform="translate(342.63 50.46)"><tspan x="0" y="0">EDITORIAL</tspan><tspan x="115.45" y="67.66">DESIGN</tspan></text>
    </g>
    <text class="cls-8" transform="translate(619.53 529.96)"><tspan x="0" y="0">Brand : TIPTOE</tspan></text>
    <text class="cls-10" transform="translate(485.44 551.77)"><tspan class="cls-9" x="0" y="0">Editorial design featuring Spanish Majolica tiles</tspan><tspan x="230.31" y="0">.</tspan></text>
  </g>
</svg>