<?xml version="1.0" encoding="UTF-8"?>
<svg id="Layer_2" data-name="Layer 2" xmlns="http://www.w3.org/2000/svg" viewBox="0 0 728.53 644.55">
  <defs>
    <style>
      .cls-1 {
        fill: #008ed5;
        stroke-width: 0px;
      }
    </style>
  </defs>
  <g id="_レイヤー_1" data-name="レイヤー 1">
    <path class="cls-1" d="M728.53,329.02c-135.95,76.5-292.23,94.27-442.2,52.01-114.1-31.65-209.92-108.2-264.31-213.59,0,0-3.09-5.97-3.09-5.97l-2.96-6.04c-5.9-12.08-11.17-24.46-15.98-37.02,16.82,49.42,39.29,100.02,70.07,143.62,68.18,100.42,174.74,169.4,292.3,197.25,51.83,12.45,105.84,17.8,159.04,13.4,36.37-3.2,73.41-10.41,105.26-29,7.37-3.96,14.64-8.21,22.56-11.01,9.37-3.1,1.95,6.47-.51,9.57-19.37,23.06-43.09,42.2-67.75,59.31-30.34,20.89-64.59,35.92-100.46,44.29-78.09,17.74-163.17,8.23-234-29.71-14.64-8.08-28.6-17.46-41.19-28.49-10.66-9.81-21.92-20.01-28.52-33.13-.72-2.22.52-2.45,2.19-1.05,6,5.09,16.66,17.94,22.25,23.83,8.99,9.89,18.16,19.62,27.63,29.04,55.86,55.3,126.92,106.98,208.84,105.89,40.24-.7,79.17-14.47,114.15-33.7,14.69-7.96,28.63-17.2,42.71-26.19,2.14-1.32,4.29-2.65,6.58-3.72,1-.39,2.07-.99,3.23-.72.26.08.52.27.66.52.28.49.22.97.2,1.42-.41,2.56-1.82,4.77-3.08,6.96-9.08,14.1-21.3,25.92-34.01,36.72-33.28,27.81-74.87,47.08-118.58,49.08-64.57,3.29-124.14-27.96-178.07-60.05-34.54-20.14-67.75-43.43-105.45-57.34-6.29-2.21-12.71-4.05-19.26-5.25-32.6-6.45-59.06,8.05-74.01,37.32-13.77,26.81-17.59,57.55-19.62,87.27,0,0-.53-.03-.53-.03.84-13.35,2.11-26.68,4.39-39.87,3.35-18,8.28-36.2,17.5-52.13,15.78-27.14,41.52-39.41,72.43-33.37,19.82,3.73,38.22,12.55,55.91,21.91,46.93,25.55,90.73,56.89,139.94,78.11,49.16,21.77,103.84,31.21,155.68,13.15,37.72-13.07,72.04-36.82,97.36-67.72,3.39-4.58,7.36-9.24,8.77-14.84.52-2.98-4.27.01-5.4.55-4.36,2.45-8.53,5.24-12.75,7.93-44.3,29.31-94.66,53.54-148.74,54.35-96.23.49-175.12-67.88-236.78-135.04,0,0-13.46-14.86-13.46-14.86-3.17-3.25-5.99-7.01-9.78-9.54-.28-.11-.61-.29-.68.1-.06.32.07.74.19,1.11,3.25,7.2,8.84,13.13,14.01,19,67.35,70.84,186.04,92.6,279.27,73.61,53.85-10.63,100.35-34.69,142.15-70.01,12.69-10.82,25.09-22.14,35.6-35.11,1.92-2.59,4.26-5.22,4.99-8.37,0-.37-.05-.6-.35-.7-1.15-.28-2.33.18-3.46.5-1.57.51-3.11,1.15-4.63,1.83-6.08,2.74-11.94,5.97-17.78,9.2-8.72,4.97-17.71,9.58-27.14,13-23.45,8.86-48.51,13.42-73.39,15.94-28.22,2.62-56.96,2.35-85.18-.15-33.15-3.06-66.47-9.16-98.49-18.32-109.64-30.27-208.76-98.32-273-192.59C39.98,218.38,14.53,168.55.47,118.24c5.56,14.58,11.97,29.02,18.97,42.98,55.14,109.21,149.67,185.71,267.16,218.88,152.92,42.87,303.53,23.71,441.93-51.07h0Z"/>
    <path class="cls-1" d="M526,25.36c-28.37,18.21-59.72,31.99-92.52,39.91-40.94,10.1-84.07,12.3-125.35,2.93-12.31-2.92-24.41-6.93-35.79-12.48-7.55-3.71-14.93-8.01-21.13-13.77-3.03-2.93-5.99-5.95-8.6-9.28-6.01-7.54-4.29-11.86,5.61-11.9,5.5.07,8.95,3.66,5.36,8.68-5.74,7.18-23.4.86-30.41-2.36-11.59-5.49-20.47-15.52-26.17-26.85,0,0,.47-.24.47-.24,5.88,11.09,14.7,20.8,26.12,26.21,3.74,1.86,7.76,3.07,11.82,4.12,3.99.98,8.2,1.84,12.29,1.25,2-.3,3.97-1.1,5.18-2.68,1.15-1.45,1.86-3.74.71-5.35-1.21-1.57-3.51-1.95-5.42-2.11-9.36-.1-10.94,3.63-5.3,11.02,12.76,17.18,33.28,25.84,53.26,31.64,44.42,12.74,92.59,12.3,137.22.7,32.56-8.58,63.72-22.18,92.35-39.89l.28.45h0Z"/>
  </g>
</svg>